<?xml version="1.0" encoding="utf-8"?>
<!-- Generator: Adobe Illustrator 23.0.0, SVG Export Plug-In . SVG Version: 6.00 Build 0)  -->
<svg version="1.1" id="Layer_1" xmlns="http://www.w3.org/2000/svg" xmlns:xlink="http://www.w3.org/1999/xlink" x="0px" y="0px"
	 viewBox="0 0 595.28 841.89" style="enable-background:new 0 0 595.28 841.89;" xml:space="preserve">
<style type="text/css">
	.st0{fill:#FDFDFD;}
	.st1{fill:#070707;}
</style>
<g>
	<g>
		<path class="st0" d="M449,421.89c0,48.83-0.03,97.67,0.08,146.5c0.01,2.98-0.6,3.58-3.58,3.58c-97.67-0.1-195.33-0.1-293,0
			c-2.98,0-3.58-0.6-3.58-3.58c0.1-97.67,0.1-195.33,0-293c0-2.98,0.6-3.58,3.58-3.58c97.67,0.1,195.33,0.1,293,0
			c2.98,0,3.59,0.6,3.58,3.58C448.97,324.22,449,373.06,449,421.89z M301.86,550.84c4.66,1.99,6.23-2.27,7.95-5.48
			c1.69-3.15,0.89-5.77-3.08-7.03c-0.86-0.27-1.29-2.51-1.52-3.91c-0.22-1.35,0.94-1.59,2.01-1.37c5.11,1.05,8.03-2.32,10.12-5.85
			c14.42-24.38,36.44-41.96,55.79-61.8c13.57-13.92,22.26-28.9,19.63-48.37c-1.18-8.75-4.49-16.48,4.09-23.7
			c6.37-5.36,9.68-14.16,17.34-18.12c2.96-1.53,5.16-2,4.92-5.79c-0.24-3.72-2.21-6.02-5.59-6.52c-3.17-0.47-5.48-1.97-7.59-4.08
			c-7.98-7.98-14.49-17.11-20.57-26.55c-2.74-4.26-5.55-6.08-9.79-1.83c-9.09,9.11-20.24,16.23-26.67,27.95
			c-0.75,1.37-3.34,2.35-5.12,2.43c-17.01,0.78-26.37,13.34-36.69,24.08c-1.88,1.95-3.22,5.23-5.84,4.58
			c-2.61-0.65-1.48-4.43-2.3-6.73c-3.56-9.97-0.74-21.77-10.01-30.32c-3.06-2.82-7.03-5.82-8.43-10.81
			c-3.48-12.33-4.49-24.54-1.09-37.03c0.78-2.86,1.77-6.41-2.69-7.53c-13.32-3.35-26.72-6.4-39.97-9.98
			c-13.78-3.72-19.58,0.47-23.19,14.38c-2.52,9.7,2.16,18.71,0.58,27.68c-1.31,7.45,5.89,14.98-1.81,22.37
			c-9.97,9.58-13.61,22.25-13.49,36c0.12,13-0.99,26.14,0.59,38.95c1.14,9.21,0.63,18.42,1.99,27.56c2.05,13.77,3.76,27.6,5.62,41.4
			c1.52,11.29,0.04,22.76,2.74,34.04c1.58,6.58,3.37,13.4,0.58,20.54c-1.01,2.59,1.81,7.67,4.65,7.04
			c9.52-2.1,19.11,1.09,28.42-1.11C262.49,551.43,282.08,553.62,301.86,550.84z"/>
		<path class="st1" d="M301.86,550.84c-19.79,2.78-39.38,0.59-58.43,5.1c-9.3,2.2-18.9-0.99-28.42,1.11
			c-2.84,0.63-5.66-4.46-4.65-7.04c2.79-7.14,0.99-13.96-0.58-20.54c-2.7-11.29-1.22-22.76-2.74-34.04
			c-1.86-13.8-3.56-27.63-5.62-41.4c-1.36-9.14-0.86-18.35-1.99-27.56c-1.58-12.81-0.47-25.95-0.59-38.95
			c-0.12-13.75,3.52-26.42,13.49-36c7.7-7.4,0.5-14.93,1.81-22.37c1.57-8.97-3.1-17.98-0.58-27.68c3.61-13.91,9.41-18.1,23.19-14.38
			c13.26,3.58,26.65,6.62,39.97,9.98c4.46,1.12,3.47,4.67,2.69,7.53c-3.4,12.49-2.39,24.7,1.09,37.03
			c1.41,4.99,5.38,7.99,8.43,10.81c9.27,8.55,6.45,20.36,10.01,30.32c0.82,2.3-0.3,6.08,2.3,6.73c2.61,0.65,3.96-2.62,5.84-4.58
			c10.32-10.74,19.68-23.3,36.69-24.08c1.78-0.08,4.37-1.06,5.12-2.43c6.43-11.72,17.58-18.84,26.67-27.95
			c4.24-4.25,7.05-2.43,9.79,1.83c6.07,9.44,12.59,18.57,20.57,26.55c2.11,2.11,4.42,3.61,7.59,4.08c3.38,0.5,5.35,2.8,5.59,6.52
			c0.24,3.79-1.96,4.26-4.92,5.79c-7.66,3.96-10.97,12.76-17.34,18.12c-8.58,7.22-5.27,14.95-4.09,23.7
			c2.63,19.47-6.06,34.44-19.63,48.37c-19.35,19.85-41.37,37.42-55.79,61.8c-2.09,3.53-5.01,6.9-10.12,5.85
			c-1.07-0.22-2.23,0.02-2.01,1.37c0.23,1.4,0.67,3.64,1.52,3.91c3.97,1.26,4.77,3.88,3.08,7.03
			C308.09,548.56,306.52,552.83,301.86,550.84z M252.13,345.98c-22.44-2.83-34.57,11.46-38.76,22.05
			c-5.47,13.83-5.06,28.65-5.36,43.27c-0.56,27.34,4.69,54.06,8.34,80.97c1.95,14.4,2.42,29,3.79,43.48
			c0.27,2.84-0.68,7.66,3.13,7.84c11.02,0.54,22.15,0.64,33.13-0.28c10.41-0.88,20.45-4.57,31.3-1.99c4.04,0.96,9.4-0.29,8.28-7.53
			c-1.45-9.39-1.43-18.9-1.66-28.41c-0.44-18.21-2.19-36.39-3.33-54.59c-1.55-24.82,1.38-49.73-4.34-74.54
			C282.38,357.71,271.13,346.04,252.13,345.98z M302.69,504.78c0.46,5.59,0.91,11.18,1.4,16.77c0.07,0.76,0.4,1.49,0.61,2.23
			c0.83-0.38,1.69-0.71,2.49-1.14c9.74-5.2,14.31-15.31,21.44-22.97c16.24-17.44,31.49-35.79,47.23-53.7
			c7.5-8.53,9.37-31.77,1.29-39.03c-6.36-5.72-10.05-12.92-15.21-19.22c-7.2-8.79-17.31-13.05-27.59-14.09
			c-8.85-0.89-30.9,21.75-32.21,31.05c-1.27,8.98-1.92,18.13-1.91,27.21C300.27,456.21,300.66,480.52,302.69,504.78z M376.56,388.37
			c0.61,1.09,1.05,2.74,1.67,2.81c3.09,0.35,7.46,3.58,9.09,0.25c4.01-8.19,13.14-13.31,13.8-23.36c0.01-0.09-0.27-0.18-0.37-0.31
			c-5.76-6.92-8.16-1.3-11.17,2.87C385.35,376.49,378.95,380.79,376.56,388.37z M266.85,312.94c-0.27-4.68,2.1-9.88-4.64-9.78
			c-5.44,0.08-3.79,5.38-4.23,7.96c-1.19,7.03-2.14,14.28,1.68,21.2c1.15,2.09,0.42,4.5,4.42,3.96c3.92-0.53,4.05-2.62,3.83-5.33
			C267.38,324.59,265.86,318.31,266.85,312.94z M225.23,313.25c-0.19,0.01-0.38,0.02-0.58,0.02c0.45,6.74,0.88,13.47,1.35,20.21
			c0.09,1.23-0.4,3.12,1.53,3.01c1.04-0.06,2.77-1.3,2.9-2.19c1.53-11.06,4.91-21.98,2.8-33.34c-0.5-2.7-2.54-2.83-4.85-3.1
			c-3.09-0.35-2.88,2.25-3,3.48C224.99,305.28,225.23,309.27,225.23,313.25z M366.03,375.15c0.57,1.62-1.36,4.31,1.12,5.21
			c2.68,0.97,4.01-1.73,5.35-3.46c5.24-6.77,10.38-13.64,15.48-20.52c0.52-0.7,0.57-1.75,0.84-2.64c-1.2-0.28-2.43-0.9-3.59-0.79
			C377.78,353.65,365.86,367.43,366.03,375.15z M248.89,315.81c-0.03,0-0.06,0-0.09,0c0-3.81,0.21-7.65-0.13-11.43
			c-0.1-1.13-1.69-2.15-2.7-3.12c-0.08-0.07-1.37,0.68-1.34,1c0.69,10.07-6.13,20.01-0.45,30.2c0.9,1.61,2.08,1.6,3.27,1.31
			c0.61-0.15,1.36-1.33,1.37-2.06C248.95,326.41,248.89,321.11,248.89,315.81z M373.07,348.01c-0.38-0.05-1.2-0.41-1.53-0.15
			c-5.73,4.58-11.03,9.6-15.31,15.59c-0.55,0.77-0.33,1.57,0.98,1.4C358.85,364.64,373.18,349.95,373.07,348.01z"/>
		<path class="st0" d="M252.13,345.98c19,0.06,30.24,11.73,34.52,30.26c5.73,24.81,2.8,49.72,4.34,74.54
			c1.14,18.2,2.89,36.38,3.33,54.59c0.23,9.52,0.21,19.02,1.66,28.41c1.12,7.24-4.25,8.5-8.28,7.53
			c-10.85-2.58-20.89,1.11-31.3,1.99c-10.98,0.93-22.11,0.82-33.13,0.28c-3.81-0.19-2.86-5.01-3.13-7.84
			c-1.37-14.49-1.84-29.08-3.79-43.48c-3.65-26.91-8.89-53.63-8.34-80.97c0.3-14.62-0.11-29.44,5.36-43.27
			C217.56,357.44,229.7,343.14,252.13,345.98z"/>
		<path class="st0" d="M302.69,504.78c-2.03-24.26-2.42-48.57-2.46-72.87c-0.01-9.07,0.64-18.22,1.91-27.21
			c1.31-9.31,23.37-31.94,32.21-31.05c10.29,1.03,20.39,5.3,27.59,14.09c5.16,6.3,8.85,13.51,15.21,19.22
			c8.08,7.25,6.21,30.49-1.29,39.03c-15.74,17.9-30.99,36.26-47.23,53.7c-7.13,7.66-11.7,17.77-21.44,22.97
			c-0.8,0.43-1.66,0.76-2.49,1.14c-0.21-0.74-0.54-1.48-0.61-2.23C303.6,515.96,303.15,510.37,302.69,504.78z"/>
		<path class="st0" d="M376.56,388.37c2.39-7.58,8.8-11.88,13.02-17.74c3.01-4.17,5.41-9.79,11.17-2.87
			c0.1,0.13,0.38,0.22,0.37,0.31c-0.66,10.05-9.79,15.17-13.8,23.36c-1.63,3.33-6,0.11-9.09-0.25
			C377.61,391.11,377.17,389.46,376.56,388.37z"/>
		<path class="st0" d="M266.85,312.94c-0.99,5.37,0.54,11.66,1.06,18.01c0.22,2.71,0.1,4.8-3.83,5.33
			c-3.99,0.54-3.26-1.87-4.42-3.96c-3.82-6.92-2.87-14.18-1.68-21.2c0.44-2.58-1.21-7.88,4.23-7.96
			C268.95,303.05,266.57,308.25,266.85,312.94z"/>
		<path class="st0" d="M225.23,313.25c0-3.97-0.24-7.97,0.14-11.9c0.12-1.22-0.08-3.83,3-3.48c2.32,0.26,4.35,0.39,4.85,3.1
			c2.11,11.35-1.27,22.28-2.8,33.34c-0.12,0.89-1.86,2.13-2.9,2.19c-1.93,0.11-1.45-1.78-1.53-3.01c-0.47-6.74-0.9-13.47-1.35-20.21
			C224.85,313.26,225.04,313.25,225.23,313.25z"/>
		<path class="st0" d="M366.03,375.15c-0.17-7.72,11.75-21.5,19.2-22.2c1.16-0.11,2.39,0.51,3.59,0.79
			c-0.27,0.89-0.32,1.94-0.84,2.64c-5.1,6.88-10.23,13.74-15.48,20.52c-1.34,1.73-2.67,4.43-5.35,3.46
			C364.67,379.46,366.6,376.77,366.03,375.15z"/>
		<path class="st0" d="M248.89,315.81c0,5.3,0.05,10.6-0.06,15.9c-0.02,0.73-0.76,1.91-1.37,2.06c-1.19,0.29-2.37,0.3-3.27-1.31
			c-5.68-10.18,1.14-20.13,0.45-30.2c-0.02-0.32,1.27-1.07,1.34-1c1,0.97,2.6,1.99,2.7,3.12c0.33,3.78,0.13,7.62,0.13,11.43
			C248.84,315.81,248.86,315.81,248.89,315.81z"/>
		<path class="st0" d="M373.07,348.01c0.11,1.94-14.21,16.63-15.86,16.84c-1.31,0.17-1.53-0.63-0.98-1.4
			c4.28-5.99,9.58-11.01,15.31-15.59C371.86,347.6,372.69,347.96,373.07,348.01z"/>
	</g>
</g>
</svg>
