<?xml version="1.0" encoding="utf-8"?>
<!-- Generator: Adobe Illustrator 23.0.0, SVG Export Plug-In . SVG Version: 6.00 Build 0)  -->
<svg version="1.1" id="Layer_1" xmlns="http://www.w3.org/2000/svg" xmlns:xlink="http://www.w3.org/1999/xlink" x="0px" y="0px"
	 viewBox="0 0 595.3 841.9" style="enable-background:new 0 0 595.3 841.9;" xml:space="preserve">
<style type="text/css">
	.st0{fill:#070707;}
</style>
<g>
	<g>
		<path class="st0" d="M301.9,550.8c-19.8,2.8-39.4,0.6-58.4,5.1c-9.3,2.2-18.9-1-28.4,1.1c-2.8,0.6-5.7-4.5-4.6-7
			c2.8-7.1,1-14-0.6-20.5c-2.7-11.3-1.2-22.8-2.7-34c-1.9-13.8-3.6-27.6-5.6-41.4c-1.4-9.1-0.9-18.4-2-27.6c-1.6-12.8-0.5-26-0.6-39
			c-0.1-13.8,3.5-26.4,13.5-36c7.7-7.4,0.5-14.9,1.8-22.4c1.6-9-3.1-18-0.6-27.7c3.6-13.9,9.4-18.1,23.2-14.4
			c13.3,3.6,26.6,6.6,40,10c4.5,1.1,3.5,4.7,2.7,7.5c-3.4,12.5-2.4,24.7,1.1,37c1.4,5,5.4,8,8.4,10.8c9.3,8.5,6.5,20.4,10,30.3
			c0.8,2.3-0.3,6.1,2.3,6.7c2.6,0.6,4-2.6,5.8-4.6c10.3-10.7,19.7-23.3,36.7-24.1c1.8-0.1,4.4-1.1,5.1-2.4
			c6.4-11.7,17.6-18.8,26.7-28c4.2-4.2,7-2.4,9.8,1.8c6.1,9.4,12.6,18.6,20.6,26.5c2.1,2.1,4.4,3.6,7.6,4.1c3.4,0.5,5.4,2.8,5.6,6.5
			c0.2,3.8-2,4.3-4.9,5.8c-7.7,4-11,12.8-17.3,18.1c-8.6,7.2-5.3,15-4.1,23.7c2.6,19.5-6.1,34.4-19.6,48.4
			c-19.4,19.9-41.4,37.4-55.8,61.8c-2.1,3.5-5,6.9-10.1,5.8c-1.1-0.2-2.2,0-2,1.4c0.2,1.4,0.7,3.6,1.5,3.9c4,1.3,4.8,3.9,3.1,7
			C308.1,548.6,306.5,552.8,301.9,550.8z M252.1,346c-22.4-2.8-34.6,11.5-38.8,22c-5.5,13.8-5.1,28.6-5.4,43.3
			c-0.6,27.3,4.7,54.1,8.3,81c1.9,14.4,2.4,29,3.8,43.5c0.3,2.8-0.7,7.7,3.1,7.8c11,0.5,22.1,0.6,33.1-0.3c10.4-0.9,20.5-4.6,31.3-2
			c4,1,9.4-0.3,8.3-7.5c-1.5-9.4-1.4-18.9-1.7-28.4c-0.4-18.2-2.2-36.4-3.3-54.6c-1.5-24.8,1.4-49.7-4.3-74.5
			C282.4,357.7,271.1,346,252.1,346z M302.7,504.8c0.5,5.6,0.9,11.2,1.4,16.8c0.1,0.8,0.4,1.5,0.6,2.2c0.8-0.4,1.7-0.7,2.5-1.1
			c9.7-5.2,14.3-15.3,21.4-23c16.2-17.4,31.5-35.8,47.2-53.7c7.5-8.5,9.4-31.8,1.3-39c-6.4-5.7-10-12.9-15.2-19.2
			c-7.2-8.8-17.3-13-27.6-14.1c-8.9-0.9-30.9,21.8-32.2,31c-1.3,9-1.9,18.1-1.9,27.2C300.3,456.2,300.7,480.5,302.7,504.8z
			 M376.6,388.4c0.6,1.1,1,2.7,1.7,2.8c3.1,0.4,7.5,3.6,9.1,0.2c4-8.2,13.1-13.3,13.8-23.4c0-0.1-0.3-0.2-0.4-0.3
			c-5.8-6.9-8.2-1.3-11.2,2.9C385.4,376.5,379,380.8,376.6,388.4z M266.9,312.9c-0.3-4.7,2.1-9.9-4.6-9.8c-5.4,0.1-3.8,5.4-4.2,8
			c-1.2,7-2.1,14.3,1.7,21.2c1.1,2.1,0.4,4.5,4.4,4c3.9-0.5,4-2.6,3.8-5.3C267.4,324.6,265.9,318.3,266.9,312.9z M225.2,313.2
			c-0.2,0-0.4,0-0.6,0c0.4,6.7,0.9,13.5,1.4,20.2c0.1,1.2-0.4,3.1,1.5,3c1-0.1,2.8-1.3,2.9-2.2c1.5-11.1,4.9-22,2.8-33.3
			c-0.5-2.7-2.5-2.8-4.9-3.1c-3.1-0.4-2.9,2.2-3,3.5C225,305.3,225.2,309.3,225.2,313.2z M366,375.1c0.6,1.6-1.4,4.3,1.1,5.2
			c2.7,1,4-1.7,5.4-3.5c5.2-6.8,10.4-13.6,15.5-20.5c0.5-0.7,0.6-1.8,0.8-2.6c-1.2-0.3-2.4-0.9-3.6-0.8
			C377.8,353.6,365.9,367.4,366,375.1z M248.9,315.8C248.9,315.8,248.8,315.8,248.9,315.8c-0.1-3.8,0.1-7.6-0.2-11.4
			c-0.1-1.1-1.7-2.1-2.7-3.1c-0.1-0.1-1.4,0.7-1.3,1c0.7,10.1-6.1,20-0.4,30.2c0.9,1.6,2.1,1.6,3.3,1.3c0.6-0.1,1.4-1.3,1.4-2.1
			C248.9,326.4,248.9,321.1,248.9,315.8z M373.1,348c-0.4,0-1.2-0.4-1.5-0.1c-5.7,4.6-11,9.6-15.3,15.6c-0.5,0.8-0.3,1.6,1,1.4
			C358.9,364.6,373.2,350,373.1,348z"/>
	</g>
</g>
</svg>
