<?xml version="1.0" encoding="utf-8"?>
<!-- Generator: Adobe Illustrator 23.0.0, SVG Export Plug-In . SVG Version: 6.00 Build 0)  -->
<svg version="1.1" id="Layer_1" xmlns="http://www.w3.org/2000/svg" xmlns:xlink="http://www.w3.org/1999/xlink" x="0px" y="0px"
	 viewBox="0 0 595.3 841.9" style="enable-background:new 0 0 595.3 841.9;" xml:space="preserve">
<g>
	<g>
		<path d="M243.1,292.8c-6.3,16.5,6.1,26,13.9,35.7c11.6,14.5,26.4,26.3,39.2,39.9c7.7,8.1,12,3.2,16.4-2.7
			c7.6-10.1,14.4-20.8,22.4-30.5c12.7-15.5,26-30.5,39.5-45.3c1.3-1.4,6.1-1.2,8.1,0c3.8,2.4,6.9,6,10.1,9.4
			c0.9,0.9,0.4,3.6,1.2,3.9c13.9,5.9,6,11.8,0.5,18.2c-9.2,10.9-18.7,21.6-27,33.2c-9.7,13.7-18.1,28.3-27.4,42.3
			c-5.4,8.1-5.7,14.1,1.5,22.2c10,11.3,17.7,24.8,26.6,37.2c7.6,10.5,15.6,20.8,23.3,31.2c5.5,7.5,10.8,15.1,16.2,22.6
			c1.1,1.5,2.4,3.3,4,4.2c9.2,5,9.8,9,1.6,15.1c-9.8,7.3-19.9,14.3-29.8,21.3c-4.5,3.2-7.3,4-11.2-2.4
			c-19.1-31.9-38.8-63.4-58.7-94.8c-9.7-15.4-11.1-16-23.7-3.5c-11.4,11.2-20.6,24.5-30.8,36.9c-8.6,10.5-17.9,20.6-25.7,31.7
			c-3.5,4.9-3.7,12-6.1,17.9c-1.8,4.5-4.5,8.6-6.8,12.9c-2.9-2.4-5.9-4.8-8.8-7.3c-6.7-5.9-12.8-12.8-20.3-17.4
			c-8.5-5.3-8.2-10,1.6-21c16.7-18.7,32.5-38.2,49.2-57c11.8-13.3,24.3-25.8,36.3-38.9c0.9-1,1.2-3.9,0.5-5
			c-16.1-21.6-32.1-43.4-48.9-64.4c-5.7-7.1-14.8-11.4-20.6-18.4c-5.8-6.9-0.7-14.5,8.1-17.6c7.6-2.7,14.2-8.4,21.3-12.7
			c0.7-0.4,2.2-0.9,2.4-0.7C241.9,290.2,242.5,291.7,243.1,292.8z M384.5,519.8c0.8,0.5-1.1-0.7-3-1.8c1.5-1.5,3.4-2.8,4.4-4.6
			c1.3-2.2,3.3-5.8,2.5-7.1c-13-19.6-25.9-39.3-39.9-58.2c-7.7-10.5-17.4-19.6-25.9-29.5c-7.9-9.2-14.9-19.1-23.2-27.8
			c-10.8-11.3-22.3-21.9-33.7-32.7c-1.4-1.4-3.6-2-5.4-2.9c0.8,1.9,1.3,4,2.5,5.6c12.2,16.1,24.8,31.9,36.5,48.2
			c7.5,10.4,13.5,21.7,20.6,32.4c4.1,6.1,9.5,11.4,13.5,17.6c14.4,22.4,28.6,44.9,42.4,67.7c4.7,7.8,8.2,10.7,14.2,1.4
			c2-3.1,5.3-5.5,8-8.2C394.6,519.8,391,519.8,384.5,519.8z M209.8,519.1c4.2-1.6,9.4-2.1,11.8-4.9c14.2-16.7,27.7-34,41.6-51
			c9.1-11.1,18.6-21.8,27.4-33c1.8-2.3,1.2-6.4,1.7-9.7c-2.9,0.1-6.9-0.9-8.6,0.6c-8.1,7.4-15.8,15.1-23.1,23.3
			c-9.5,10.6-18.5,21.8-27.8,32.7c-8.5,9.9-17.4,19.5-25.7,29.7c-1.8,2.2-1.7,6.2-1.7,9.4C205.3,517,208,518,209.8,519.1z
			 M324.7,395.5c1.5-1.4,2.5-2,3.1-2.9c4.9-7.5,9.7-15.2,14.6-22.7c12-18.2,24.2-36.4,35.9-54.8c1-1.6-1.1-5.2-1.8-7.8
			c-1.9,0.6-4.6,0.6-5.6,1.9c-16,20.5-31.9,41-47.4,61.8c-2.3,3.1-2.4,7.8-3.7,11.7c-0.6,2-2.8,4.7-2.1,5.9
			C319.3,391.3,322.1,393.2,324.7,395.5z"/>
	</g>
</g>
</svg>
