<?xml version="1.0" encoding="utf-8"?>
<!-- Generator: Adobe Illustrator 23.0.0, SVG Export Plug-In . SVG Version: 6.00 Build 0)  -->
<svg version="1.1" id="Layer_1" xmlns="http://www.w3.org/2000/svg" xmlns:xlink="http://www.w3.org/1999/xlink" x="0px" y="0px"
	 viewBox="0 0 595.28 841.89" style="enable-background:new 0 0 595.28 841.89;" xml:space="preserve">
<style type="text/css">
	.st0{fill:#FFFFFF;}
</style>
<g>
	<g>
		<path class="st0" d="M449,421.89c0,48.83,0.02,97.67-0.15,146.5c0,1.17-2.19,3.35-3.35,3.36c-97.67,0.16-195.33,0.16-293,0
			c-1.17,0-3.35-2.19-3.36-3.36c-0.16-97.67-0.16-195.33,0-293c0-1.17,2.19-3.35,3.35-3.36c97.67-0.16,195.33-0.16,293,0
			c1.17,0,3.35,2.18,3.35,3.36C449.02,324.22,449,373.06,449,421.89z M243.06,292.81c-0.58-1.11-1.18-2.55-2.1-3.75
			c-0.19-0.24-1.66,0.26-2.38,0.69c-7.07,4.3-13.64,9.97-21.27,12.66c-8.76,3.09-13.95,10.73-8.11,17.65
			c5.88,6.96,14.95,11.29,20.63,18.36c16.87,21.01,32.8,42.77,48.92,64.37c0.76,1.02,0.48,3.94-0.45,4.95
			c-12,13.04-24.52,25.61-36.28,38.87c-16.64,18.77-32.51,38.22-49.19,56.97c-9.77,10.99-10.09,15.72-1.62,20.98
			c7.49,4.65,13.56,11.56,20.3,17.43c2.87,2.5,5.84,4.89,8.76,7.34c2.3-4.29,5.02-8.42,6.8-12.91c2.32-5.86,2.6-12.94,6.06-17.86
			c7.8-11.08,17.03-21.16,25.67-31.65c10.19-12.37,19.47-25.66,30.82-36.86c12.62-12.46,14-11.84,23.74,3.53
			c19.89,31.4,39.63,62.9,58.71,94.8c3.84,6.42,6.64,5.58,11.17,2.37c9.98-7.07,20.04-14.02,29.84-21.33
			c8.22-6.12,7.6-10.17-1.57-15.11c-1.61-0.87-2.84-2.64-3.97-4.19c-5.46-7.5-10.75-15.13-16.25-22.59
			c-7.71-10.46-15.72-20.7-23.32-31.24c-8.92-12.37-16.55-25.83-26.6-37.16c-7.2-8.12-6.96-14.1-1.53-22.21
			c9.35-13.95,17.68-28.61,27.42-42.28c8.26-11.6,17.74-22.35,26.99-33.22c5.49-6.45,13.47-12.38-0.46-18.23
			c-0.8-0.34-0.38-2.98-1.24-3.89c-3.15-3.35-6.25-6.97-10.07-9.36c-2.01-1.26-6.81-1.42-8.08-0.01
			c-13.47,14.84-26.78,29.85-39.51,45.33c-8,9.72-14.85,20.39-22.43,30.47c-4.44,5.91-8.74,10.88-16.4,2.73
			c-12.77-13.59-27.58-25.43-39.17-39.9C249.16,318.83,236.76,309.28,243.06,292.81z"/>
		<path d="M243.06,292.81c-6.3,16.47,6.09,26.03,13.85,35.71c11.59,14.47,26.4,26.32,39.17,39.9c7.66,8.15,11.96,3.18,16.4-2.73
			c7.58-10.08,14.43-20.75,22.43-30.47c12.74-15.47,26.04-30.48,39.51-45.33c1.27-1.4,6.07-1.25,8.08,0.01
			c3.82,2.4,6.92,6.02,10.07,9.36c0.85,0.91,0.44,3.56,1.24,3.89c13.93,5.85,5.95,11.78,0.46,18.23
			c-9.25,10.87-18.73,21.62-26.99,33.22c-9.73,13.67-18.07,28.33-27.42,42.28c-5.43,8.11-5.67,14.09,1.53,22.21
			c10.05,11.33,17.69,24.79,26.6,37.16c7.6,10.54,15.6,20.78,23.32,31.24c5.51,7.47,10.79,15.09,16.25,22.59
			c1.13,1.55,2.35,3.32,3.97,4.19c9.17,4.95,9.79,8.99,1.57,15.11c-9.8,7.3-19.87,14.26-29.84,21.33
			c-4.53,3.21-7.33,4.04-11.17-2.37c-19.08-31.89-38.82-63.4-58.71-94.8c-9.74-15.38-11.11-15.99-23.74-3.53
			c-11.35,11.2-20.63,24.49-30.82,36.86c-8.64,10.49-17.87,20.57-25.67,31.65c-3.47,4.93-3.74,12-6.06,17.86
			c-1.78,4.5-4.5,8.62-6.8,12.91c-2.92-2.44-5.89-4.84-8.76-7.34c-6.74-5.87-12.81-12.78-20.3-17.43
			c-8.47-5.26-8.16-9.99,1.62-20.98c16.67-18.74,32.54-38.2,49.19-56.97c11.75-13.26,24.28-25.83,36.28-38.87
			c0.92-1,1.21-3.92,0.45-4.95c-16.12-21.6-32.05-43.37-48.92-64.37c-5.68-7.08-14.75-11.4-20.63-18.36
			c-5.84-6.91-0.66-14.55,8.11-17.65c7.63-2.69,14.2-8.36,21.27-12.66c0.71-0.43,2.19-0.94,2.38-0.69
			C241.88,290.25,242.48,291.7,243.06,292.81z M384.51,519.81c0.75,0.46-1.1-0.67-2.95-1.8c1.51-1.53,3.4-2.84,4.43-4.64
			c1.27-2.21,3.34-5.83,2.48-7.13c-12.98-19.61-25.94-39.26-39.88-58.19c-7.73-10.51-17.39-19.58-25.93-29.51
			c-7.86-9.16-14.89-19.08-23.18-27.83c-10.75-11.34-22.34-21.9-33.69-32.67c-1.44-1.37-3.61-1.97-5.44-2.92
			c0.83,1.87,1.34,3.99,2.54,5.58c12.16,16.1,24.77,31.87,36.55,48.25c7.45,10.36,13.5,21.72,20.6,32.35
			c4.09,6.13,9.52,11.37,13.5,17.56c14.37,22.41,28.62,44.89,42.37,67.69c4.71,7.81,8.2,10.71,14.19,1.43
			c2.03-3.14,5.31-5.47,8.01-8.17C394.58,519.81,391.03,519.81,384.51,519.81z M209.8,519.09c4.16-1.64,9.35-2.08,11.75-4.9
			c14.22-16.69,27.73-34,41.62-50.97c9.06-11.07,18.61-21.75,27.41-33.02c1.78-2.28,1.18-6.41,1.67-9.68
			c-2.92,0.13-6.93-0.92-8.59,0.6c-8.08,7.36-15.84,15.14-23.14,23.29c-9.54,10.64-18.48,21.83-27.81,32.67
			c-8.53,9.91-17.45,19.5-25.67,29.66c-1.79,2.21-1.71,6.22-1.71,9.4C205.33,517.05,208.04,517.98,209.8,519.09z M324.68,395.55
			c1.51-1.36,2.53-1.96,3.11-2.85c4.91-7.54,9.67-15.19,14.61-22.71c11.99-18.24,24.19-36.36,35.88-54.79
			c1.01-1.59-1.11-5.17-1.77-7.82c-1.9,0.61-4.57,0.61-5.58,1.91c-15.98,20.46-31.9,40.97-47.4,61.79
			c-2.31,3.1-2.41,7.81-3.66,11.74c-0.65,2.05-2.81,4.73-2.14,5.86C319.29,391.32,322.15,393.19,324.68,395.55z"/>
		<path class="st0" d="M384.51,519.81c6.52,0,10.06,0,13.61,0c-2.71,2.7-5.99,5.03-8.01,8.17c-5.98,9.28-9.48,6.38-14.19-1.43
			c-13.75-22.79-28-45.28-42.37-67.69c-3.97-6.19-9.4-11.44-13.5-17.56c-7.1-10.63-13.14-21.99-20.6-32.35
			c-11.78-16.37-24.39-32.14-36.55-48.25c-1.2-1.59-1.71-3.71-2.54-5.58c1.83,0.95,4,1.56,5.44,2.92
			c11.35,10.77,22.94,21.32,33.69,32.67c8.29,8.74,15.31,18.67,23.18,27.83c8.53,9.94,18.2,19.01,25.93,29.51
			c13.93,18.93,26.89,38.59,39.88,58.19c0.86,1.3-1.21,4.92-2.48,7.13c-1.04,1.8-2.92,3.11-4.43,4.64
			C383.41,519.14,385.26,520.26,384.51,519.81z"/>
		<path class="st0" d="M209.8,519.09c-1.76-1.11-4.47-2.04-4.47-2.97c0-3.18-0.07-7.19,1.71-9.4c8.22-10.15,17.14-19.74,25.67-29.66
			c9.33-10.84,18.26-22.02,27.81-32.67c7.3-8.14,15.06-15.92,23.14-23.29c1.66-1.52,5.67-0.47,8.59-0.6
			c-0.5,3.28,0.1,7.41-1.67,9.68c-8.8,11.27-18.34,21.95-27.41,33.02c-13.9,16.97-27.4,34.28-41.62,50.97
			C219.15,517,213.95,517.45,209.8,519.09z"/>
		<path class="st0" d="M324.68,395.55c-2.54-2.37-5.39-4.24-6.96-6.88c-0.67-1.12,1.49-3.81,2.14-5.86
			c1.25-3.93,1.35-8.64,3.66-11.74c15.51-20.82,31.42-41.33,47.4-61.79c1.01-1.3,3.68-1.31,5.58-1.91c0.66,2.65,2.78,6.23,1.77,7.82
			c-11.69,18.43-23.89,36.55-35.88,54.79c-4.94,7.52-9.7,15.16-14.61,22.71C327.21,393.59,326.19,394.2,324.68,395.55z"/>
	</g>
</g>
</svg>
