<?xml version="1.0" encoding="utf-8"?>
<!-- Generator: Adobe Illustrator 23.0.0, SVG Export Plug-In . SVG Version: 6.00 Build 0)  -->
<svg version="1.1" id="Layer_1" xmlns="http://www.w3.org/2000/svg" xmlns:xlink="http://www.w3.org/1999/xlink" x="0px" y="0px"
	 viewBox="0 0 595.3 841.9" style="enable-background:new 0 0 595.3 841.9;" xml:space="preserve">
<g>
	<g>
		<path d="M280.1,309.1c32.9,3.6,58.2,4.9,82.8,9.4c20,3.7,39.5,10.5,58.6,17.7c3.3,1.2,5.9,11.5,4.6,16.6
			c-7.6,29.8-17.4,59-24.6,88.8c-4.9,20.2-9.3,41.1-8.9,61.6c0.4,16.2-1.6,25.2-18.9,26.1c-5.4,0.3-10.9,0.8-16.3,1.4
			c-23.3,2.7-46.5,6.5-69.9,8c-17.9,1.1-36.9,3.4-51.8-11.2c-0.6-0.5-3.2,0.2-4.1,1.1c-7.4,7.4-14.3,3.5-17.1-3.3
			c-5.8-13.6-10.6-27.9-13.8-42.3c-7.8-35.3-14.4-70.8-21.9-106.2c-1-4.8-3.3-10.2-6.7-13.6c-10.5-10.6,1.1-11.4,6.2-14.5
			c10-6.1,19.9-13.2,30.8-17.1C234.6,322.6,260.6,315.2,280.1,309.1z M269.1,403.9c-1.9-5,4.4-19.1-11.8-22.4
			c-3.7-0.8-7.6-2.6-11.1-1.9c-3.1,0.5-8.3,4.1-8.1,5.8c1.8,14.5,4,29.1,7.2,43.4c2.9,13.3,7,26.4,10.9,39.4
			c3.4,11.5,7.4,22.9,10.9,34.4c1,3.3,2.2,7.3,1.1,10.1c-1.1,2.7-4.8,4.6-7.8,6.1c-0.6,0.3-3.9-2.7-4.4-4.6
			c-4.6-17.2-9.2-34.5-13.3-51.9c-6.8-29-13.2-58.1-20.1-87.1c-0.4-1.6-3-3.2-4.9-3.7c-5.4-1.3-11-2.8-16.5-2.8
			c-4.2,0-12.3,2.8-12.2,3.3c2.6,16.5,5.5,32.9,9.2,49.1c5.7,25,11.6,50,18,74.9c1.9,7.5,2.7,17.9,15.7,14.4c1.5-0.4,3.8,2,5.8,3.2
			c7.1,4.2,13.8,11,21.3,12c14,1.9,28.5,0.8,42.7,0.1c4.4-0.2,18.4,3.7,7.4-9.7c-0.8-1-0.5-2.9-0.5-4.4c0.4-36.7,0.8-73.3,1.4-110
			c0.3-16.8-2.6-20.2-19-16.9c-4,0.8-9.8,7.2-9.8,11c-0.1,14.7,1.2,29.4,3.2,44c2.5,18.4,6.8,36.7,9.1,55.1c0.4,3.4-5,7.6-8.2,11
			c-0.3,0.3-5-1.9-5.6-3.6c-1.3-3.8-1.4-8-1.8-12C275,462.9,272.3,435.7,269.1,403.9z M372.3,464.7c0.8,0.2,1.6,0.4,2.5,0.5
			c-2.1,10.3-3.8,20.8-6.5,31c-0.7,2.7-3.9,5.2-6.6,6.6c-1.1,0.5-5.3-2-5.6-3.5c-0.5-3.3,0.4-6.9,1.2-10.2c0.6-2.1,2.9-3.8,3.3-5.9
			c6.3-34.8,12.4-69.7,18.3-104.6c0.2-1.2-2.7-2.9-4.1-4.4c-4.2,5.6-11,10.7-12.2,16.9c-5.8,28.2-10.7,56.7-14.8,85.2
			c-1.8,12.5,0.9,25.6-1.7,37.8c-1.9,9.2,2.1,7.1,6.8,6.7c4.6-0.5,9.7-0.2,13.6-2.2c4.8-2.4,11.4-6.1,12.3-10.4
			c3.8-16.7,5.5-33.8,8.3-50.7c4.8-28.4,9.9-56.8,14.7-85.2c0.3-1.6-0.6-3.5-0.9-5.2c-1.7,1.1-4.4,1.9-5,3.5
			c-2.6,7.2-5,14.5-6.8,21.9C383.5,416.5,377.9,440.6,372.3,464.7z M328.2,525.7c1.4-3.5,3.4-6.8,3.9-10.4c2.7-17.8,5-35.7,7.4-53.6
			c3.4-25.5,6.9-50.9,10.1-76.4c0.3-2.1-0.1-5.9-1.3-6.5c-9.9-5-27.3,6.2-27.5,17.2c-0.2,18-0.8,36-0.8,54c0,12.5-3.3,27,1.9,37
			c6.5,12.4,2.3,20.4-2.1,30.1c-0.9,1.9-1.6,3.8-2.5,5.7C319.6,523.4,321.8,524,328.2,525.7z M373.6,356.9c5.5,1.2,7.8,2.5,9.3,1.9
			c8-3.3,15.8-7.1,23.7-10.8c-5.8-3-11.8-8.4-17.4-8C385,340.2,381.4,348,373.6,356.9z M302.1,364.2c0.4,0.7,1.9,3.6,3.5,6.5
			c1.4-0.8,3.8-1.5,4-2.5c2-9.4,3.8-18.8,5-28.2c0.2-1.9-2.1-4-3.3-6.1c-2.4,1.8-6.5,3.3-6.9,5.5C303,346.5,303,354,302.1,364.2z
			 M274.4,342c2-1.7,4.1-3.4,6.1-5.1c-3.1-0.6-6.5-2.3-9.2-1.5c-2.7,0.8-6.6,4.1-6.5,6.2c0.1,8.6,1,17.2,2.7,25.6
			c0.3,1.7,5.1,2.6,7.8,3.9c0.3-1.7,1-3.4,0.9-5C275.6,358.1,275,350,274.4,342z M322.1,362.4c0.5,0.8,1.5,4.2,3.1,4.6
			c3.1,0.7,6.6-0.2,9.9-0.8c0.3,0,0.4-2.3,0.3-3.5c-0.3-7-0.6-14-1.2-21c-0.2-3-1-6-1.5-9.1c-2,1.4-5.4,2.5-5.8,4.4
			C325,344.7,323.9,352.7,322.1,362.4z M238.2,349.4c-2.7-3.7-4.7-6.4-6.7-9.2c-4.7,3.7-9.4,7.4-14,11.2c4.7,3.3,9.5,6.6,14.2,10
			C233.6,357.8,235.6,354.2,238.2,349.4z M352.7,332.6c2,2.9,1.1,0.7,0.4,0.7c-1.8,0.1-4.9,1-5,2c-1.4,9.6-2.4,19.4-3.3,29.1
			c0,0.1,2.6,1,3.9,0.7c1.4-0.3,3.8-1.5,3.9-2.3C352.8,354.2,352.7,345.7,352.7,332.6z M282.8,347.4c0.9,0.4,1.7,0.9,2.6,1.3
			c0,3.8-0.4,7.7,0.2,11.5c0.3,1.7,2.6,3.1,4,4.6c0.6-0.8,1.8-1.5,1.9-2.4c0.7-4.5,1.7-9.1,1.6-13.7c-0.1-5.5-1.1-11-1.8-16.4
			C288.5,337.3,285.7,342.4,282.8,347.4z M248.6,333.5c-2.3,1.8-5.2,3.3-5,4.2c2.1,9.4,4.4,18.8,7.1,28.1c0.3,1.1,2.8,1.8,4.4,2.3
			c0.3,0.1,1.7-1.6,1.6-2.3c-1.1-9.2-2.3-18.5-3.9-27.7C252.6,336.6,250.4,335.4,248.6,333.5z M372.8,349.3
			c-1.7-4.4-3.1-7.9-4.5-11.5c-2.4,4.9-6,9.7-6.8,14.9c-0.4,2.6,4.4,6,6.9,9C369.8,357.6,371.3,353.5,372.8,349.3z"/>
	</g>
</g>
</svg>
