<?xml version="1.0" encoding="utf-8"?>
<!-- Generator: Adobe Illustrator 23.0.0, SVG Export Plug-In . SVG Version: 6.00 Build 0)  -->
<svg version="1.1" id="Layer_1" xmlns="http://www.w3.org/2000/svg" xmlns:xlink="http://www.w3.org/1999/xlink" x="0px" y="0px"
	 viewBox="0 0 595.28 841.89" style="enable-background:new 0 0 595.28 841.89;" xml:space="preserve">
<style type="text/css">
	.st0{fill:#FFFFFF;}
</style>
<g>
	<g>
		<path class="st0" d="M449,421.89c0,48.83,0.02,97.67-0.15,146.5c0,1.17-2.19,3.35-3.35,3.36c-97.67,0.16-195.33,0.16-293,0
			c-1.17,0-3.35-2.19-3.36-3.36c-0.16-97.67-0.16-195.33,0-293c0-1.17,2.19-3.35,3.35-3.36c97.67-0.16,195.33-0.16,293,0
			c1.17,0,3.35,2.18,3.35,3.36C449.02,324.22,449,373.06,449,421.89z M280.11,309.14c-19.48,6.07-45.54,13.44-71.02,22.48
			c-10.93,3.88-20.79,10.97-30.83,17.11c-5.02,3.07-16.65,3.83-6.17,14.45c3.4,3.44,5.7,8.77,6.73,13.62
			c7.47,35.35,14.04,70.89,21.88,106.16c3.21,14.44,8.01,28.7,13.77,42.33c2.86,6.77,9.68,10.69,17.12,3.3
			c0.91-0.91,3.6-1.61,4.15-1.07c14.91,14.61,33.89,12.32,51.76,11.22c23.38-1.44,46.61-5.25,69.92-7.96
			c5.41-0.63,10.85-1.1,16.29-1.39c17.32-0.93,19.29-9.94,18.94-26.12c-0.44-20.51,4.01-41.48,8.86-61.65
			c7.18-29.86,16.99-59.07,24.61-88.83c1.29-5.03-1.34-15.32-4.64-16.56c-19.08-7.14-38.59-14.02-58.56-17.69
			C338.27,313.99,313.05,312.69,280.11,309.14z"/>
		<path d="M280.11,309.14c32.94,3.56,58.16,4.86,82.79,9.39c19.97,3.67,39.48,10.55,58.56,17.69c3.3,1.24,5.93,11.53,4.64,16.56
			c-7.62,29.76-17.43,58.98-24.61,88.83c-4.85,20.17-9.3,41.14-8.86,61.65c0.35,16.18-1.62,25.19-18.94,26.12
			c-5.44,0.29-10.88,0.76-16.29,1.39c-23.3,2.71-46.54,6.53-69.92,7.96c-17.88,1.1-36.85,3.4-51.76-11.22
			c-0.55-0.54-3.23,0.16-4.15,1.07c-7.44,7.38-14.26,3.46-17.12-3.3c-5.76-13.63-10.56-27.89-13.77-42.33
			c-7.84-35.26-14.4-70.81-21.88-106.16c-1.02-4.84-3.33-10.18-6.73-13.62c-10.48-10.62,1.15-11.38,6.17-14.45
			c10.04-6.14,19.89-13.23,30.83-17.11C234.56,322.57,260.63,315.2,280.11,309.14z M269.09,403.92
			c-1.93-5.04,4.39-19.08-11.83-22.43c-3.71-0.77-7.61-2.56-11.08-1.94c-3.07,0.54-8.26,4.1-8.06,5.78
			c1.77,14.54,4.01,29.08,7.18,43.39c2.95,13.29,7.04,26.35,10.93,39.42c3.43,11.53,7.41,22.9,10.87,34.42
			c0.98,3.26,2.17,7.29,1.06,10.1c-1.07,2.7-4.82,4.62-7.79,6.07c-0.63,0.3-3.89-2.7-4.4-4.59c-4.65-17.23-9.21-34.5-13.3-51.87
			c-6.84-29.01-13.25-58.12-20.11-87.13c-0.37-1.57-3.02-3.25-4.9-3.71c-5.42-1.33-10.98-2.81-16.49-2.8
			c-4.25,0.01-12.27,2.76-12.18,3.3c2.55,16.45,5.54,32.86,9.21,49.11c5.66,25.03,11.6,50.01,18.02,74.85
			c1.94,7.49,2.66,17.85,15.66,14.37c1.53-0.41,3.84,2.03,5.77,3.17c7.06,4.17,13.77,10.97,21.25,11.98
			c13.99,1.88,28.46,0.84,42.67,0.07c4.4-0.24,18.42,3.72,7.38-9.69c-0.79-0.96-0.54-2.89-0.52-4.36
			c0.42-36.66,0.75-73.31,1.36-109.97c0.28-16.84-2.62-20.22-18.98-16.89c-4.02,0.82-9.78,7.18-9.8,11.01
			c-0.07,14.66,1.23,29.41,3.24,43.96c2.55,18.44,6.81,36.66,9.08,55.13c0.41,3.35-5.05,7.57-8.24,10.97
			c-0.32,0.34-4.95-1.89-5.56-3.64c-1.31-3.77-1.42-7.98-1.83-12.03C274.96,462.85,272.27,435.72,269.09,403.92z M372.31,464.67
			c0.83,0.18,1.65,0.35,2.48,0.53c-2.08,10.34-3.81,20.78-6.46,30.97c-0.7,2.68-3.91,5.23-6.61,6.61c-1.08,0.55-5.33-2-5.56-3.53
			c-0.5-3.29,0.35-6.92,1.25-10.25c0.57-2.1,2.91-3.79,3.28-5.87c6.28-34.82,12.42-69.67,18.3-104.57c0.2-1.21-2.67-2.93-4.1-4.41
			c-4.22,5.61-10.95,10.7-12.23,16.91c-5.84,28.21-10.68,56.66-14.75,85.19c-1.78,12.45,0.87,25.64-1.67,37.84
			c-1.9,9.15,2.07,7.14,6.75,6.67c4.59-0.45,9.67-0.21,13.59-2.16c4.79-2.39,11.37-6.12,12.34-10.38
			c3.79-16.67,5.47-33.81,8.3-50.71c4.77-28.41,9.86-56.77,14.69-85.18c0.28-1.63-0.6-3.47-0.94-5.21
			c-1.71,1.14-4.41,1.93-4.97,3.49c-2.6,7.19-4.96,14.5-6.75,21.93C383.45,416.55,377.93,440.62,372.31,464.67z M328.23,525.71
			c1.36-3.52,3.37-6.85,3.9-10.41c2.68-17.84,5-35.74,7.41-53.63c3.43-25.45,6.88-50.89,10.15-76.36c0.28-2.15-0.08-5.86-1.33-6.49
			c-9.92-4.99-27.32,6.21-27.45,17.2c-0.22,17.99-0.8,35.97-0.84,53.96c-0.03,12.49-3.27,27,1.91,36.98
			c6.46,12.42,2.33,20.42-2.12,30.14c-0.86,1.89-1.65,3.81-2.46,5.72C319.58,523.39,321.77,523.98,328.23,525.71z M373.57,356.94
			c5.52,1.2,7.82,2.51,9.31,1.89c8-3.33,15.8-7.15,23.66-10.8c-5.82-2.95-11.78-8.35-17.41-8.02
			C385.03,340.25,381.36,348.03,373.57,356.94z M302.14,364.2c0.4,0.74,1.93,3.6,3.47,6.45c1.39-0.84,3.79-1.46,4.02-2.55
			c1.97-9.35,3.8-18.75,5.05-28.22c0.25-1.85-2.15-4.05-3.33-6.09c-2.41,1.81-6.5,3.29-6.93,5.48
			C303.02,346.51,302.95,354.01,302.14,364.2z M274.36,341.98c2.04-1.72,4.07-3.43,6.11-5.15c-3.1-0.6-6.51-2.28-9.2-1.49
			c-2.67,0.79-6.56,4.07-6.54,6.23c0.06,8.57,1.02,17.22,2.66,25.64c0.34,1.74,5.07,2.62,7.77,3.9c0.33-1.66,1.01-3.35,0.92-4.99
			C275.61,358.07,274.95,350.03,274.36,341.98z M322.11,362.38c0.53,0.84,1.48,4.2,3.09,4.56c3.11,0.69,6.61-0.23,9.9-0.79
			c0.3-0.05,0.36-2.31,0.3-3.54c-0.34-7.02-0.64-14.04-1.17-21.05c-0.23-3.05-0.98-6.05-1.5-9.08c-2.01,1.43-5.35,2.54-5.81,4.36
			C324.96,344.66,323.85,352.68,322.11,362.38z M238.22,349.43c-2.72-3.72-4.72-6.44-6.71-9.16c-4.67,3.72-9.35,7.44-14.02,11.16
			c4.74,3.33,9.48,6.65,14.21,9.98C233.65,357.83,235.6,354.24,238.22,349.43z M352.69,332.63c1.98,2.9,1.13,0.69,0.36,0.71
			c-1.75,0.06-4.85,1.02-4.99,1.97c-1.43,9.65-2.4,19.37-3.29,29.09c-0.01,0.15,2.65,0.96,3.9,0.69c1.44-0.31,3.82-1.45,3.85-2.3
			C352.8,354.24,352.69,345.68,352.69,332.63z M282.84,347.41c0.86,0.44,1.72,0.88,2.58,1.32c0,3.83-0.42,7.73,0.19,11.46
			c0.28,1.7,2.58,3.08,3.96,4.6c0.65-0.8,1.75-1.53,1.89-2.41c0.73-4.55,1.72-9.14,1.65-13.7c-0.08-5.48-1.13-10.95-1.76-16.42
			C288.51,337.32,285.68,342.36,282.84,347.41z M248.61,333.49c-2.27,1.82-5.2,3.33-5.02,4.16c2.05,9.44,4.44,18.81,7.12,28.09
			c0.33,1.14,2.78,1.79,4.36,2.33c0.29,0.1,1.73-1.56,1.64-2.28c-1.15-9.24-2.34-18.48-3.9-27.66
			C252.55,336.62,250.44,335.43,248.61,333.49z M372.79,349.32c-1.7-4.35-3.09-7.91-4.48-11.46c-2.43,4.93-6.04,9.69-6.8,14.86
			c-0.38,2.6,4.41,5.97,6.86,8.99C369.82,357.62,371.28,353.54,372.79,349.32z"/>
		<path class="st0" d="M269.09,403.92c3.18,31.8,5.87,58.93,8.61,86.05c0.41,4.05,0.52,8.27,1.83,12.03
			c0.61,1.74,5.24,3.97,5.56,3.64c3.2-3.4,8.66-7.62,8.24-10.97c-2.27-18.47-6.53-36.68-9.08-55.13
			c-2.02-14.55-3.31-29.3-3.24-43.96c0.02-3.84,5.78-10.2,9.8-11.01c16.36-3.33,19.26,0.04,18.98,16.89
			c-0.61,36.65-0.94,73.31-1.36,109.97c-0.02,1.48-0.27,3.41,0.52,4.36c11.05,13.41-2.98,9.45-7.38,9.69
			c-14.22,0.77-28.68,1.81-42.67-0.07c-7.49-1.01-14.19-7.8-21.25-11.98c-1.93-1.14-4.24-3.58-5.77-3.17
			c-13.01,3.48-13.73-6.88-15.66-14.37c-6.42-24.84-12.36-49.82-18.02-74.85c-3.67-16.25-6.66-32.66-9.21-49.11
			c-0.08-0.54,7.94-3.29,12.18-3.3c5.51-0.01,11.07,1.47,16.49,2.8c1.88,0.46,4.52,2.13,4.9,3.71
			c6.86,29.01,13.28,58.12,20.11,87.13c4.1,17.37,8.66,34.64,13.3,51.87c0.51,1.89,3.77,4.9,4.4,4.59c2.97-1.45,6.72-3.37,7.79-6.07
			c1.11-2.81-0.09-6.84-1.06-10.1c-3.46-11.52-7.43-22.89-10.87-34.42c-3.89-13.07-7.98-26.12-10.93-39.42
			c-3.17-14.3-5.41-28.84-7.18-43.39c-0.2-1.68,4.99-5.24,8.06-5.78c3.47-0.62,7.37,1.18,11.08,1.94
			C273.48,384.85,267.16,398.89,269.09,403.92z"/>
		<path class="st0" d="M372.31,464.67c5.62-24.05,11.14-48.12,16.94-72.12c1.79-7.43,4.15-14.74,6.75-21.93
			c0.56-1.56,3.26-2.35,4.97-3.49c0.34,1.74,1.21,3.57,0.94,5.21c-4.83,28.4-9.92,56.76-14.69,85.18
			c-2.84,16.9-4.52,34.04-8.3,50.71c-0.97,4.25-7.55,7.99-12.34,10.38c-3.92,1.96-9,1.71-13.59,2.16c-4.68,0.46-8.65,2.48-6.75-6.67
			c2.54-12.2-0.11-25.39,1.67-37.84c4.07-28.53,8.91-56.98,14.75-85.19c1.29-6.21,8.01-11.3,12.23-16.91
			c1.44,1.48,4.31,3.21,4.1,4.41c-5.88,34.89-12.02,69.74-18.3,104.57c-0.38,2.08-2.71,3.77-3.28,5.87
			c-0.9,3.33-1.76,6.96-1.25,10.25c0.24,1.53,4.49,4.08,5.56,3.53c2.69-1.38,5.91-3.93,6.61-6.61c2.65-10.2,4.38-20.63,6.46-30.97
			C373.96,465.02,373.14,464.85,372.31,464.67z"/>
		<path class="st0" d="M328.23,525.71c-6.46-1.73-8.65-2.31-10.83-2.9c0.82-1.91,1.6-3.83,2.46-5.72
			c4.45-9.72,8.57-17.72,2.12-30.14c-5.18-9.97-1.94-24.48-1.91-36.98c0.04-17.99,0.62-35.97,0.84-53.96
			c0.13-10.98,17.53-22.18,27.45-17.2c1.25,0.63,1.6,4.34,1.33,6.49c-3.27,25.47-6.72,50.91-10.15,76.36
			c-2.41,17.88-4.73,35.78-7.41,53.63C331.6,518.85,329.59,522.19,328.23,525.71z"/>
		<path class="st0" d="M373.57,356.94c7.79-8.91,11.46-16.69,15.56-16.93c5.63-0.33,11.59,5.07,17.41,8.02
			c-7.87,3.65-15.67,7.47-23.66,10.8C381.39,359.46,379.09,358.14,373.57,356.94z"/>
		<path class="st0" d="M302.14,364.2c0.81-10.19,0.88-17.68,2.28-24.93c0.42-2.19,4.51-3.67,6.93-5.48
			c1.18,2.04,3.58,4.24,3.33,6.09c-1.26,9.47-3.08,18.87-5.05,28.22c-0.23,1.08-2.63,1.71-4.02,2.55
			C304.07,367.8,302.54,364.94,302.14,364.2z"/>
		<path class="st0" d="M274.36,341.98c0.59,8.05,1.26,16.09,1.71,24.15c0.09,1.64-0.59,3.32-0.92,4.99c-2.7-1.28-7.43-2.16-7.77-3.9
			c-1.65-8.42-2.61-17.07-2.66-25.64c-0.01-2.16,3.87-5.45,6.54-6.23c2.69-0.79,6.11,0.89,9.2,1.49
			C278.43,338.55,276.39,340.26,274.36,341.98z"/>
		<path class="st0" d="M322.11,362.38c1.74-9.7,2.85-17.72,4.81-25.53c0.46-1.82,3.79-2.93,5.81-4.36c0.51,3.03,1.26,6.03,1.5,9.08
			c0.53,7,0.84,14.03,1.17,21.05c0.06,1.22,0,3.49-0.3,3.54c-3.29,0.56-6.79,1.48-9.9,0.79
			C323.59,366.59,322.64,363.22,322.11,362.38z"/>
		<path class="st0" d="M238.22,349.43c-2.62,4.81-4.57,8.39-6.52,11.98c-4.74-3.33-9.48-6.65-14.21-9.98
			c4.67-3.72,9.35-7.44,14.02-11.16C233.5,343,235.49,345.72,238.22,349.43z"/>
		<path class="st0" d="M352.69,332.63c0,13.05,0.11,21.61-0.17,30.16c-0.03,0.85-2.41,1.98-3.85,2.3c-1.25,0.27-3.92-0.54-3.9-0.69
			c0.89-9.72,1.86-19.44,3.29-29.09c0.14-0.95,3.23-1.91,4.99-1.97C353.82,333.32,354.67,335.52,352.69,332.63z"/>
		<path class="st0" d="M282.84,347.41c2.83-5.05,5.67-10.09,8.5-15.14c0.63,5.47,1.68,10.94,1.76,16.42
			c0.07,4.56-0.92,9.15-1.65,13.7c-0.14,0.88-1.23,1.61-1.89,2.41c-1.38-1.52-3.68-2.9-3.96-4.6c-0.61-3.73-0.19-7.63-0.19-11.46
			C284.56,348.29,283.7,347.85,282.84,347.41z"/>
		<path class="st0" d="M248.61,333.49c1.83,1.94,3.95,3.13,4.2,4.63c1.56,9.18,2.75,18.42,3.9,27.66c0.09,0.72-1.36,2.38-1.64,2.28
			c-1.58-0.53-4.03-1.19-4.36-2.33c-2.68-9.28-5.07-18.65-7.12-28.09C243.41,336.82,246.34,335.31,248.61,333.49z"/>
		<path class="st0" d="M372.79,349.32c-1.51,4.21-2.97,8.3-4.43,12.39c-2.45-3.02-7.24-6.38-6.86-8.99
			c0.76-5.18,4.37-9.93,6.8-14.86C369.7,341.42,371.09,344.97,372.79,349.32z"/>
	</g>
</g>
</svg>
