<?xml version="1.0" encoding="utf-8"?>
<!-- Generator: Adobe Illustrator 23.0.0, SVG Export Plug-In . SVG Version: 6.00 Build 0)  -->
<svg version="1.1" id="Layer_1" xmlns="http://www.w3.org/2000/svg" xmlns:xlink="http://www.w3.org/1999/xlink" x="0px" y="0px"
	 viewBox="0 0 595.28 841.89" style="enable-background:new 0 0 595.28 841.89;" xml:space="preserve">
<style type="text/css">
	.st0{fill:#FFFFFF;}
</style>
<g>
	<g>
		<path class="st0" d="M149,421.89c0-48.83-0.02-97.67,0.15-146.5c0-1.17,2.19-3.35,3.35-3.36c97.67-0.16,195.33-0.16,293,0
			c1.17,0,3.35,2.19,3.36,3.35c0.16,97.67,0.16,195.33,0,293c0,1.17-2.19,3.35-3.35,3.36c-97.67,0.16-195.33,0.16-293,0
			c-1.17,0-3.35-2.18-3.35-3.35C148.98,519.56,149,470.72,149,421.89z M258.72,289.45c-0.01-0.17-0.02-0.34-0.02-0.51
			c-1,0-2.05-0.22-2.98,0.03c-14.87,3.99-29.83,7.67-44.51,12.27c-5.11,1.6-10.95,4.48-13.88,8.61
			c-5.34,7.52-10.55,16.03-12.34,24.84c-1.28,6.28,2.78,13.84,5.11,20.6c2.61,7.58,5.72,14.44,16,14.84
			c6.43,0.25,9.66,4.79,6.55,11.81c-0.67,1.51-0.62,3.59-0.25,5.26c3.14,14.4,6.59,28.73,9.65,43.14
			c4.08,19.18,7.13,38.61,12.01,57.58c5.89,22.9,13.17,45.44,20.1,68.07c0.4,1.31,3.06,2.67,4.73,2.75
			c10.73,0.52,21.48,0.96,32.21,0.9c12.05-0.07,24.3,0.48,36.09-1.49c8.38-1.4,16.19-6.39,24.16-10c4.99-2.26,9.84-4.83,14.67-7.42
			c7.54-4.04,2.98-9.37,1.44-14.38c-0.14-0.45-0.03-1,0.02-1.49c1.64-17.9,3.15-35.81,4.96-53.69c1.59-15.74,3.44-31.45,5.31-47.16
			c0.83-6.96,1.53-13.99,3.11-20.79c1.21-5.19,5.97-10.44,5.21-15.02c-2.3-13.96,2.89-25.92,8.01-37.83
			c4.41-10.26,10.2-19.97,15.86-29.64c5.19-8.89,4.61-11.02-5.17-13.84c-0.77-0.22-1.51-0.62-2.19-1.06
			c-4.86-3.13-9.32-7.84-14.62-9.18c-22.56-5.69-44.77-13.47-68.81-11.08C299.07,287.56,278.86,288.2,258.72,289.45z"/>
		<path d="M258.72,289.45c20.15-1.24,40.35-1.88,60.42-3.88c24.04-2.39,46.25,5.39,68.81,11.08c5.31,1.34,9.76,6.05,14.62,9.18
			c0.68,0.44,1.42,0.84,2.19,1.06c9.78,2.82,10.36,4.95,5.17,13.84c-5.65,9.68-11.45,19.38-15.86,29.64
			c-5.12,11.9-10.32,23.86-8.01,37.83c0.76,4.58-4.01,9.83-5.21,15.02c-1.58,6.8-2.29,13.83-3.11,20.79
			c-1.87,15.71-3.72,31.42-5.31,47.16c-1.81,17.88-3.32,35.79-4.96,53.69c-0.05,0.5-0.16,1.04-0.02,1.49
			c1.55,5.01,6.1,10.34-1.44,14.38c-4.83,2.59-9.68,5.16-14.67,7.42c-7.97,3.61-15.78,8.61-24.16,10
			c-11.79,1.96-24.04,1.42-36.09,1.49c-10.74,0.06-21.49-0.38-32.21-0.9c-1.67-0.08-4.32-1.43-4.73-2.75
			c-6.93-22.62-14.21-45.17-20.1-68.07c-4.88-18.97-7.94-38.4-12.01-57.58c-3.06-14.41-6.51-28.75-9.65-43.14
			c-0.37-1.67-0.41-3.75,0.25-5.26c3.11-7.02-0.11-11.56-6.55-11.81c-10.28-0.4-13.39-7.26-16-14.84
			c-2.33-6.76-6.39-14.32-5.11-20.6c1.79-8.81,7.01-17.32,12.34-24.84c2.93-4.13,8.77-7.01,13.88-8.61
			c14.68-4.6,29.64-8.28,44.51-12.27c0.93-0.25,1.98-0.03,2.98-0.03C258.7,289.11,258.71,289.28,258.72,289.45z M366.3,462.65
			c-0.66-0.55-1.32-1.1-1.97-1.64c-0.39-2.03-0.78-4.07-1.17-6.1c-1.76,1.1-3.73,1.96-5.23,3.34c-2.68,2.44-5.6,4.85-7.49,7.86
			c-6.39,10.2-11.99,20.92-18.72,30.88c-2.16,3.2-6.74,4.94-10.47,6.85c-1.72,0.88-4.05,0.56-6.11,0.78
			c0.01-2.73-1.06-6.21,0.22-8.04c4.09-5.82,9.25-10.88,13.61-16.53c2.23-2.89,3.65-6.42,5.43-9.66c-3.39,2.29-6.54,5.1-10.22,6.73
			c-4.57,2.03-9.58,3.09-14.4,4.58c1.6-3.8,3.18-7.6,4.82-11.38c0.25-0.59,0.81-1.03,1.21-1.56c9.48-12.58,19.26-24.95,28.36-37.8
			c8.66-12.22,16.85-24.8,24.68-37.57c1.7-2.78,0.96-7.05,1.34-10.64c-2.44,1.78-5.19,3.27-7.25,5.42
			c-4.02,4.16-7.88,8.52-11.4,13.11c-7.65,9.96-14.68,20.42-22.67,30.08c-5.63,6.81-12.4,12.67-18.73,18.88
			c-0.47,0.46-1.67,0.68-2.21,0.4c-0.45-0.23-0.66-1.4-0.59-2.11c1.44-13.48,8.8-23.64,17.69-33.35
			c12.59-13.75,24.51-28.12,36.6-42.34c1.86-2.18,3.05-4.93,4.55-7.42c-2.96,0.13-5.92,0.36-8.88,0.34
			c-1.45-0.01-2.98-0.9-4.31-0.62c-1.46,0.31-3.05,1.23-4.02,2.37c-5.19,6.13-10.11,12.5-15.31,18.62
			c-3.26,3.84-9.29,7.09-9.8,11.15c-1.14,9.11-5.41,14.1-13.5,16.82c-1.55,0.52-4.32,1.53-4.58,1.1c-1.19-1.92-2.72-4.57-2.2-6.41
			c0.8-2.81,3.28-5.11,4.88-7.73c0.95-1.55,1.58-3.3,2.36-4.96c-1.86,0.35-3.7,0.88-5.57,1.01c-2.13,0.15-5.25,0.78-6.2-0.32
			c-1.21-1.4-1.58-4.74-0.75-6.49c2.41-5.04,5.75-9.64,8.33-14.61c0.38-0.74-1.44-3.78-2.13-3.74c-5.22,0.28-10.39,1.33-15.61,1.64
			c-18.94,1.1-37.9,2.69-56.85,2.66c-7.81-0.01-6.2,3.06-5.53,7.7c0.9,6.24,1.44,12.55,1.76,18.85c0.12,2.3-1.57,4.79-1.15,6.94
			c1.71,8.59,4.1,17.04,5.92,25.61c3.54,16.61,6.22,33.44,10.48,49.86c3.8,14.64,9.48,28.79,13.9,43.28
			c2.42,7.91,3.63,16.5,15.31,10.21c0.73-0.39,2.16,0.46,3.24,0.8c6.37,2.03,12.64,4.59,19.16,5.88c3.06,0.61,7.23-0.36,9.74-2.2
			c2.22-1.63,2.25-5.94,4.23-8.22c10.38-11.97,21.27-23.48,31.55-35.53c5.06-5.93,9.25-12.6,13.71-19.03
			C358.44,474.55,362.33,468.57,366.3,462.65z M296.29,339.54c1.06-0.48,5.48-1.13,7.72-3.68c9.49-10.83,18.35-22.2,27.35-33.46
			c0.46-0.58,0-1.89-0.04-2.86c-3.89,1.08-8.95,0.97-11.46,3.45c-9.26,9.14-17.62,19.2-26.51,28.73c-0.9,0.97-3.96,1.51-4.56,0.87
			c-1.57-1.67-3.82-5.03-3.16-6.07c4.71-7.53,10.05-14.67,15.25-21.9c0.9-1.26,2.05-2.34,3.08-3.5c-1.61-0.42-3.26-1.31-4.84-1.2
			c-18.36,1.38-37.02,1.36-54.96,4.9c-13.08,2.58-25.34,9.64-37.63,15.43c-1.63,0.77-2.41,8.05-1.64,8.44
			c7.43,3.73,15.04,7.86,23.07,9.43c9.18,1.78,18.84,1.24,28.3,1.38C268.61,339.67,280.99,339.54,296.29,339.54z M315.94,357.56
			c0.05,0.3,0.1,0.6,0.15,0.9c1.65,0,3.34,0.26,4.93-0.04c15.78-2.94,31.67-5.43,47.23-9.26c5.98-1.47,11.3-5.92,16.67-9.39
			c1.13-0.73,1.17-3.14,1.72-4.78c-1.59-0.01-3.29-0.4-4.74,0.03c-10.02,3.02-19.83,7.02-30.03,9.15
			c-16.4,3.42-32.96,7.05-49.61,7.99c-20.21,1.15-40.58-0.48-60.87-0.76c-11.98-0.17-24.37,2.59-35.02-5.92
			c-0.9-0.72-3.44,0.61-5.22,0.98c1.67,2.88,2.65,6.99,5.15,8.4c5.6,3.17,11.8,6.37,18.04,7.12c14.7,1.75,29.65,3.42,44.36,2.62
			C284.53,363.76,300.2,360.04,315.94,357.56z M362.42,499.83c-0.71-0.52-1.42-1.03-2.13-1.55c-0.25-1.92-0.5-3.84-0.74-5.77
			c-1.07,0.92-2.27,1.73-3.2,2.78c-10.43,11.79-20.84,23.6-31.13,35.51c-0.47,0.54,0.3,2.07,0.36,3.15
			c0.09,1.72,0.54,3.64-0.06,5.12c-0.64,1.59-2.31,2.77-3.53,4.13c2,0.25,4.37,1.3,5.93,0.58c2.98-1.37,6.02-3.31,8.09-5.8
			c5.21-6.28,10.1-12.86,14.74-19.58C354.89,512.4,358.55,506.04,362.42,499.83z M335.25,461.27c1.01,2.93,1.45,4.2,1.89,5.48
			c1.1-0.94,2.34-1.75,3.26-2.84c5.23-6.19,10.84-12.12,15.41-18.77c4.46-6.5,7.93-13.69,11.55-20.73c0.55-1.06-0.49-2.94-0.79-4.44
			c-1.04,0.63-2.38,1.02-3.06,1.92c-4.75,6.3-9.42,12.67-14.01,19.09C344.56,447.9,339.73,454.89,335.25,461.27z M371.51,312.62
			c-4.56-0.93-6.56-1.95-7.24-1.39c-7.4,6.2-14.61,12.63-21.78,19.09c-0.6,0.54-0.57,1.78-0.83,2.7c1.06,0.04,2.23,0.41,3.16,0.08
			c3.71-1.31,7.95-2.09,10.86-4.46C360.73,324.54,364.93,319.41,371.51,312.62z M324.78,337.41c1.29-0.69,3.01-1.05,3.79-2.1
			c6.24-8.5,12.32-17.11,18.4-25.72c0.58-0.82,0.87-1.86,1.29-2.8c-1.07,0.18-2.46,0-3.17,0.6c-7.03,5.95-14.36,11.65-20.69,18.29
			c-2.17,2.28-1.78,7.02-2.38,10.67C321.98,336.53,323.65,336.99,324.78,337.41z M313.36,386.68c0.62,1.92,0.83,3.79,1.32,3.87
			c1.1,0.17,2.7-0.19,3.46-0.97c4.72-4.79,9.33-9.69,13.84-14.68c1.56-1.73,2.72-3.81,4.06-5.73c-2.42,0.06-4.85,0.3-7.25,0.14
			c-5.2-0.35-7.08,1.85-7.21,7.1c-0.05,2-3.08,3.92-4.73,5.9C315.62,383.82,314.42,385.36,313.36,386.68z"/>
		<path class="st0" d="M366.3,462.65c-3.97,5.93-7.86,11.91-11.92,17.76c-4.46,6.43-8.65,13.1-13.71,19.03
			c-10.28,12.04-21.18,23.56-31.55,35.53c-1.98,2.28-2.01,6.6-4.23,8.22c-2.51,1.84-6.68,2.81-9.74,2.2
			c-6.52-1.29-12.78-3.86-19.16-5.88c-1.08-0.34-2.51-1.19-3.24-0.8c-11.68,6.29-12.9-2.3-15.31-10.21
			c-4.42-14.49-10.1-28.64-13.9-43.28c-4.26-16.42-6.94-33.25-10.48-49.86c-1.83-8.57-4.21-17.02-5.92-25.61
			c-0.43-2.15,1.26-4.65,1.15-6.94c-0.32-6.3-0.86-12.61-1.76-18.85c-0.67-4.64-2.28-7.71,5.53-7.7
			c18.95,0.02,37.91-1.56,56.85-2.66c5.22-0.3,10.39-1.36,15.61-1.64c0.69-0.04,2.52,3,2.13,3.74c-2.58,4.98-5.92,9.57-8.33,14.61
			c-0.84,1.75-0.47,5.09,0.75,6.49c0.94,1.09,4.07,0.47,6.2,0.32c1.87-0.13,3.72-0.66,5.57-1.01c-0.78,1.66-1.41,3.4-2.36,4.96
			c-1.6,2.62-4.08,4.92-4.88,7.73c-0.52,1.83,1,4.48,2.2,6.41c0.26,0.42,3.03-0.58,4.58-1.1c8.09-2.72,12.36-7.71,13.5-16.82
			c0.51-4.05,6.54-7.31,9.8-11.15c5.2-6.12,10.12-12.49,15.31-18.62c0.96-1.14,2.56-2.06,4.02-2.37c1.33-0.28,2.87,0.61,4.31,0.62
			c2.96,0.02,5.92-0.21,8.88-0.34c-1.5,2.49-2.69,5.24-4.55,7.42c-12.08,14.21-24.01,28.58-36.6,42.34
			c-8.89,9.71-16.25,19.87-17.69,33.35c-0.08,0.71,0.14,1.87,0.59,2.11c0.54,0.28,1.75,0.06,2.21-0.4
			c6.33-6.21,13.1-12.08,18.73-18.88c7.99-9.67,15.02-20.12,22.67-30.08c3.52-4.59,7.38-8.94,11.4-13.11
			c2.07-2.14,4.81-3.63,7.25-5.42c-0.38,3.59,0.36,7.86-1.34,10.64c-7.82,12.77-16.02,25.35-24.68,37.57
			c-9.1,12.85-18.88,25.22-28.36,37.8c-0.4,0.53-0.96,0.98-1.21,1.56c-1.64,3.78-3.22,7.59-4.82,11.38
			c4.82-1.48,9.82-2.54,14.4-4.58c3.68-1.63,6.83-4.44,10.22-6.73c-1.78,3.24-3.2,6.76-5.43,9.66c-4.36,5.65-9.52,10.71-13.61,16.53
			c-1.28,1.83-0.22,5.31-0.22,8.04c2.06-0.22,4.39,0.1,6.11-0.78c3.73-1.91,8.31-3.64,10.47-6.85c6.72-9.96,12.33-20.68,18.72-30.88
			c1.88-3.01,4.81-5.42,7.49-7.86c1.51-1.37,3.47-2.24,5.23-3.34c0.39,2.03,0.78,4.07,1.17,6.1
			C364.98,461.55,365.64,462.1,366.3,462.65z"/>
		<path class="st0" d="M296.29,339.54c-15.3,0-27.68,0.14-40.05-0.05c-9.46-0.14-19.12,0.4-28.3-1.38
			c-8.03-1.56-15.64-5.7-23.07-9.43c-0.77-0.39,0.02-7.67,1.64-8.44c12.29-5.78,24.55-12.84,37.63-15.43
			c17.95-3.54,36.6-3.53,54.96-4.9c1.57-0.12,3.22,0.77,4.84,1.2c-1.03,1.16-2.18,2.24-3.08,3.5c-5.19,7.23-10.54,14.36-15.25,21.9
			c-0.65,1.04,1.6,4.4,3.16,6.07c0.6,0.63,3.66,0.1,4.56-0.87c8.89-9.53,17.25-19.58,26.51-28.73c2.51-2.48,7.57-2.37,11.46-3.45
			c0.03,0.97,0.5,2.29,0.04,2.86c-8.99,11.26-17.86,22.63-27.35,33.46C301.77,338.41,297.35,339.06,296.29,339.54z"/>
		<path class="st0" d="M315.94,357.56c-15.74,2.47-31.4,6.2-47.23,7.06c-14.71,0.8-29.66-0.86-44.36-2.62
			c-6.25-0.75-12.44-3.94-18.04-7.12c-2.5-1.42-3.48-5.52-5.15-8.4c1.78-0.38,4.32-1.7,5.22-0.98c10.66,8.5,23.04,5.75,35.02,5.92
			c20.3,0.28,40.66,1.9,60.87,0.76c16.64-0.94,33.21-4.57,49.61-7.99c10.2-2.13,20-6.14,30.03-9.15c1.45-0.44,3.15-0.04,4.74-0.03
			c-0.54,1.64-0.59,4.05-1.72,4.78c-5.37,3.47-10.69,7.92-16.67,9.39c-15.56,3.83-31.46,6.32-47.23,9.26
			c-1.59,0.3-3.28,0.04-4.93,0.04C316.04,358.16,315.99,357.86,315.94,357.56z"/>
		<path class="st0" d="M362.42,499.83c-3.88,6.21-7.53,12.56-11.69,18.58c-4.64,6.72-9.53,13.3-14.74,19.58
			c-2.07,2.49-5.11,4.42-8.09,5.8c-1.55,0.72-3.92-0.33-5.93-0.58c1.22-1.36,2.89-2.54,3.53-4.13c0.6-1.48,0.14-3.4,0.06-5.12
			c-0.05-1.08-0.82-2.61-0.36-3.15c10.29-11.91,20.7-23.72,31.13-35.51c0.93-1.05,2.13-1.86,3.2-2.78c0.25,1.92,0.5,3.84,0.74,5.77
			C361,498.8,361.71,499.32,362.42,499.83z"/>
		<path class="st0" d="M335.25,461.27c4.48-6.38,9.31-13.37,14.25-20.29c4.59-6.42,9.26-12.79,14.01-19.09
			c0.68-0.9,2.02-1.29,3.06-1.92c0.3,1.5,1.33,3.38,0.79,4.44c-3.62,7.04-7.09,14.23-11.55,20.73
			c-4.57,6.65-10.19,12.58-15.41,18.77c-0.92,1.09-2.17,1.9-3.26,2.84C336.7,465.48,336.26,464.2,335.25,461.27z"/>
		<path class="st0" d="M371.51,312.62c-6.58,6.78-10.78,11.92-15.83,16.02c-2.91,2.37-7.16,3.14-10.86,4.46
			c-0.93,0.33-2.1-0.03-3.16-0.08c0.26-0.92,0.23-2.16,0.83-2.7c7.18-6.46,14.39-12.88,21.78-19.09
			C364.94,310.67,366.95,311.69,371.51,312.62z"/>
		<path class="st0" d="M324.78,337.41c-1.13-0.42-2.79-0.88-2.76-1.05c0.6-3.65,0.21-8.39,2.38-10.67
			c6.32-6.65,13.65-12.34,20.69-18.29c0.72-0.61,2.1-0.42,3.17-0.6c-0.42,0.94-0.71,1.97-1.29,2.8
			c-6.08,8.61-12.16,17.23-18.4,25.72C327.79,336.36,326.07,336.72,324.78,337.41z"/>
		<path class="st0" d="M313.36,386.68c1.06-1.32,2.26-2.86,3.51-4.36c1.64-1.98,4.68-3.9,4.73-5.9c0.13-5.25,2.01-7.45,7.21-7.1
			c2.4,0.16,4.83-0.08,7.25-0.14c-1.34,1.92-2.51,4-4.06,5.73c-4.51,4.99-9.12,9.89-13.84,14.68c-0.76,0.77-2.37,1.14-3.46,0.97
			C314.19,390.47,313.98,388.6,313.36,386.68z"/>
	</g>
</g>
</svg>
