<?xml version="1.0" encoding="utf-8"?>
<!-- Generator: Adobe Illustrator 23.0.0, SVG Export Plug-In . SVG Version: 6.00 Build 0)  -->
<svg version="1.1" id="Layer_1" xmlns="http://www.w3.org/2000/svg" xmlns:xlink="http://www.w3.org/1999/xlink" x="0px" y="0px"
	 viewBox="0 0 595.3 841.9" style="enable-background:new 0 0 595.3 841.9;" xml:space="preserve">
<g>
	<g>
		<path d="M258.7,289.5c20.1-1.2,40.4-1.9,60.4-3.9c24-2.4,46.2,5.4,68.8,11.1c5.3,1.3,9.8,6,14.6,9.2c0.7,0.4,1.4,0.8,2.2,1.1
			c9.8,2.8,10.4,5,5.2,13.8c-5.6,9.7-11.5,19.4-15.9,29.6c-5.1,11.9-10.3,23.9-8,37.8c0.8,4.6-4,9.8-5.2,15
			c-1.6,6.8-2.3,13.8-3.1,20.8c-1.9,15.7-3.7,31.4-5.3,47.2c-1.8,17.9-3.3,35.8-5,53.7c0,0.5-0.2,1,0,1.5c1.5,5,6.1,10.3-1.4,14.4
			c-4.8,2.6-9.7,5.2-14.7,7.4c-8,3.6-15.8,8.6-24.2,10c-11.8,2-24,1.4-36.1,1.5c-10.7,0.1-21.5-0.4-32.2-0.9
			c-1.7-0.1-4.3-1.4-4.7-2.8c-6.9-22.6-14.2-45.2-20.1-68.1c-4.9-19-7.9-38.4-12-57.6c-3.1-14.4-6.5-28.8-9.6-43.1
			c-0.4-1.7-0.4-3.8,0.2-5.3c3.1-7-0.1-11.6-6.6-11.8c-10.3-0.4-13.4-7.3-16-14.8c-2.3-6.8-6.4-14.3-5.1-20.6
			c1.8-8.8,7-17.3,12.3-24.8c2.9-4.1,8.8-7,13.9-8.6c14.7-4.6,29.6-8.3,44.5-12.3c0.9-0.2,2,0,3,0
			C258.7,289.1,258.7,289.3,258.7,289.5z M366.3,462.6c-0.7-0.5-1.3-1.1-2-1.6c-0.4-2-0.8-4.1-1.2-6.1c-1.8,1.1-3.7,2-5.2,3.3
			c-2.7,2.4-5.6,4.9-7.5,7.9c-6.4,10.2-12,20.9-18.7,30.9c-2.2,3.2-6.7,4.9-10.5,6.9c-1.7,0.9-4,0.6-6.1,0.8c0-2.7-1.1-6.2,0.2-8
			c4.1-5.8,9.2-10.9,13.6-16.5c2.2-2.9,3.6-6.4,5.4-9.7c-3.4,2.3-6.5,5.1-10.2,6.7c-4.6,2-9.6,3.1-14.4,4.6
			c1.6-3.8,3.2-7.6,4.8-11.4c0.2-0.6,0.8-1,1.2-1.6c9.5-12.6,19.3-25,28.4-37.8c8.7-12.2,16.9-24.8,24.7-37.6c1.7-2.8,1-7,1.3-10.6
			c-2.4,1.8-5.2,3.3-7.2,5.4c-4,4.2-7.9,8.5-11.4,13.1c-7.6,10-14.7,20.4-22.7,30.1c-5.6,6.8-12.4,12.7-18.7,18.9
			c-0.5,0.5-1.7,0.7-2.2,0.4c-0.5-0.2-0.7-1.4-0.6-2.1c1.4-13.5,8.8-23.6,17.7-33.4c12.6-13.8,24.5-28.1,36.6-42.3
			c1.9-2.2,3-4.9,4.5-7.4c-3,0.1-5.9,0.4-8.9,0.3c-1.5,0-3-0.9-4.3-0.6c-1.5,0.3-3,1.2-4,2.4c-5.2,6.1-10.1,12.5-15.3,18.6
			c-3.3,3.8-9.3,7.1-9.8,11.1c-1.1,9.1-5.4,14.1-13.5,16.8c-1.5,0.5-4.3,1.5-4.6,1.1c-1.2-1.9-2.7-4.6-2.2-6.4
			c0.8-2.8,3.3-5.1,4.9-7.7c1-1.5,1.6-3.3,2.4-5c-1.9,0.4-3.7,0.9-5.6,1c-2.1,0.1-5.2,0.8-6.2-0.3c-1.2-1.4-1.6-4.7-0.8-6.5
			c2.4-5,5.8-9.6,8.3-14.6c0.4-0.7-1.4-3.8-2.1-3.7c-5.2,0.3-10.4,1.3-15.6,1.6c-18.9,1.1-37.9,2.7-56.9,2.7c-7.8,0-6.2,3.1-5.5,7.7
			c0.9,6.2,1.4,12.5,1.8,18.9c0.1,2.3-1.6,4.8-1.1,6.9c1.7,8.6,4.1,17,5.9,25.6c3.5,16.6,6.2,33.4,10.5,49.9
			c3.8,14.6,9.5,28.8,13.9,43.3c2.4,7.9,3.6,16.5,15.3,10.2c0.7-0.4,2.2,0.5,3.2,0.8c6.4,2,12.6,4.6,19.2,5.9
			c3.1,0.6,7.2-0.4,9.7-2.2c2.2-1.6,2.2-5.9,4.2-8.2c10.4-12,21.3-23.5,31.5-35.5c5.1-5.9,9.2-12.6,13.7-19
			C358.4,474.5,362.3,468.6,366.3,462.6z M296.3,339.5c1.1-0.5,5.5-1.1,7.7-3.7c9.5-10.8,18.4-22.2,27.4-33.5c0.5-0.6,0-1.9,0-2.9
			c-3.9,1.1-9,1-11.5,3.5c-9.3,9.1-17.6,19.2-26.5,28.7c-0.9,1-4,1.5-4.6,0.9c-1.6-1.7-3.8-5-3.2-6.1c4.7-7.5,10-14.7,15.2-21.9
			c0.9-1.3,2-2.3,3.1-3.5c-1.6-0.4-3.3-1.3-4.8-1.2c-18.4,1.4-37,1.4-55,4.9c-13.1,2.6-25.3,9.6-37.6,15.4c-1.6,0.8-2.4,8-1.6,8.4
			c7.4,3.7,15,7.9,23.1,9.4c9.2,1.8,18.8,1.2,28.3,1.4C268.6,339.7,281,339.5,296.3,339.5z M315.9,357.6c0,0.3,0.1,0.6,0.1,0.9
			c1.6,0,3.3,0.3,4.9,0c15.8-2.9,31.7-5.4,47.2-9.3c6-1.5,11.3-5.9,16.7-9.4c1.1-0.7,1.2-3.1,1.7-4.8c-1.6,0-3.3-0.4-4.7,0
			c-10,3-19.8,7-30,9.1c-16.4,3.4-33,7-49.6,8c-20.2,1.1-40.6-0.5-60.9-0.8c-12-0.2-24.4,2.6-35-5.9c-0.9-0.7-3.4,0.6-5.2,1
			c1.7,2.9,2.6,7,5.1,8.4c5.6,3.2,11.8,6.4,18,7.1c14.7,1.8,29.6,3.4,44.4,2.6C284.5,363.8,300.2,360,315.9,357.6z M362.4,499.8
			c-0.7-0.5-1.4-1-2.1-1.5c-0.2-1.9-0.5-3.8-0.7-5.8c-1.1,0.9-2.3,1.7-3.2,2.8c-10.4,11.8-20.8,23.6-31.1,35.5
			c-0.5,0.5,0.3,2.1,0.4,3.2c0.1,1.7,0.5,3.6-0.1,5.1c-0.6,1.6-2.3,2.8-3.5,4.1c2,0.2,4.4,1.3,5.9,0.6c3-1.4,6-3.3,8.1-5.8
			c5.2-6.3,10.1-12.9,14.7-19.6C354.9,512.4,358.5,506,362.4,499.8z M335.2,461.3c1,2.9,1.5,4.2,1.9,5.5c1.1-0.9,2.3-1.8,3.3-2.8
			c5.2-6.2,10.8-12.1,15.4-18.8c4.5-6.5,7.9-13.7,11.5-20.7c0.5-1.1-0.5-2.9-0.8-4.4c-1,0.6-2.4,1-3.1,1.9
			c-4.8,6.3-9.4,12.7-14,19.1C344.6,447.9,339.7,454.9,335.2,461.3z M371.5,312.6c-4.6-0.9-6.6-2-7.2-1.4
			c-7.4,6.2-14.6,12.6-21.8,19.1c-0.6,0.5-0.6,1.8-0.8,2.7c1.1,0,2.2,0.4,3.2,0.1c3.7-1.3,8-2.1,10.9-4.5
			C360.7,324.5,364.9,319.4,371.5,312.6z M324.8,337.4c1.3-0.7,3-1,3.8-2.1c6.2-8.5,12.3-17.1,18.4-25.7c0.6-0.8,0.9-1.9,1.3-2.8
			c-1.1,0.2-2.5,0-3.2,0.6c-7,6-14.4,11.6-20.7,18.3c-2.2,2.3-1.8,7-2.4,10.7C322,336.5,323.6,337,324.8,337.4z M313.4,386.7
			c0.6,1.9,0.8,3.8,1.3,3.9c1.1,0.2,2.7-0.2,3.5-1c4.7-4.8,9.3-9.7,13.8-14.7c1.6-1.7,2.7-3.8,4.1-5.7c-2.4,0.1-4.9,0.3-7.2,0.1
			c-5.2-0.4-7.1,1.9-7.2,7.1c0,2-3.1,3.9-4.7,5.9C315.6,383.8,314.4,385.4,313.4,386.7z"/>
	</g>
</g>
</svg>
