<?xml version="1.0" encoding="utf-8"?>
<!-- Generator: Adobe Illustrator 23.0.0, SVG Export Plug-In . SVG Version: 6.00 Build 0)  -->
<svg version="1.1" id="Layer_1" xmlns="http://www.w3.org/2000/svg" xmlns:xlink="http://www.w3.org/1999/xlink" x="0px" y="0px"
	 viewBox="0 0 595.3 841.9" style="enable-background:new 0 0 595.3 841.9;" xml:space="preserve">
<g>
	<g>
		<path d="M185.8,463.6c0.7-12.8,0.6-12.4-11.9-17.8c-4.9-2.1-8.9-6.1-12.9-9.8c-0.7-0.6,0.3-3.8,1.3-5.3c4.6-7,9.5-13.8,14-20.9
			c0.5-0.8-1.1-2.6-1.1-4c0-8.6-0.4-17.2,0.4-25.7c0.3-3,3.2-6.4,5.9-8.3c7.4-5.2,14.8-10.6,24.9-9.3c2.1,0.3,4.5-1,6.6-1.8
			c0.8-0.3,1.7-2.2,1.6-2.2c-5.9-5.1-1.8-10.6-0.1-15.5c1.5-4.1,4-8,6.9-11.3c1.1-1.2,5.3-1.5,6.5-0.4c6.8,5.7,15,4.4,22.7,5.3
			c0.9,0.1,2.3-0.7,2.8-1.5c5-8.5,9.9-9.7,19.3-8.8c9.1,0.9,14.4,4.6,17.4,13.1c3.3,9.4,12.2,10.5,20.4,12.6
			c5.1,1.3,10,3.4,14.9,5.4c0.9,0.4,1.8,2.6,1.5,3.6c-1.6,5.1-3.7,10.1-5.4,15.2c-0.2,0.5,1.4,2.2,1.8,2.1
			c11.1-2.9,22.2-5.7,33.2-9.1c10.1-3.1,19.9-6.8,30-9.9c1.2-0.4,3.5,1.3,4.6,2.6c0.6,0.7-0.2,2.6-0.5,4c-0.4,1.8-1.7,3.8-1.2,5.2
			c6,18.6,11.9,37.3,18.5,55.6c4.6,12.5,10.6,24.5,15.5,37c1.8,4.7,3.1,8.4,8.4,11.1c5.1,2.6-0.3,6.3-2.2,9.2
			c-0.5,0.7-1.7,0.9-2.7,1.2c-12.6,4.5-12.9,4.8-4.4,15.5c5.6,7.1,11.9,13.8,18.6,19.9c3.8,3.5,3.2,6.9,0.8,9.2
			c-1.8,1.7-6.6,2.7-8.7,1.5c-16.5-9-33.9-12.7-52.8-11.7c-13.6,0.7-27.4-1.1-41-1.3c-6.4-0.1-12.9,1.8-19.2,1.4
			c-10.5-0.6-21-2.9-31.5-3.3c-11.4-0.5-22.9-0.3-34.3,0.5c-9.5,0.6-17.9-6.5-17.8-15.9c0-2.6-1.1-5.5-2.3-7.9
			c-2.7-5.1-5.5-10.3-9-14.9c-1.3-1.7-5-3.1-7-2.5c-4,1.1-6.9,1.2-9.6-2.3c-3.4-4.4-7-5.7-12.9-2.7
			C187.2,475.4,185.3,473.5,185.8,463.6z M214.3,429.8c-0.8,0.1-2.3,0.4-3.9,0.7c0.6,1.5,1.1,3,1.8,4.3c2.2,4.2,4.6,8.2,6.6,12.4
			c4.3,9.1,8.2,18.4,12.8,27.3c3.2,6.2,7.9,11.6,10.6,18c1.9,4.7,3.7,3.8,6.9,2.3c4.4-2.1,8.9-4.5,13.6-5.8
			c12.5-3.7,25.1-7,37.7-10.2c13-3.3,26-7.1,39.2-9.2c10.9-1.7,22.1-1.4,33.2-1.8c1.6,0,3.1,1.6,4.8,2c2.3,0.6,5.2,2,6.9,1.1
			c4.5-2.4,8.3-7.6,12.3,0.7c0.4,0.8,4.4,0.2,6.7-0.2c1.8-0.3,3.8-2.2,5.1-1.7c16.4,6.3,2.4-5.8,4.7-8c0.3-0.3-0.9-2-1.3-3.1
			c-6.1-15.7-12.4-31.3-18.3-47c-4.2-11.2-7.8-22.7-11.8-33.9c-0.5-1.3-2.2-3.3-3-3.1c-9,1.7-18.1,3.3-26.9,5.7
			c-12.2,3.3-24.3,7.1-36.4,10.8c-11.2,3.4-22.5,6.6-33.6,10.2c-14.5,4.7-29,9.6-43.3,14.8c-5.2,1.9-11.1,4-14.6,7.8
			C221.3,427.1,220.2,431,214.3,429.8z M207.6,371c-0.3-0.6-0.6-1.3-0.9-1.9c-6.3,2.8-12.8,5.1-18.8,8.5c-5.3,3-8.1,17.2-4.3,20.5
			s3,6.7,1.1,10.1c-3.7,6.9-7.9,13.5-11.4,20.4c-1.2,2.4-2.3,7.5-1.8,7.7c4.2,1.9,8,7.5,13.6,2c1.3-1.2,5-1.4,6.5-0.5
			c1.6,1,2.6,4,2.6,6.2c0.1,4.8-0.8,9.5-0.9,14.3c0,1.4,1.2,3.9,2.1,4c1.6,0.1,3.6-0.8,5.1-1.8c1.9-1.4,3.7-3.1,5.2-4.9
			c1.9-2.1,5.4-5.5,4.9-6.5c-4.8-8.6-10.4-16.8-15.5-25.2c-1.6-2.6-2.6-5.5-3.8-8.3c2.2-1,4.6-3,6.6-2.6c2.1,0.4,4.8,2.8,5.3,4.8
			c1.5,6,4.3,4.3,8,2.3c5.6-3.1,11.2-6.3,17.1-8.7c6.2-2.5,12.8-3.9,19.2-6c19.5-6.6,38.9-13.5,58.5-19.8c8.7-2.8,8-10.2,9.8-16.4
			c2.2-7.6,0.7-9.4-7.2-8.9c-4.5,0.3-9.3,5.7-13-1.3c-5.2,2.2-5.6-2.5-7.2-5.2c-1.8-3.1-3-6.6-4.8-9.7c-5.6-9.7-9.8-11.5-20.7-8.4
			c-1.9,0.5-3.9,3.1-4.5,5.1c-2.6,8.4,3.7,13.8,7.3,20.1c0.7,1.3,0.9,4.4,0.3,4.7c-2.4,1.1-7,2.7-7.4,2c-3.7-6.3-6.6-13-10.1-19.5
			c-0.9-1.8-2.6-3.8-4.4-4.3c-4.7-1.4-9.7-2.3-14.6-2.7c-1.8-0.1-4.6,1.2-5.5,2.7c-2.6,4.4-4.5,9.2-6.6,14c-0.2,0.5,0.3,1.6,0.8,1.9
			c3.7,2.5,2.2,3.9,0.3,7.4C215.4,372.7,211.3,370.1,207.6,371z M284,504c-0.1-0.5-0.1-0.9-0.2-1.4c-4.9,0.4-9.9,0.7-14.8,1.4
			c-1.4,0.2-2.7,1.5-4,2.3c1.6,0.7,3.1,1.8,4.7,1.9c8.3,0.3,16.6-0.1,24.9,0.6c14.5,1.1,28.9,3.5,43.4,4c13.3,0.5,26.7-0.7,40-1.3
			c15.3-0.7,30.4-0.8,44.5,6.4c0.6,0.3,1.5,0.2,2.3,0.3c-0.3-0.8-0.4-1.7-0.8-2.4c-4.4-5.7-8.7-11.4-13.2-16.9
			c-0.7-0.8-2.6-1.4-3.6-1c-7.3,2.6-14.6,6.6-21.6-0.9c-0.5-0.5-1.8-0.2-2.8-0.1c-5.4,0.3-10.9,0.8-16.3,1
			c-9.1,0.4-18.1,0.6-27.2,1.2c-2.8,0.2-5.6,1.4-8.4,2c-4.3,1-8.5,2-12.9,2.6c-2.1,0.3-4.4,0.1-6.4-0.4c-2.3-0.6-4.6-2.7-6.7-2.5
			C297.9,501.5,291,502.9,284,504z M286.8,495.1C286.8,495.1,286.8,495,286.8,495.1c3-0.1,6.1-0.6,9,0c7.5,1.7,6.3-4.6,8-8.2
			c0.1-0.1-1.9-1.9-2.6-1.7c-8.9,2.3-17.7,4.9-26.5,7.4c-0.8,0.2-1.4,1.2-2,1.8c0.9,0.2,1.8,0.6,2.7,0.6
			C279.1,495.1,283,495.1,286.8,495.1z M363.6,490.8c5.7,0.4,9.3,0.7,8.5-4.8c-0.1-0.8,0.4-2,1-2.7c1-1.3,2.4-2.3,3.5-3.4
			c-2-0.3-4.3-1.4-6-0.8c-2.9,0.9-5.7,2.5-8,4.4c-1.4,1.2-2.7,3.9-2.3,5.5C360.7,490.2,363.6,490.8,363.6,490.8z M312,494.3
			c1,0.2,2,0.5,3,0.7c4.3-4.9,8.5-9.7,12.8-14.6c-0.8-0.4-1.7-1.1-2.5-1.1c-7.2,0.3-10.8,5.5-13.7,11.1
			C311.1,491.4,311.9,493,312,494.3z M344.3,477.8c-0.3-0.6-0.6-1.4-0.7-1.4c-1.1,0.2-2.4,0.3-3.1,1c-4,4.1-7.8,8.3-11.6,12.6
			c-0.8,1-1,2.5-1.5,3.7c1.4-0.2,3.3,0.2,4-0.6c3.3-3.6,6.4-7.4,9.5-11.2C342.1,480.6,343.2,479.2,344.3,477.8z M359.7,476.5
			c-1.7,0.3-3.1,0.1-3.7,0.7c-4,3.9-7.9,7.9-11.7,12c-0.9,1-1.6,2.2-2.4,3.3c1.9-0.2,4.4,0.3,5.5-0.7c3.7-3.6,7-7.7,10.3-11.6
			C358.3,479.5,358.6,478.5,359.7,476.5z M385,489.6c2.6-2.6,5.5-5.4,8.2-8.4c0.2-0.2-0.4-1.3-0.7-2c-3.2,1.4-6.4,2.8-9.5,4.4
			c-0.5,0.3-1.1,0.9-1.2,1.5c-0.3,1-0.8,2.2-0.5,3.1C381.5,488.7,383,488.8,385,489.6z M407.5,479.4c-2,0.9-4.4,1.5-6.1,2.8
			s-2.7,3.4-4,5.2c1.9-0.5,3.9-0.9,5.7-1.6c1.8-0.7,3.5-1.8,5.2-2.8c0.9-0.6,1.7-1.4,2.6-2.1C409.8,480.4,408.8,480,407.5,479.4z
			 M219.1,466.2c-2-2.3-3.3-3.8-4.6-5.4c-0.9,1.1-1.9,2.2-2.9,3.3c1.3,1,2.6,2.3,4.1,3C216.3,467.4,217.4,466.7,219.1,466.2z"/>
		<path d="M227.1,383.2c2.2,0,2.7-0.1,2.9,0c9,6.7,13.5-2.5,19.8-5.4c3-1.4,5.9-3.1,8.9-4.3c1-0.4,2.5,0.6,3.7,0.9
			c-0.4,1.4-0.4,3.4-1.4,4.2c-6.9,5.7-13.8,11.3-21,16.6c-1,0.7-3.3,0.4-4.7-0.2c-2.7-1-5.3-2.5-7.8-4c-2-1.1-3.9-2.4-5.8-3.6
			C223.9,385.8,226.1,384,227.1,383.2z"/>
	</g>
</g>
</svg>
