<?xml version="1.0" encoding="utf-8"?>
<!-- Generator: Adobe Illustrator 23.0.0, SVG Export Plug-In . SVG Version: 6.00 Build 0)  -->
<svg version="1.1" id="Layer_1" xmlns="http://www.w3.org/2000/svg" xmlns:xlink="http://www.w3.org/1999/xlink" x="0px" y="0px"
	 viewBox="0 0 595.28 841.89" style="enable-background:new 0 0 595.28 841.89;" xml:space="preserve">
<style type="text/css">
	.st0{fill:#FFFFFF;}
</style>
<g>
	<g>
		<path class="st0" d="M449,421.89c0,48.67-0.05,97.33,0.1,146c0.01,3.43-0.67,4.1-4.1,4.1c-97.33-0.12-194.67-0.12-292,0
			c-3.42,0-4.1-0.67-4.1-4.1c0.12-97.33,0.12-194.67,0-292c0-3.42,0.67-4.1,4.1-4.1c97.33,0.12,194.67,0.12,292,0
			c3.42,0,4.11,0.67,4.1,4.1C448.95,324.56,449,373.22,449,421.89z M185.84,463.59c-0.57,9.88,1.41,11.75,10.15,7.26
			c5.86-3.01,9.46-1.67,12.86,2.69c2.74,3.52,5.61,3.41,9.59,2.34c2.05-0.55,5.73,0.8,7.04,2.53c3.49,4.59,6.29,9.75,8.99,14.88
			c1.26,2.4,2.36,5.26,2.34,7.91c-0.08,9.36,8.34,16.52,17.8,15.88c11.39-0.77,22.87-1.02,34.27-0.49
			c10.52,0.49,20.95,2.75,31.46,3.35c6.35,0.36,12.81-1.5,19.2-1.42c13.69,0.17,27.42,1.94,41.04,1.26
			c18.88-0.94,36.23,2.71,52.77,11.71c2.12,1.15,6.85,0.23,8.69-1.51c2.49-2.37,3.04-5.79-0.75-9.25
			c-6.68-6.1-12.97-12.78-18.57-19.89c-8.47-10.76-8.16-11.01,4.43-15.52c0.93-0.33,2.2-0.53,2.67-1.23
			c1.92-2.85,7.27-6.6,2.18-9.16c-5.31-2.67-6.59-6.39-8.43-11.06c-4.9-12.43-10.96-24.41-15.53-36.95
			c-6.69-18.36-12.56-37.02-18.55-55.62c-0.47-1.46,0.83-3.45,1.21-5.22c0.29-1.35,1.1-3.29,0.51-3.99
			c-1.1-1.31-3.37-2.99-4.58-2.62c-10.05,3.08-19.89,6.84-29.95,9.9c-10.97,3.34-22.1,6.18-33.2,9.08c-0.42,0.11-1.96-1.64-1.8-2.14
			c1.71-5.12,3.79-10.11,5.41-15.25c0.31-0.99-0.62-3.22-1.52-3.59c-4.87-2.06-9.81-4.12-14.91-5.41
			c-8.23-2.09-17.11-3.24-20.42-12.61c-3.01-8.53-8.3-12.17-17.41-13.11c-9.35-0.97-14.29,0.3-19.27,8.76
			c-0.48,0.82-1.93,1.65-2.82,1.55c-7.74-0.88-15.94,0.43-22.74-5.27c-1.28-1.07-5.48-0.8-6.54,0.42
			c-2.87,3.29-5.44,7.19-6.91,11.29c-1.77,4.93-5.83,10.38,0.06,15.53c0.09,0.08-0.85,1.95-1.6,2.25c-2.14,0.85-4.54,2.08-6.65,1.8
			c-10.03-1.35-17.46,4.12-24.85,9.28c-2.67,1.87-5.61,5.29-5.91,8.26c-0.86,8.48-0.48,17.09-0.44,25.66
			c0.01,1.34,1.58,3.19,1.1,3.95c-4.53,7.05-9.45,13.85-14.02,20.88c-0.98,1.51-1.96,4.72-1.29,5.32c4.02,3.62,8.1,7.69,12.94,9.77
			C186.42,451.15,186.59,450.77,185.84,463.59z"/>
		<path d="M185.84,463.59c0.74-12.83,0.58-12.44-11.94-17.81c-4.85-2.08-8.92-6.15-12.94-9.77c-0.67-0.6,0.31-3.81,1.29-5.32
			c4.57-7.03,9.49-13.83,14.02-20.88c0.49-0.76-1.09-2.6-1.1-3.95c-0.04-8.56-0.42-17.17,0.44-25.66c0.3-2.97,3.24-6.39,5.91-8.26
			c7.39-5.16,14.82-10.63,24.85-9.28c2.11,0.28,4.51-0.95,6.65-1.8c0.75-0.3,1.68-2.17,1.6-2.25c-5.9-5.15-1.83-10.6-0.06-15.53
			c1.47-4.1,4.03-7.99,6.91-11.29c1.06-1.22,5.26-1.49,6.54-0.42c6.8,5.71,14.99,4.39,22.74,5.27c0.89,0.1,2.34-0.73,2.82-1.55
			c4.97-8.46,9.92-9.73,19.27-8.76c9.11,0.94,14.4,4.59,17.41,13.11c3.31,9.37,12.19,10.52,20.42,12.61
			c5.11,1.29,10.04,3.35,14.91,5.41c0.9,0.38,1.84,2.61,1.52,3.59c-1.62,5.14-3.71,10.13-5.41,15.25c-0.16,0.49,1.38,2.25,1.8,2.14
			c11.1-2.9,22.23-5.74,33.2-9.08c10.06-3.06,19.9-6.83,29.95-9.9c1.2-0.37,3.48,1.31,4.58,2.62c0.59,0.7-0.21,2.64-0.51,3.99
			c-0.38,1.77-1.68,3.77-1.21,5.22c6,18.6,11.86,37.26,18.55,55.62c4.57,12.54,10.63,24.52,15.53,36.95
			c1.84,4.66,3.11,8.39,8.43,11.06c5.09,2.56-0.26,6.3-2.18,9.16c-0.47,0.7-1.73,0.9-2.67,1.23c-12.59,4.52-12.9,4.76-4.43,15.52
			c5.6,7.11,11.89,13.79,18.57,19.89c3.79,3.46,3.24,6.88,0.75,9.25c-1.83,1.74-6.57,2.66-8.69,1.51
			c-16.54-8.99-33.89-12.65-52.77-11.71c-13.62,0.68-27.35-1.09-41.04-1.26c-6.4-0.08-12.85,1.78-19.2,1.42
			c-10.52-0.6-20.95-2.87-31.46-3.35c-11.4-0.53-22.88-0.27-34.27,0.49c-9.46,0.64-17.88-6.52-17.8-15.88
			c0.02-2.64-1.08-5.5-2.34-7.91c-2.7-5.13-5.49-10.29-8.99-14.88c-1.32-1.73-5-3.08-7.04-2.53c-3.98,1.07-6.85,1.18-9.59-2.34
			c-3.4-4.36-7-5.7-12.86-2.69C187.25,475.35,185.27,473.48,185.84,463.59z M214.31,429.79c-0.79,0.14-2.34,0.41-3.89,0.69
			c0.6,1.45,1.11,2.95,1.83,4.34c2.16,4.16,4.57,8.2,6.59,12.43c4.33,9.07,8.22,18.36,12.8,27.3c3.17,6.19,7.93,11.64,10.57,18
			c1.95,4.71,3.7,3.84,6.95,2.26c4.42-2.15,8.87-4.46,13.55-5.84c12.5-3.67,25.09-7.02,37.72-10.22c13.02-3.3,25.99-7.06,39.21-9.16
			c10.89-1.73,22.11-1.43,33.2-1.77c1.58-0.05,3.15,1.58,4.83,2.05c2.27,0.64,5.23,2.02,6.87,1.15c4.45-2.37,8.29-7.56,12.27,0.68
			c0.41,0.84,4.44,0.16,6.73-0.22c1.76-0.29,3.79-2.17,5.07-1.68c16.38,6.29,2.42-5.76,4.73-7.97c0.29-0.28-0.86-2-1.28-3.07
			c-6.12-15.67-12.41-31.29-18.29-47.05c-4.19-11.22-7.78-22.66-11.81-33.94c-0.46-1.29-2.22-3.27-3.04-3.12
			c-9.02,1.66-18.07,3.32-26.92,5.69c-12.22,3.27-24.28,7.14-36.41,10.79c-11.22,3.37-22.49,6.6-33.63,10.23
			c-14.5,4.73-28.97,9.6-43.3,14.82c-5.21,1.9-11.12,3.96-14.61,7.84C221.29,427.06,220.24,430.97,214.31,429.79z M207.65,371
			c-0.3-0.64-0.6-1.29-0.91-1.93c-6.28,2.78-12.81,5.11-18.76,8.47c-5.27,2.98-8.07,17.2-4.31,20.49c3.81,3.33,2.97,6.68,1.11,10.13
			c-3.7,6.85-7.87,13.46-11.45,20.37c-1.23,2.37-2.27,7.48-1.76,7.71c4.19,1.89,8.03,7.47,13.64,2.05c1.27-1.23,5-1.44,6.53-0.46
			c1.59,1.01,2.57,4.04,2.6,6.2c0.06,4.77-0.83,9.54-0.92,14.33c-0.03,1.4,1.23,3.93,2.06,4c1.65,0.15,3.63-0.77,5.09-1.78
			c1.95-1.35,3.67-3.11,5.25-4.9c1.85-2.09,5.39-5.49,4.85-6.46c-4.77-8.64-10.37-16.81-15.54-25.24c-1.58-2.58-2.57-5.53-3.83-8.31
			c2.21-0.98,4.62-3.01,6.58-2.65c2.05,0.39,4.75,2.8,5.26,4.82c1.53,5.98,4.34,4.34,7.97,2.34c5.59-3.09,11.17-6.3,17.08-8.67
			c6.2-2.48,12.82-3.88,19.17-6.02c19.51-6.56,38.88-13.55,58.49-19.76c8.68-2.75,8-10.24,9.79-16.37c2.24-7.65,0.71-9.35-7.18-8.86
			c-4.46,0.28-9.27,5.68-12.97-1.31c-5.21,2.2-5.61-2.48-7.16-5.19c-1.78-3.12-2.98-6.56-4.77-9.66
			c-5.65-9.74-9.75-11.53-20.73-8.44c-1.87,0.53-3.86,3.09-4.5,5.12c-2.63,8.4,3.73,13.78,7.26,20.14c0.72,1.3,0.87,4.4,0.31,4.67
			c-2.37,1.15-7.04,2.69-7.42,2.04c-3.72-6.27-6.62-13.03-10.05-19.49c-0.94-1.77-2.62-3.84-4.37-4.34
			c-4.73-1.36-9.66-2.28-14.57-2.67c-1.81-0.14-4.63,1.17-5.52,2.68c-2.62,4.41-4.54,9.25-6.6,13.98c-0.2,0.46,0.31,1.59,0.81,1.92
			c3.7,2.47,2.25,3.93,0.31,7.37C215.45,372.74,211.3,370.11,207.65,371z M284.02,503.96c-0.06-0.46-0.13-0.92-0.19-1.38
			c-4.94,0.44-9.9,0.73-14.8,1.41c-1.41,0.19-2.67,1.47-4.01,2.26c1.57,0.66,3.12,1.82,4.72,1.88c8.3,0.31,16.64-0.07,24.91,0.56
			c14.48,1.12,28.88,3.52,43.37,4.04c13.31,0.48,26.68-0.71,40.02-1.34c15.27-0.72,30.4-0.8,44.54,6.35
			c0.65,0.33,1.51,0.23,2.27,0.34c-0.27-0.8-0.35-1.74-0.84-2.37c-4.35-5.68-8.69-11.37-13.24-16.89c-0.68-0.82-2.62-1.4-3.61-1.05
			c-7.34,2.64-14.6,6.64-21.57-0.88c-0.45-0.49-1.84-0.18-2.78-0.13c-5.44,0.33-10.87,0.77-16.31,1.03
			c-9.06,0.43-18.13,0.61-27.17,1.2c-2.82,0.18-5.57,1.39-8.38,2.01c-4.27,0.95-8.53,1.99-12.85,2.64
			c-2.09,0.32-4.37,0.14-6.44-0.36c-2.32-0.56-4.58-2.67-6.72-2.47C297.93,501.47,290.99,502.86,284.02,503.96z M286.78,495.09
			c0-0.02,0-0.04,0-0.06c3,0,6.12-0.54,8.96,0.11c7.46,1.7,6.31-4.62,8-8.24c0.07-0.15-1.88-1.86-2.58-1.68
			c-8.86,2.33-17.67,4.86-26.47,7.43c-0.79,0.23-1.37,1.17-2.05,1.78c0.89,0.22,1.78,0.61,2.68,0.63
			C279.14,495.13,282.96,495.09,286.78,495.09z M363.62,490.81c5.72,0.37,9.34,0.71,8.53-4.83c-0.12-0.84,0.38-1.96,0.96-2.66
			c1.04-1.26,2.35-2.3,3.55-3.44c-2.02-0.33-4.26-1.36-6.01-0.82c-2.85,0.88-5.68,2.45-7.95,4.39c-1.42,1.22-2.74,3.88-2.34,5.46
			C360.67,490.18,363.61,490.8,363.62,490.81z M312.01,494.28c1.01,0.23,2.01,0.46,3.02,0.69c4.27-4.86,8.54-9.71,12.81-14.57
			c-0.83-0.39-1.67-1.15-2.48-1.11c-7.24,0.33-10.78,5.45-13.71,11.1C311.14,491.36,311.86,492.97,312.01,494.28z M344.29,477.83
			c-0.29-0.61-0.57-1.42-0.67-1.4c-1.06,0.24-2.4,0.31-3.07,1c-3.97,4.09-7.84,8.27-11.59,12.56c-0.83,0.95-1.01,2.47-1.49,3.72
			c1.36-0.16,3.26,0.2,3.97-0.56c3.34-3.57,6.36-7.44,9.49-11.21C342.06,480.59,343.16,479.21,344.29,477.83z M359.67,476.5
			c-1.73,0.29-3.12,0.09-3.74,0.7c-4,3.89-7.86,7.93-11.7,11.99c-0.93,0.98-1.58,2.21-2.37,3.32c1.88-0.19,4.43,0.33,5.5-0.7
			c3.73-3.58,6.98-7.68,10.34-11.63C358.33,479.45,358.64,478.45,359.67,476.5z M385.04,489.56c2.59-2.6,5.45-5.42,8.18-8.37
			c0.22-0.24-0.44-1.31-0.7-2c-3.17,1.44-6.35,2.84-9.48,4.35c-0.54,0.26-1.06,0.91-1.25,1.49c-0.34,1.01-0.76,2.22-0.46,3.12
			C381.5,488.71,382.97,488.83,385.04,489.56z M407.46,479.43c-2.05,0.9-4.39,1.47-6.12,2.82c-1.68,1.31-2.72,3.43-4.04,5.19
			c1.91-0.53,3.89-0.91,5.72-1.65c1.82-0.74,3.54-1.77,5.22-2.81c0.94-0.58,1.72-1.42,2.57-2.14
			C409.82,480.43,408.84,480.01,407.46,479.43z M219.08,466.18c-1.96-2.29-3.27-3.82-4.58-5.36c-0.95,1.09-1.9,2.17-2.85,3.26
			c1.34,1.04,2.59,2.26,4.07,3.04C216.27,467.42,217.36,466.7,219.08,466.18z"/>
		<path class="st0" d="M214.31,429.79c5.93,1.18,6.98-2.72,9.73-5.77c3.49-3.88,9.4-5.94,14.61-7.84
			c14.33-5.22,28.8-10.09,43.3-14.82c11.14-3.63,22.41-6.86,33.63-10.23c12.12-3.64,24.18-7.51,36.41-10.79
			c8.85-2.37,17.9-4.03,26.92-5.69c0.82-0.15,2.57,1.82,3.04,3.12c4.03,11.28,7.62,22.72,11.81,33.94
			c5.89,15.76,12.17,31.37,18.29,47.05c0.42,1.08,1.57,2.8,1.28,3.07c-2.31,2.21,11.65,14.27-4.73,7.97
			c-1.27-0.49-3.31,1.39-5.07,1.68c-2.29,0.37-6.32,1.06-6.73,0.22c-3.99-8.24-7.82-3.05-12.27-0.68c-1.64,0.87-4.59-0.51-6.87-1.15
			c-1.68-0.48-3.25-2.1-4.83-2.05c-11.08,0.34-22.31,0.04-33.2,1.77c-13.22,2.1-26.2,5.86-39.21,9.16
			c-12.63,3.2-25.22,6.55-37.72,10.22c-4.69,1.38-9.13,3.68-13.55,5.84c-3.24,1.58-5,2.45-6.95-2.26c-2.63-6.36-7.4-11.81-10.57-18
			c-4.58-8.94-8.46-18.23-12.8-27.3c-2.02-4.23-4.43-8.27-6.59-12.43c-0.72-1.39-1.23-2.89-1.83-4.34
			C211.97,430.2,213.52,429.93,214.31,429.79z"/>
		<path class="st0" d="M207.65,371c3.65-0.89,7.8,1.74,10.87-3.71c1.93-3.44,3.39-4.91-0.31-7.37c-0.5-0.33-1.01-1.47-0.81-1.92
			c2.06-4.73,3.98-9.56,6.6-13.98c0.9-1.51,3.71-2.82,5.52-2.68c4.91,0.39,9.84,1.31,14.57,2.67c1.75,0.5,3.43,2.57,4.37,4.34
			c3.43,6.46,6.33,13.21,10.05,19.49c0.38,0.65,5.05-0.89,7.42-2.04c0.56-0.27,0.41-3.37-0.31-4.67
			c-3.53-6.36-9.89-11.74-7.26-20.14c0.64-2.03,2.62-4.6,4.5-5.12c10.98-3.08,15.08-1.29,20.73,8.44c1.8,3.1,3,6.55,4.77,9.66
			c1.55,2.72,1.95,7.39,7.16,5.19c3.7,6.99,8.5,1.59,12.97,1.31c7.89-0.49,9.42,1.21,7.18,8.86c-1.79,6.13-1.11,13.63-9.79,16.37
			c-19.62,6.21-38.99,13.2-58.49,19.76c-6.35,2.14-12.97,3.53-19.17,6.02c-5.9,2.37-11.49,5.58-17.08,8.67
			c-3.63,2.01-6.44,3.64-7.97-2.34c-0.52-2.02-3.21-4.43-5.26-4.82c-1.96-0.37-4.37,1.67-6.58,2.65c1.26,2.78,2.25,5.73,3.83,8.31
			c5.16,8.43,10.76,16.6,15.54,25.24c0.54,0.98-3,4.37-4.85,6.46c-1.58,1.79-3.3,3.55-5.25,4.9c-1.47,1.02-3.44,1.93-5.09,1.78
			c-0.84-0.07-2.09-2.6-2.06-4c0.09-4.78,0.98-9.56,0.92-14.33c-0.03-2.16-1.01-5.19-2.6-6.2c-1.54-0.98-5.26-0.77-6.53,0.46
			c-5.61,5.42-9.45-0.16-13.64-2.05c-0.51-0.23,0.53-5.34,1.76-7.71c3.59-6.91,7.75-13.51,11.45-20.37c1.86-3.45,2.7-6.8-1.11-10.13
			c-3.76-3.29-0.96-17.51,4.31-20.49c5.95-3.36,12.48-5.69,18.76-8.47C207.05,369.72,207.35,370.36,207.65,371z M227.05,383.22
			c-1,0.82-3.13,2.57-5.27,4.32c1.93,1.21,3.82,2.49,5.81,3.6c2.55,1.42,5.11,2.91,7.82,3.96c1.41,0.55,3.68,0.93,4.67,0.19
			c7.14-5.34,14.12-10.91,20.97-16.63c0.96-0.8,0.93-2.78,1.35-4.21c-1.25-0.34-2.72-1.29-3.7-0.92c-3.08,1.16-5.95,2.86-8.94,4.27
			c-6.28,2.95-10.87,12.17-19.82,5.44C229.72,383.08,229.28,383.22,227.05,383.22z"/>
		<path class="st0" d="M284.02,503.96c6.97-1.11,13.91-2.5,20.92-3.14c2.14-0.2,4.4,1.91,6.72,2.47c2.06,0.5,4.35,0.68,6.44,0.36
			c4.32-0.65,8.58-1.68,12.85-2.64c2.81-0.63,5.56-1.83,8.38-2.01c9.05-0.58,18.12-0.77,27.17-1.2c5.44-0.26,10.87-0.7,16.31-1.03
			c0.94-0.06,2.33-0.36,2.78,0.13c6.96,7.52,14.22,3.52,21.57,0.88c0.98-0.35,2.93,0.22,3.61,1.05c4.55,5.52,8.89,11.2,13.24,16.89
			c0.49,0.63,0.57,1.58,0.84,2.37c-0.76-0.1-1.62-0.01-2.27-0.34c-14.14-7.15-29.27-7.07-44.54-6.35
			c-13.34,0.63-26.71,1.82-40.02,1.34c-14.48-0.52-28.89-2.93-43.37-4.04c-8.27-0.64-16.61-0.25-24.91-0.56
			c-1.59-0.06-3.15-1.23-4.72-1.88c1.33-0.78,2.59-2.06,4.01-2.26c4.91-0.67,9.86-0.97,14.8-1.41
			C283.89,503.05,283.96,503.5,284.02,503.96z"/>
		<path class="st0" d="M286.78,495.09c-3.82,0-7.64,0.04-11.45-0.03c-0.9-0.02-1.79-0.41-2.68-0.63c0.68-0.61,1.26-1.55,2.05-1.78
			c8.79-2.57,17.61-5.1,26.47-7.43c0.7-0.19,2.66,1.52,2.58,1.68c-1.69,3.62-0.55,9.94-8,8.24c-2.85-0.65-5.97-0.11-8.96-0.11
			C286.78,495.06,286.78,495.08,286.78,495.09z"/>
		<path class="st0" d="M363.62,490.81c-0.01,0-2.95-0.62-3.27-1.9c-0.39-1.58,0.92-4.24,2.34-5.46c2.27-1.94,5.09-3.51,7.95-4.39
			c1.75-0.54,3.99,0.49,6.01,0.82c-1.2,1.13-2.51,2.17-3.55,3.44c-0.57,0.7-1.08,1.82-0.96,2.66
			C372.96,491.52,369.34,491.17,363.62,490.81z"/>
		<path class="st0" d="M312.01,494.28c-0.15-1.31-0.87-2.92-0.36-3.89c2.93-5.64,6.47-10.77,13.71-11.1
			c0.81-0.04,1.66,0.72,2.48,1.11c-4.27,4.86-8.54,9.71-12.81,14.57C314.02,494.74,313.01,494.51,312.01,494.28z"/>
		<path class="st0" d="M344.29,477.83c-1.13,1.38-2.23,2.75-3.36,4.11c-3.13,3.77-6.14,7.64-9.49,11.21
			c-0.71,0.76-2.62,0.4-3.97,0.56c0.48-1.26,0.66-2.77,1.49-3.72c3.75-4.29,7.62-8.47,11.59-12.56c0.67-0.69,2.01-0.76,3.07-1
			C343.72,476.42,344,477.22,344.29,477.83z"/>
		<path class="st0" d="M359.67,476.5c-1.02,1.95-1.34,2.95-1.96,3.68c-3.36,3.96-6.61,8.05-10.34,11.63
			c-1.07,1.03-3.63,0.51-5.5,0.7c0.78-1.11,1.44-2.35,2.37-3.32c3.84-4.06,7.7-8.1,11.7-11.99
			C356.54,476.59,357.94,476.79,359.67,476.5z"/>
		<path class="st0" d="M385.04,489.56c-2.07-0.73-3.54-0.85-3.71-1.4c-0.29-0.9,0.13-2.11,0.46-3.12c0.19-0.58,0.71-1.23,1.25-1.49
			c3.13-1.51,6.32-2.91,9.48-4.35c0.25,0.68,0.92,1.76,0.7,2C390.49,484.14,387.63,486.96,385.04,489.56z"/>
		<path class="st0" d="M407.46,479.43c1.38,0.59,2.36,1,3.35,1.42c-0.85,0.72-1.63,1.56-2.57,2.14c-1.68,1.04-3.39,2.07-5.22,2.81
			c-1.83,0.74-3.81,1.11-5.72,1.65c1.32-1.76,2.36-3.88,4.04-5.19C403.07,480.9,405.41,480.33,407.46,479.43z"/>
		<path class="st0" d="M219.08,466.18c-1.72,0.52-2.81,1.24-3.36,0.94c-1.48-0.78-2.73-2-4.07-3.04c0.95-1.09,1.9-2.17,2.85-3.26
			C215.81,462.36,217.12,463.89,219.08,466.18z"/>
		<path d="M227.05,383.22c2.24,0,2.67-0.14,2.89,0.02c8.96,6.74,13.54-2.48,19.82-5.44c2.99-1.4,5.86-3.11,8.94-4.27
			c0.98-0.37,2.45,0.58,3.7,0.92c-0.43,1.43-0.39,3.41-1.35,4.21c-6.85,5.71-13.82,11.28-20.97,16.63
			c-0.99,0.74-3.26,0.36-4.67-0.19c-2.71-1.05-5.26-2.54-7.82-3.96c-1.99-1.11-3.88-2.39-5.81-3.6
			C223.91,385.8,226.05,384.04,227.05,383.22z"/>
	</g>
</g>
</svg>
