<?xml version="1.0" encoding="utf-8"?>
<!-- Generator: Adobe Illustrator 23.0.0, SVG Export Plug-In . SVG Version: 6.00 Build 0)  -->
<svg version="1.1" id="Layer_1" xmlns="http://www.w3.org/2000/svg" xmlns:xlink="http://www.w3.org/1999/xlink" x="0px" y="0px"
	 viewBox="0 0 595.28 841.89" style="enable-background:new 0 0 595.28 841.89;" xml:space="preserve">
<style type="text/css">
	.st0{fill:#FFFFFF;}
</style>
<g>
	<g>
		<path class="st0" d="M298.5,571.89c-48.5,0-97-0.05-145.5,0.1c-3.43,0.01-4.1-0.67-4.1-4.1c0.12-97.33,0.12-194.67,0-292
			c0-3.42,0.67-4.1,4.1-4.1c97.33,0.12,194.67,0.12,292,0c3.42,0,4.1,0.67,4.1,4.1c-0.12,97.33-0.12,194.67,0,292
			c0,3.42-0.67,4.11-4.1,4.1C396.17,571.84,347.33,571.89,298.5,571.89z M305.06,331.05c0.24-0.61,0.48-1.22,0.71-1.82
			c2.7,0.78,5.39,1.56,8.09,2.35c-1.9,1.93-3.59,4.13-5.72,5.76c-12.19,9.28-24.7,18.15-36.69,27.68
			c-12.46,9.9-24.29,20.58-36.75,30.46c-3.2,2.54-8.39,5.54-11.59,4.61c-12.38-3.6-24.33-8.66-36.4-13.29
			c-1.26-0.48-2.25-1.68-3.36-2.55c1.02-1.01,1.9-2.23,3.08-3.01c17.18-11.51,34.21-23.25,51.67-34.32
			c10.97-6.95,22.46-13.12,33.96-19.16c7.02-3.69,14.65-6.22,21.67-9.91c1.48-0.78,2.19-4.43,1.92-6.59
			c-0.14-1.13-3.35-2.85-4.91-2.61c-3.38,0.51-6.9,1.61-9.83,3.35c-14.98,8.92-29.98,17.83-44.62,27.29
			c-20.68,13.36-41.07,27.15-61.5,40.88c-1.93,1.3-4.4,3.39-4.63,5.34c-0.95,8.39-1.15,16.87-1.64,25.31
			c-0.76,13.38-1.32,26.77-2.36,40.12c-0.93,11.97-3.03,23.88-3.42,35.86c-0.27,8.35,1.28,16.79,2.53,25.11
			c0.18,1.21,3.09,2.51,4.91,2.88c6.14,1.26,12.44,1.77,18.53,3.21c8.72,2.06,17.29,4.78,25.97,7.04
			c11.52,3.01,23.13,5.64,34.59,8.84c6.51,1.82,12.63,5.63,19.2,6.49c12.8,1.67,25.46,2.99,37.35,8.71
			c1.91,0.92,7.47-1.22,8.15-3.11c2.37-6.53,8.52-7.13,13.16-9.6c13.14-7.01,27.24-12.34,39.93-20.03
			c20.72-12.58,42.57-22.63,64.58-32.52c1.79-0.8,3.58-3.8,3.65-5.83c0.25-8.02-0.29-16.06-0.36-24.09
			c-0.11-12.66-0.33-25.33-0.02-37.98c0.31-12.41,1.33-24.8,1.85-37.21c0.16-3.89,1.25-9.54-0.8-11.38
			c-4.94-4.45-11.14-8.03-17.43-10.35c-16.32-6.01-32.96-11.14-49.46-16.63c-8.09-2.69-16.37-4.95-24.22-8.22
			c-6.46-2.68-11.3-8.33-18.82-9.59c-7.13-1.19-13.91-4.35-21.03-5.69c-2.76-0.52-6.56,0.91-8.83,2.75
			c-1.15,0.93-0.92,5.67,0.4,7.07C298.62,328.85,302.15,329.66,305.06,331.05z"/>
		<path d="M305.06,331.05c-2.91-1.39-6.43-2.2-8.51-4.39c-1.32-1.39-1.55-6.13-0.4-7.07c2.27-1.84,6.06-3.27,8.83-2.75
			c7.12,1.34,13.9,4.49,21.03,5.69c7.51,1.26,12.36,6.9,18.82,9.59c7.86,3.26,16.13,5.53,24.22,8.22
			c16.51,5.49,33.15,10.62,49.46,16.63c6.29,2.32,12.49,5.9,17.43,10.35c2.04,1.84,0.96,7.49,0.8,11.38
			c-0.51,12.41-1.53,24.8-1.85,37.21c-0.32,12.65-0.09,25.32,0.02,37.98c0.07,8.03,0.61,16.07,0.36,24.09
			c-0.06,2.03-1.86,5.03-3.65,5.83c-22.01,9.89-43.86,19.94-64.58,32.52c-12.68,7.7-26.79,13.03-39.93,20.03
			c-4.64,2.48-10.8,3.08-13.16,9.6c-0.68,1.88-6.24,4.03-8.15,3.11c-11.89-5.72-24.55-7.04-37.35-8.71
			c-6.57-0.86-12.69-4.67-19.2-6.49c-11.46-3.2-23.08-5.84-34.59-8.84c-8.68-2.27-17.25-4.98-25.97-7.04
			c-6.09-1.44-12.39-1.95-18.53-3.21c-1.83-0.37-4.73-1.67-4.91-2.88c-1.25-8.32-2.8-16.76-2.53-25.11
			c0.39-11.98,2.49-23.89,3.42-35.86c1.04-13.36,1.6-26.75,2.36-40.12c0.48-8.44,0.68-16.92,1.64-25.31
			c0.22-1.95,2.7-4.04,4.63-5.34c20.43-13.73,40.83-27.53,61.5-40.88c14.64-9.46,29.64-18.37,44.62-27.29
			c2.93-1.74,6.45-2.84,9.83-3.35c1.57-0.24,4.77,1.48,4.91,2.61c0.27,2.16-0.44,5.81-1.92,6.59c-7.02,3.69-14.65,6.22-21.67,9.91
			c-11.5,6.05-23,12.21-33.96,19.16c-17.46,11.07-34.49,22.81-51.67,34.32c-1.17,0.79-2.06,2-3.08,3.01
			c1.11,0.87,2.1,2.06,3.36,2.55c12.07,4.63,24.03,9.69,36.4,13.29c3.2,0.93,8.38-2.07,11.59-4.61
			c12.46-9.88,24.3-20.57,36.75-30.46c11.99-9.53,24.5-18.4,36.69-27.68c2.13-1.62,3.83-3.82,5.72-5.76
			c-2.7-0.78-5.39-1.56-8.09-2.35C305.53,329.84,305.3,330.45,305.06,331.05z M314.87,439.72c-0.32,2.2-0.88,5.6-1.32,9.02
			c-0.96,7.34-1.98,14.68-2.75,22.05c-0.98,9.3-2.62,18.65-2.36,27.93c0.24,8.84,2.7,17.61,3.92,26.44
			c1.25,8.97,3.77,10.61,11.83,6.75c8.38-4.01,16.78-8.02,24.9-12.52c9.57-5.3,18.89-11.05,28.24-16.75
			c13.13-8.01,26.04-16.39,39.34-24.1c3.8-2.2,4.75-4.52,4.94-8.6c0.45-9.66,1.73-19.28,2.41-28.93c0.41-5.84,0.42-11.72,0.41-17.58
			c-0.01-4.43-0.54-8.86-0.45-13.28c0.16-8.53,0.7-17.05,0.8-25.58c0.01-1.28-1.58-3.73-2.33-3.69c-6.69,0.38-13.9-0.2-19.9,2.17
			c-11.14,4.4-21.59,10.56-32.29,16.07c-7.83,4.03-15.62,8.15-23.39,12.31c-6.52,3.49-13,7.04-19.44,10.67
			c-4.41,2.49-9.18,4.68-12.83,8.05C313.25,431.4,314.65,435.61,314.87,439.72z M178.85,414.61c-1.07,9.94-3.38,26.62-4.52,43.38
			c-0.87,12.8,0.13,25.72-0.51,38.55c-0.32,6.36,2.87,7.88,7.85,9.09c7.23,1.75,14.42,3.72,21.49,6.02
			c12.81,4.16,25.02,10.61,39.09,9.69c0.93-0.06,1.96,0.34,2.85,0.74c16.8,7.48,34.88,9.86,52.69,13.33
			c3.29,0.64,6.21,0.26,6.27-4.06c0.06-4.21,0.8-8.71-0.38-12.59c-3.25-10.65-3.93-21.28-2.87-32.3c1.08-11.26,0.79-22.67,2.09-33.9
			c1.34-11.53-4.12-19.97-15.47-22.23c-3.19-0.63-6.32-1.91-9.26-3.33c-6.95-3.35-8.76-2.91-10.52,4.47
			c-2.82,11.79-5.37,23.66-7.58,35.59c-1.31,7.04-5.47,9.65-12.17,6.51c-2.35-1.1-4.37-2.91-6.68-4.12
			c-6.78-3.57-13.37-7.72-20.53-10.25c-5.39-1.9-7.23-5.16-6.7-9.87c0.75-6.68,2.84-13.23,3.43-19.91c0.49-5.47,1.79-13-1.08-16.2
			c-5.93-6.62-13.87-12.07-21.95-15.99C179.67,390.1,178.6,387.38,178.85,414.61z M420,368.31c-2.06-1.02-3.13-1.74-4.3-2.08
			c-2.03-0.59-4.2-0.71-6.18-1.41c-9.76-3.46-19.43-7.23-29.27-10.43c-1.71-0.56-5.69,0.68-5.95,1.74
			c-1.31,5.36-5.01,6.99-9.68,7.74c-6.93,1.11-14.11,1.42-20.75,3.49c-8.13,2.53-16.32,5.65-23.56,10.03
			c-16.92,10.23-33.37,21.25-49.79,32.28c-1.75,1.17-2.22,4.45-2.84,6.87c-0.09,0.36,2.2,1.71,3.52,1.99
			c10.31,2.24,20.63,4.39,30.99,6.4c1.59,0.31,3.59,0.24,4.97-0.47c9.13-4.74,17.97-10.06,27.21-14.54
			c27.03-13.1,54.22-25.9,81.33-38.84C416.94,370.46,418.04,369.58,420,368.31z M334.03,337.13c-2.81,0.43-3.92,0.33-4.75,0.77
			c-11.01,5.85-22.24,11.36-32.89,17.82c-7.68,4.66-14.78,10.35-21.76,16.05c-10.36,8.46-20.44,17.28-30.54,26.06
			c-3.89,3.37-1.4,6.01,1.9,6.96c6.61,1.89,13.09,2.25,19.48-2.02c16.13-10.77,32.32-21.51,49.01-31.39
			c10.04-5.95,20.98-10.41,31.65-15.23c4.3-1.94,9.01-2.94,13.45-4.61c1.26-0.47,2.23-1.76,3.22-2.79c0.1-0.1-0.49-1.28-0.94-1.45
			C352.11,343.69,342.33,340.15,334.03,337.13z M223.79,444.19c0.91,1.79,1.77,6.29,4.46,8.18c5.49,3.85,11.99,6.26,18.03,9.35
			c3.87,1.98,4.98,0.86,5.57-3.41c1.23-8.83,3.77-17.5,4.7-26.35c0.32-3.02-1.86-7.05-4.15-9.41c-3.19-3.29-7.71-5.24-11.38-8.12
			c-4.29-3.37-11.78-3.43-12.47,0.35C226.9,423.77,225.6,432.83,223.79,444.19z"/>
		<path class="st0" d="M314.87,439.72c-0.22-4.11-1.62-8.32-0.28-9.55c3.66-3.36,8.42-5.55,12.83-8.05
			c6.44-3.64,12.92-7.18,19.44-10.67c7.77-4.16,15.55-8.28,23.39-12.31c10.7-5.51,21.15-11.67,32.29-16.07
			c6-2.37,13.21-1.8,19.9-2.17c0.74-0.04,2.34,2.41,2.33,3.69c-0.1,8.53-0.64,17.05-0.8,25.58c-0.08,4.42,0.45,8.85,0.45,13.28
			c0.01,5.86,0,11.74-0.41,17.58c-0.68,9.65-1.96,19.27-2.41,28.93c-0.19,4.08-1.15,6.4-4.94,8.6c-13.3,7.71-26.21,16.09-39.34,24.1
			c-9.34,5.7-18.67,11.45-28.24,16.75c-8.12,4.5-16.52,8.51-24.9,12.52c-8.05,3.85-10.58,2.21-11.83-6.75
			c-1.23-8.84-3.68-17.6-3.92-26.44c-0.26-9.28,1.38-18.63,2.36-27.93c0.78-7.36,1.8-14.7,2.75-22.05
			C313.99,445.33,314.55,441.92,314.87,439.72z"/>
		<path class="st0" d="M178.85,414.61c-0.25-27.23,0.82-24.51,15.55-17.38c8.09,3.92,16.02,9.37,21.95,15.99
			c2.87,3.2,1.57,10.73,1.08,16.2c-0.6,6.69-2.69,13.23-3.43,19.91c-0.53,4.71,1.32,7.97,6.7,9.87c7.16,2.53,13.75,6.68,20.53,10.25
			c2.31,1.22,4.33,3.02,6.68,4.12c6.69,3.14,10.86,0.53,12.17-6.51c2.22-11.92,4.76-23.79,7.58-35.59
			c1.77-7.38,3.58-7.82,10.52-4.47c2.94,1.42,6.08,2.69,9.26,3.33c11.35,2.26,16.81,10.7,15.47,22.23
			c-1.31,11.23-1.01,22.63-2.09,33.9c-1.06,11.02-0.38,21.65,2.87,32.3c1.18,3.88,0.44,8.37,0.38,12.59
			c-0.06,4.32-2.98,4.7-6.27,4.06c-17.81-3.47-35.89-5.85-52.69-13.33c-0.89-0.4-1.92-0.8-2.85-0.74
			c-14.07,0.92-26.28-5.53-39.09-9.69c-7.07-2.3-14.26-4.27-21.49-6.02c-4.99-1.21-8.17-2.72-7.85-9.09
			c0.64-12.83-0.37-25.75,0.51-38.55C175.47,441.23,177.78,424.55,178.85,414.61z"/>
		<path class="st0" d="M420,368.31c-1.96,1.26-3.06,2.15-4.3,2.74c-27.11,12.95-54.3,25.74-81.33,38.84
			c-9.25,4.48-18.09,9.8-27.21,14.54c-1.38,0.72-3.39,0.78-4.97,0.47c-10.35-2.01-20.68-4.16-30.99-6.4
			c-1.32-0.29-3.61-1.63-3.52-1.99c0.62-2.42,1.09-5.7,2.84-6.87c16.42-11.03,32.87-22.05,49.79-32.28
			c7.25-4.38,15.44-7.5,23.56-10.03c6.64-2.06,13.81-2.38,20.75-3.49c4.67-0.74,8.37-2.37,9.68-7.74c0.26-1.06,4.24-2.3,5.95-1.74
			c9.85,3.21,19.51,6.97,29.27,10.43c1.98,0.7,4.15,0.83,6.18,1.41C416.87,366.57,417.94,367.29,420,368.31z"/>
		<path class="st0" d="M334.03,337.13c8.3,3.02,18.08,6.56,27.82,10.17c0.46,0.17,1.04,1.35,0.94,1.45
			c-0.99,1.03-1.96,2.32-3.22,2.79c-4.43,1.67-9.15,2.67-13.45,4.61c-10.67,4.82-21.61,9.29-31.65,15.23
			c-16.68,9.88-32.87,20.62-49.01,31.39c-6.39,4.27-12.87,3.91-19.48,2.02c-3.29-0.94-5.78-3.58-1.9-6.96
			c10.11-8.77,20.18-17.6,30.54-26.06c6.98-5.7,14.08-11.39,21.76-16.05c10.65-6.46,21.87-11.97,32.89-17.82
			C330.11,337.46,331.22,337.56,334.03,337.13z"/>
		<path class="st0" d="M223.79,444.19c1.81-11.36,3.11-20.42,4.76-29.42c0.7-3.78,8.18-3.71,12.47-0.35
			c3.67,2.88,8.19,4.83,11.38,8.12c2.29,2.36,4.47,6.39,4.15,9.41c-0.93,8.85-3.47,17.51-4.7,26.35c-0.59,4.27-1.7,5.39-5.57,3.41
			c-6.04-3.09-12.54-5.49-18.03-9.35C225.56,450.48,224.7,445.98,223.79,444.19z"/>
	</g>
</g>
</svg>
