<?xml version="1.0" encoding="utf-8"?>
<!-- Generator: Adobe Illustrator 23.0.0, SVG Export Plug-In . SVG Version: 6.00 Build 0)  -->
<svg version="1.1" id="Layer_1" xmlns="http://www.w3.org/2000/svg" xmlns:xlink="http://www.w3.org/1999/xlink" x="0px" y="0px"
	 viewBox="0 0 595.3 841.9" style="enable-background:new 0 0 595.3 841.9;" xml:space="preserve">
<g>
	<g>
		<path d="M305.1,331c-2.9-1.4-6.4-2.2-8.5-4.4c-1.3-1.4-1.5-6.1-0.4-7.1c2.3-1.8,6.1-3.3,8.8-2.8c7.1,1.3,13.9,4.5,21,5.7
			c7.5,1.3,12.4,6.9,18.8,9.6c7.9,3.3,16.1,5.5,24.2,8.2c16.5,5.5,33.1,10.6,49.5,16.6c6.3,2.3,12.5,5.9,17.4,10.4
			c2,1.8,1,7.5,0.8,11.4c-0.5,12.4-1.5,24.8-1.9,37.2c-0.3,12.6-0.1,25.3,0,38c0.1,8,0.6,16.1,0.4,24.1c-0.1,2-1.9,5-3.6,5.8
			c-22,9.9-43.9,19.9-64.6,32.5c-12.7,7.7-26.8,13-39.9,20c-4.6,2.5-10.8,3.1-13.2,9.6c-0.7,1.9-6.2,4-8.1,3.1
			c-11.9-5.7-24.5-7-37.4-8.7c-6.6-0.9-12.7-4.7-19.2-6.5c-11.5-3.2-23.1-5.8-34.6-8.8c-8.7-2.3-17.2-5-26-7
			c-6.1-1.4-12.4-2-18.5-3.2c-1.8-0.4-4.7-1.7-4.9-2.9c-1.2-8.3-2.8-16.8-2.5-25.1c0.4-12,2.5-23.9,3.4-35.9
			c1-13.4,1.6-26.8,2.4-40.1c0.5-8.4,0.7-16.9,1.6-25.3c0.2-2,2.7-4,4.6-5.3c20.4-13.7,40.8-27.5,61.5-40.9
			c14.6-9.5,29.6-18.4,44.6-27.3c2.9-1.7,6.5-2.8,9.8-3.4c1.6-0.2,4.8,1.5,4.9,2.6c0.3,2.2-0.4,5.8-1.9,6.6
			c-7,3.7-14.6,6.2-21.7,9.9c-11.5,6-23,12.2-34,19.2c-17.5,11.1-34.5,22.8-51.7,34.3c-1.2,0.8-2.1,2-3.1,3c1.1,0.9,2.1,2.1,3.4,2.5
			c12.1,4.6,24,9.7,36.4,13.3c3.2,0.9,8.4-2.1,11.6-4.6c12.5-9.9,24.3-20.6,36.8-30.5c12-9.5,24.5-18.4,36.7-27.7
			c2.1-1.6,3.8-3.8,5.7-5.8c-2.7-0.8-5.4-1.6-8.1-2.4C305.5,329.8,305.3,330.5,305.1,331z M314.9,439.7c-0.3,2.2-0.9,5.6-1.3,9
			c-1,7.3-2,14.7-2.8,22c-1,9.3-2.6,18.6-2.4,27.9c0.2,8.8,2.7,17.6,3.9,26.4c1.2,9,3.8,10.6,11.8,6.8c8.4-4,16.8-8,24.9-12.5
			c9.6-5.3,18.9-11,28.2-16.8c13.1-8,26-16.4,39.3-24.1c3.8-2.2,4.8-4.5,4.9-8.6c0.5-9.7,1.7-19.3,2.4-28.9
			c0.4-5.8,0.4-11.7,0.4-17.6c0-4.4-0.5-8.9-0.5-13.3c0.2-8.5,0.7-17,0.8-25.6c0-1.3-1.6-3.7-2.3-3.7c-6.7,0.4-13.9-0.2-19.9,2.2
			c-11.1,4.4-21.6,10.6-32.3,16.1c-7.8,4-15.6,8.1-23.4,12.3c-6.5,3.5-13,7-19.4,10.7c-4.4,2.5-9.2,4.7-12.8,8
			C313.2,431.4,314.6,435.6,314.9,439.7z M178.9,414.6c-1.1,9.9-3.4,26.6-4.5,43.4c-0.9,12.8,0.1,25.7-0.5,38.5
			c-0.3,6.4,2.9,7.9,7.9,9.1c7.2,1.8,14.4,3.7,21.5,6c12.8,4.2,25,10.6,39.1,9.7c0.9-0.1,2,0.3,2.9,0.7c16.8,7.5,34.9,9.9,52.7,13.3
			c3.3,0.6,6.2,0.3,6.3-4.1c0.1-4.2,0.8-8.7-0.4-12.6c-3.2-10.6-3.9-21.3-2.9-32.3c1.1-11.3,0.8-22.7,2.1-33.9
			c1.3-11.5-4.1-20-15.5-22.2c-3.2-0.6-6.3-1.9-9.3-3.3c-7-3.4-8.8-2.9-10.5,4.5c-2.8,11.8-5.4,23.7-7.6,35.6
			c-1.3,7-5.5,9.6-12.2,6.5c-2.4-1.1-4.4-2.9-6.7-4.1c-6.8-3.6-13.4-7.7-20.5-10.2c-5.4-1.9-7.2-5.2-6.7-9.9
			c0.8-6.7,2.8-13.2,3.4-19.9c0.5-5.5,1.8-13-1.1-16.2c-5.9-6.6-13.9-12.1-21.9-16C179.7,390.1,178.6,387.4,178.9,414.6z M420,368.3
			c-2.1-1-3.1-1.7-4.3-2.1c-2-0.6-4.2-0.7-6.2-1.4c-9.8-3.5-19.4-7.2-29.3-10.4c-1.7-0.6-5.7,0.7-6,1.7c-1.3,5.4-5,7-9.7,7.7
			c-6.9,1.1-14.1,1.4-20.8,3.5c-8.1,2.5-16.3,5.6-23.6,10c-16.9,10.2-33.4,21.2-49.8,32.3c-1.8,1.2-2.2,4.5-2.8,6.9
			c-0.1,0.4,2.2,1.7,3.5,2c10.3,2.2,20.6,4.4,31,6.4c1.6,0.3,3.6,0.2,5-0.5c9.1-4.7,18-10.1,27.2-14.5c27-13.1,54.2-25.9,81.3-38.8
			C416.9,370.5,418,369.6,420,368.3z M334,337.1c-2.8,0.4-3.9,0.3-4.8,0.8c-11,5.9-22.2,11.4-32.9,17.8c-7.7,4.7-14.8,10.4-21.8,16
			c-10.4,8.5-20.4,17.3-30.5,26.1c-3.9,3.4-1.4,6,1.9,7c6.6,1.9,13.1,2.2,19.5-2c16.1-10.8,32.3-21.5,49-31.4
			c10-6,21-10.4,31.6-15.2c4.3-1.9,9-2.9,13.5-4.6c1.3-0.5,2.2-1.8,3.2-2.8c0.1-0.1-0.5-1.3-0.9-1.5
			C352.1,343.7,342.3,340.1,334,337.1z M223.8,444.2c0.9,1.8,1.8,6.3,4.5,8.2c5.5,3.9,12,6.3,18,9.4c3.9,2,5,0.9,5.6-3.4
			c1.2-8.8,3.8-17.5,4.7-26.4c0.3-3-1.9-7-4.1-9.4c-3.2-3.3-7.7-5.2-11.4-8.1c-4.3-3.4-11.8-3.4-12.5,0.4
			C226.9,423.8,225.6,432.8,223.8,444.2z"/>
	</g>
</g>
</svg>
