<?xml version="1.0" encoding="utf-8"?>
<!-- Generator: Adobe Illustrator 23.0.0, SVG Export Plug-In . SVG Version: 6.00 Build 0)  -->
<svg version="1.1" id="Layer_1" xmlns="http://www.w3.org/2000/svg" xmlns:xlink="http://www.w3.org/1999/xlink" x="0px" y="0px"
	 viewBox="0 0 595.3 841.9" style="enable-background:new 0 0 595.3 841.9;" xml:space="preserve">
<g>
	<g>
		<path d="M436.9,500.6c2,10.4,4.5,20.8,5.8,31.3c0.4,3.6-2.2,7.7-4,11.3c-1.4,2.8-3.5,5.4-5.7,7.7c-0.9,0.9-3.1,1.6-4.3,1.1
			c-9.6-3.3-18.9-8.9-28.8-10c-22.7-2.6-45.6-3.4-68.4-4.3c-24.1-1-48.3-1.9-72.4-1.3c-8.3,0.2-16.5,5.1-24.8,7.8
			c-1.5,0.5-3.7,1.5-4.4,1c-3.1-2.6-5.7-5.7-8.4-8.7c-2.5-2.7-4.5-6.4-7.6-8.2c-10.9-6.2-22-12-33.3-17.4
			c-5.1-2.4-10.9-4.8-16.4-4.9c-10.2-0.2-10.1-5.8-8.6-12.9c4.4-20.5,8.3-41.1,13.4-61.5c2.4-9.8,7.3-19,10.5-28.6
			c1.4-4.2,1.1-8.9,2.2-13.2c2.5-10,5.1-19.9,8.4-29.6c0.7-2.2,4.4-5.2,6.1-4.9c3.6,0.7,8.2,2.5,9.9,5.4c4.4,7.7,9.4,9.1,16.6,4.6
			c1-0.6,2.6-0.8,3.9-0.6c9.7,0.8,14.3-1.6,15.9-13.2c1.2-8.7,9.7-16.3,14.9-24.4c9.1-14,14.8-30.7,31.6-38.6
			c9.3-4.4,20.3,0.4,23.7,9.9c0.8,2.2,5.4,4.8,7.8,4.4c7.9-1.3,23.4,9,26.4,20c2.8,10.3,3.3,21.2,6.4,31.5c1,3.2,6.7,5.4,10.7,6.9
			c1.8,0.7,4.7-1.5,7-2.6c1.3-0.7,3-3,3.5-2.7c7,4.1,14.4,7.8,20.5,13c4.6,4,6.8,10.7,11.2,15c7.4,7.3,11.1,14.6,12.6,25.8
			c3.2,24.5,10.3,48.5,15.8,72.7c1.3,5.9,2.5,11.9,3.8,17.8C438,500.4,437.4,500.5,436.9,500.6z M230.4,499.8c-0.6,0-1.1,0-1.7,0
			c0.6,6.1,0.8,12.3,1.9,18.3c0.6,3.1,2.8,8.2,4.5,8.3c18.2,0.5,36.3-0.3,54.5,0.3c31.4,1,62.7,2.8,94,4.3
			c14.7,0.7,29.5,1.6,44.2,2.2c0.6,0,2-1.6,1.9-2.3c-2.1-16.3-3.7-32.7-6.7-48.9c-3.7-19.8-8.1-39.5-13.3-59
			c-1.4-5.2-6.1-11.3-10.9-13.3c-7.8-3.2-16.8-3.8-25.3-4.9c-6.8-0.9-14.2-2.8-20.4-0.9c-6.8,2.1-11.7,3.8-16.4-2.7
			c-0.5-0.7-2.5-0.5-3.7-0.4c-16.1,1.6-32.2,3.4-48.4,4.9c-3,0.3-6.1-1.2-9.1-1.2c-3.6,0-7.4,0.4-11,1c-4.5,0.8-8.8,3.1-13.2,3.1
			c-6.6-0.1-14.5-5.9-18.1,4.5c-1.7,4.8-2.8,10-2.8,15C230.2,452.2,230.4,476,230.4,499.8z M220.3,405.3c1.5-0.4,3.1-0.8,4.6-1.2
			c-2.5-4.2-4.7-8.6-7.7-12.5c-3.6-4.5-8.1-8.2-11.7-12.7c-4.5-5.7-7.7-6.1-10.3,1.3c-1.9,5.5-4.6,10.8-5.9,16.4
			c-7.2,30.7-14.1,61.4-20.9,92.2c-0.4,1.6,0.4,4.5,1.6,5.2c14.1,8.1,28.3,16,42.5,23.9c2,1.1,4.7,2.8,6.1,2.2
			c1.6-0.7,2.9-3.8,2.9-5.9c-0.2-18.5-0.9-37-1.2-55.5C220.1,440.9,220.3,423.1,220.3,405.3z M324.1,394.6c0.5,0.9,0.9,1.8,1.4,2.8
			c4.4-2.6,11-4.2,12.6-8c2.4-5.6,1.5-12.7,1.5-19.1c0-1.6-1.5-4.5-2.4-4.5c-9.5-0.5-19.2-1.1-28.7-0.4c-13.3,1-17.4,11.2-9.8,22.9
			c3.3,5,6,10.6,13.8,8.4C316.3,395.6,320.3,395.3,324.1,394.6z M355.7,366.2c-1.5,7.2-3,11.2-3,15.1c0,6.1-3.3,14.2,8.8,13.8
			c7.2-0.2,14.5,3.2,21.9,3.7c5.3,0.3,10.7-1.5,16.1-2.4c-2.3-4.9-3.3-12-7.1-14.2C382,376.3,370.5,372.5,355.7,366.2z M261,393.2
			c0.2,0.7,0.3,1.4,0.5,2.1c3.7-1.3,10-1.9,10.5-4c1.2-5,0.4-10.9-0.8-16.1c-0.5-2.3-4.2-5.8-6-5.5c-13.7,2-27.3,4.6-40.9,7.3
			c-1.1,0.2-2.7,3.2-2.6,3.3c6,5.2,11.5,12.1,18.5,14.6C246.2,397,254,393.9,261,393.2z M259.4,363.9c1.8,0.3,3.5,0.7,5.3,1
			c3.2-2.6,7.8-4.6,9.2-8c3.1-7.3,4.8-15.3,6.8-23.1c2.7-10.7,7.5-19.2,19.8-20.7c1.3-0.2,3.4-2.4,3.4-2.5c-2.4-3.6-4.4-8.8-7.8-9.9
			c-2.9-1-9.3,1.6-10.9,4.4c-9.6,16.6-18.5,33.7-27.1,50.9C257,357.9,258.9,361.2,259.4,363.9z M317.8,348.3
			c-0.4,12.2,9.1,7.4,15.1,8.3c1.5,0.2,5-2.2,4.9-2.9c-1.5-7-2.9-14.3-5.8-20.7c-1.8-3.9-6.4-6.5-9.8-9.8c-1.5,2.5-3.9,4.8-4.2,7.4
			C317.4,336.5,317.8,342.4,317.8,348.3z M308.3,352.9c-1.8-3.6-2.9-5.8-3.9-8c-1.5,4.2-3.2,8.3-4.5,12.5c-0.2,0.5,1.6,1.7,2.5,2.5
			C304.3,357.6,306.2,355.4,308.3,352.9z"/>
	</g>
</g>
</svg>
