<?xml version="1.0" encoding="utf-8"?>
<!-- Generator: Adobe Illustrator 23.0.0, SVG Export Plug-In . SVG Version: 6.00 Build 0)  -->
<svg version="1.1" id="Layer_1" xmlns="http://www.w3.org/2000/svg" xmlns:xlink="http://www.w3.org/1999/xlink" x="0px" y="0px"
	 viewBox="0 0 595.28 841.89" style="enable-background:new 0 0 595.28 841.89;" xml:space="preserve">
<style type="text/css">
	.st0{fill:#FFFFFF;}
</style>
<g>
	<g>
		<path class="st0" d="M449,421.89c0,48.83,0.02,97.67-0.15,146.5c0,1.17-2.19,3.35-3.35,3.36c-97.67,0.16-195.33,0.16-293,0
			c-1.17,0-3.35-2.19-3.36-3.36c-0.16-97.67-0.16-195.33,0-293c0-1.17,2.19-3.35,3.35-3.36c97.67-0.16,195.33-0.16,293,0
			c1.17,0,3.35,2.18,3.35,3.36C449.02,324.22,449,373.06,449,421.89z M436.91,500.63c0.52-0.1,1.03-0.2,1.55-0.3
			c-1.27-5.93-2.48-11.87-3.82-17.77c-5.5-24.22-12.67-48.21-15.84-72.72c-1.45-11.21-5.17-18.51-12.57-25.79
			c-4.42-4.34-6.62-11.04-11.25-15.04c-6.07-5.24-13.49-8.93-20.49-13.01c-0.46-0.27-2.16,2.02-3.49,2.69
			c-2.29,1.14-5.24,3.27-7.03,2.6c-3.99-1.49-9.71-3.75-10.66-6.92c-3.06-10.2-3.6-21.15-6.41-31.45
			c-2.98-10.93-18.45-21.29-26.37-19.98c-2.37,0.39-6.94-2.2-7.75-4.42c-3.49-9.5-14.42-14.29-23.74-9.92
			c-16.73,7.85-22.5,24.53-31.56,38.57c-5.23,8.11-13.72,15.77-14.9,24.43c-1.58,11.59-6.18,14-15.89,13.16
			c-1.27-0.11-2.82,0.01-3.86,0.65c-7.29,4.45-12.3,3.07-16.65-4.64c-1.61-2.85-6.27-4.71-9.85-5.39c-1.73-0.33-5.38,2.69-6.1,4.88
			c-3.21,9.74-5.84,19.7-8.36,29.65c-1.1,4.33-0.84,9.05-2.24,13.24c-3.22,9.62-8.05,18.78-10.49,28.57
			c-5.06,20.35-9,40.97-13.36,61.49c-1.51,7.1-1.7,12.74,8.55,12.91c5.51,0.09,11.28,2.46,16.4,4.9
			c11.3,5.38,22.41,11.21,33.28,17.4c3.09,1.76,5.08,5.41,7.62,8.15c2.75,2.97,5.38,6.07,8.43,8.7c0.68,0.58,2.9-0.49,4.35-0.97
			c8.26-2.72,16.44-7.62,24.75-7.83c24.1-0.59,48.25,0.38,72.36,1.33c22.84,0.9,45.74,1.69,68.42,4.28
			c9.83,1.12,19.13,6.71,28.75,10.03c1.2,0.41,3.39-0.2,4.28-1.14c2.19-2.3,4.26-4.88,5.67-7.71c1.8-3.6,4.42-7.73,4.01-11.33
			C441.46,521.4,438.93,511.05,436.91,500.63z"/>
		<path d="M436.91,500.63c2.01,10.41,4.55,20.77,5.76,31.27c0.41,3.59-2.21,7.72-4.01,11.33c-1.41,2.82-3.49,5.4-5.67,7.71
			c-0.89,0.94-3.09,1.56-4.28,1.14c-9.62-3.32-18.92-8.91-28.75-10.03c-22.68-2.59-45.58-3.38-68.42-4.28
			c-24.11-0.95-48.27-1.92-72.36-1.33c-8.31,0.2-16.49,5.11-24.75,7.83c-1.46,0.48-3.68,1.55-4.35,0.97
			c-3.05-2.62-5.69-5.73-8.43-8.7c-2.54-2.74-4.54-6.4-7.62-8.15c-10.88-6.19-21.98-12.02-33.28-17.4
			c-5.13-2.44-10.89-4.81-16.4-4.9c-10.25-0.17-10.06-5.8-8.55-12.91c4.36-20.52,8.3-41.14,13.36-61.49
			c2.43-9.78,7.27-18.95,10.49-28.57c1.4-4.19,1.14-8.91,2.24-13.24c2.52-9.96,5.14-19.91,8.36-29.65c0.72-2.18,4.37-5.21,6.1-4.88
			c3.58,0.69,8.24,2.54,9.85,5.39c4.35,7.71,9.36,9.09,16.65,4.64c1.04-0.64,2.59-0.76,3.86-0.65c9.7,0.83,14.31-1.57,15.89-13.16
			c1.18-8.66,9.67-16.32,14.9-24.43c9.06-14.04,14.82-30.72,31.56-38.57c9.32-4.37,20.26,0.41,23.74,9.92
			c0.82,2.23,5.38,4.82,7.75,4.42c7.92-1.31,23.39,9.05,26.37,19.98c2.81,10.3,3.34,21.25,6.41,31.45
			c0.95,3.17,6.68,5.44,10.66,6.92c1.79,0.67,4.74-1.47,7.03-2.6c1.34-0.67,3.03-2.96,3.49-2.69c7,4.08,14.43,7.77,20.49,13.01
			c4.62,3.99,6.83,10.69,11.25,15.04c7.4,7.28,11.13,14.58,12.57,25.79c3.16,24.51,10.34,48.51,15.84,72.72
			c1.34,5.91,2.55,11.85,3.82,17.77C437.95,500.43,437.43,500.53,436.91,500.63z M230.39,499.81c-0.57,0.01-1.14,0.02-1.71,0.03
			c0.58,6.12,0.76,12.32,1.91,18.33c0.58,3.06,2.84,8.24,4.46,8.29c18.16,0.54,36.35-0.28,54.5,0.32
			c31.36,1.05,62.7,2.83,94.05,4.35c14.74,0.72,29.47,1.59,44.21,2.23c0.62,0.03,1.96-1.57,1.87-2.27
			c-2.09-16.32-3.7-32.74-6.71-48.9c-3.69-19.8-8.06-39.51-13.28-58.95c-1.39-5.17-6.11-11.31-10.85-13.3
			c-7.77-3.25-16.77-3.75-25.32-4.87c-6.78-0.88-14.23-2.78-20.35-0.89c-6.75,2.09-11.66,3.84-16.36-2.72
			c-0.49-0.68-2.46-0.54-3.7-0.41c-16.13,1.62-32.25,3.43-48.4,4.88c-2.98,0.27-6.07-1.18-9.12-1.21
			c-3.65-0.03-7.36,0.35-10.96,1.03c-4.45,0.84-8.82,3.13-13.2,3.07c-6.63-0.09-14.47-5.9-18.09,4.49
			c-1.66,4.78-2.75,10.01-2.82,15.05C230.23,452.17,230.39,475.99,230.39,499.81z M220.33,405.28c1.53-0.41,3.06-0.81,4.59-1.22
			c-2.52-4.17-4.67-8.64-7.67-12.45c-3.55-4.52-8.13-8.22-11.7-12.72c-4.51-5.67-7.7-6.09-10.31,1.32
			c-1.93,5.5-4.62,10.81-5.93,16.44c-7.17,30.68-14.07,61.43-20.88,92.2c-0.35,1.6,0.39,4.54,1.57,5.22
			c14.06,8.15,28.29,16.02,42.52,23.87c1.96,1.08,4.69,2.85,6.12,2.21c1.58-0.7,2.94-3.84,2.92-5.9c-0.23-18.5-0.95-37-1.19-55.5
			C220.15,440.94,220.33,423.11,220.33,405.28z M324.13,394.61c0.45,0.92,0.9,1.84,1.35,2.76c4.38-2.59,10.99-4.22,12.63-8.01
			c2.41-5.56,1.47-12.66,1.54-19.11c0.02-1.57-1.51-4.49-2.43-4.53c-9.55-0.45-19.18-1.08-28.69-0.39
			c-13.3,0.96-17.39,11.18-9.8,22.88c3.27,5.04,5.98,10.63,13.81,8.41C316.29,395.57,320.26,395.26,324.13,394.61z M355.67,366.18
			c-1.51,7.16-3.03,11.16-3.04,15.15c0,6.08-3.3,14.21,8.77,13.84c7.24-0.22,14.52,3.22,21.87,3.69c5.3,0.34,10.74-1.52,16.12-2.41
			c-2.28-4.87-3.27-11.97-7.08-14.18C382.01,376.34,370.5,372.48,355.67,366.18z M261.02,393.17c0.16,0.7,0.32,1.4,0.49,2.11
			c3.68-1.28,10.01-1.9,10.53-3.96c1.25-5.03,0.37-10.85-0.83-16.09c-0.52-2.28-4.18-5.78-5.96-5.53
			c-13.69,1.95-27.29,4.62-40.87,7.31c-1.11,0.22-2.71,3.24-2.65,3.3c6.02,5.16,11.49,12.1,18.53,14.59
			C246.24,396.99,254.03,393.94,261.02,393.17z M259.41,363.9c1.75,0.34,3.51,0.68,5.26,1.03c3.18-2.64,7.81-4.65,9.25-8.03
			c3.12-7.33,4.76-15.31,6.75-23.09c2.72-10.66,7.47-19.16,19.76-20.72c1.27-0.16,3.44-2.44,3.39-2.51
			c-2.42-3.56-4.44-8.75-7.82-9.89c-2.92-0.99-9.26,1.56-10.9,4.38c-9.63,16.63-18.48,33.73-27.14,50.89
			C256.99,357.88,258.86,361.22,259.41,363.9z M317.82,348.33c-0.37,12.22,9.09,7.41,15.11,8.29c1.53,0.23,5.02-2.25,4.88-2.89
			c-1.54-7.01-2.85-14.26-5.83-20.71c-1.81-3.92-6.41-6.55-9.75-9.75c-1.47,2.45-3.93,4.79-4.21,7.36
			C317.39,336.47,317.82,342.43,317.82,348.33z M308.33,352.86c-1.78-3.62-2.86-5.82-3.94-8.02c-1.53,4.16-3.18,8.28-4.45,12.52
			c-0.16,0.55,1.61,1.68,2.48,2.54C304.33,357.63,306.23,355.36,308.33,352.86z"/>
		<path class="st0" d="M230.39,499.81c0-23.82-0.16-47.64,0.13-71.45c0.06-5.04,1.15-10.27,2.82-15.05
			c3.62-10.39,11.46-4.58,18.09-4.49c4.38,0.06,8.75-2.23,13.2-3.07c3.59-0.68,7.3-1.06,10.96-1.03c3.05,0.03,6.14,1.48,9.12,1.21
			c16.15-1.45,32.26-3.25,48.4-4.88c1.25-0.13,3.21-0.27,3.7,0.41c4.7,6.56,9.62,4.8,16.36,2.72c6.12-1.89,13.57,0,20.35,0.89
			c8.55,1.11,17.55,1.61,25.32,4.87c4.74,1.99,9.46,8.13,10.85,13.3c5.22,19.44,9.59,39.15,13.28,58.95
			c3.01,16.16,4.62,32.58,6.71,48.9c0.09,0.7-1.25,2.29-1.87,2.27c-14.74-0.65-29.47-1.52-44.21-2.23
			c-31.35-1.52-62.69-3.3-94.05-4.35c-18.15-0.61-36.35,0.21-54.5-0.32c-1.62-0.05-3.88-5.23-4.46-8.29
			c-1.15-6.01-1.33-12.21-1.91-18.33C229.25,499.83,229.82,499.82,230.39,499.81z"/>
		<path class="st0" d="M220.33,405.28c0,17.83-0.18,35.66,0.05,53.49c0.24,18.5,0.96,37,1.19,55.5c0.03,2.06-1.34,5.2-2.92,5.9
			c-1.44,0.64-4.17-1.13-6.12-2.21c-14.23-7.86-28.46-15.72-42.52-23.87c-1.18-0.68-1.93-3.62-1.57-5.22
			c6.81-30.77,13.71-61.52,20.88-92.2c1.32-5.63,4-10.94,5.93-16.44c2.6-7.42,5.79-7,10.31-1.32c3.58,4.5,8.15,8.21,11.7,12.72
			c2.99,3.81,5.14,8.27,7.67,12.45C223.39,404.47,221.86,404.88,220.33,405.28z"/>
		<path class="st0" d="M324.13,394.61c-3.87,0.65-7.84,0.95-11.59,2.01c-7.83,2.22-10.54-3.38-13.81-8.41
			c-7.59-11.7-3.5-21.92,9.8-22.88c9.51-0.69,19.14-0.06,28.69,0.39c0.92,0.04,2.44,2.96,2.43,4.53
			c-0.07,6.45,0.88,13.55-1.54,19.11c-1.64,3.78-8.25,5.41-12.63,8.01C325.03,396.46,324.58,395.54,324.13,394.61z"/>
		<path class="st0" d="M355.67,366.18c14.83,6.3,26.34,10.16,36.64,16.1c3.82,2.2,4.81,9.31,7.08,14.18
			c-5.38,0.88-10.82,2.74-16.12,2.41c-7.35-0.46-14.63-3.9-21.87-3.69c-12.07,0.36-8.77-7.77-8.77-13.84
			C352.63,377.33,354.16,373.34,355.67,366.18z"/>
		<path class="st0" d="M261.02,393.17c-6.99,0.77-14.78,3.82-20.76,1.72c-7.04-2.48-12.51-9.42-18.53-14.59
			c-0.06-0.05,1.54-3.08,2.65-3.3c13.58-2.69,27.17-5.36,40.87-7.31c1.78-0.25,5.44,3.25,5.96,5.53c1.19,5.24,2.08,11.07,0.83,16.09
			c-0.51,2.07-6.84,2.69-10.53,3.96C261.34,394.57,261.18,393.87,261.02,393.17z"/>
		<path class="st0" d="M259.41,363.9c-0.55-2.68-2.42-6.02-1.45-7.94c8.66-17.17,17.51-34.26,27.14-50.89
			c1.64-2.83,7.97-5.37,10.9-4.38c3.37,1.14,5.4,6.33,7.82,9.89c0.05,0.07-2.12,2.35-3.39,2.51c-12.29,1.56-17.03,10.06-19.76,20.72
			c-1.99,7.78-3.62,15.77-6.75,23.09c-1.44,3.38-6.07,5.4-9.25,8.03C262.92,364.59,261.16,364.24,259.41,363.9z"/>
		<path class="st0" d="M317.82,348.33c0-5.91-0.44-11.86,0.2-17.7c0.28-2.58,2.74-4.92,4.21-7.36c3.35,3.21,7.94,5.84,9.75,9.75
			c2.98,6.45,4.29,13.69,5.83,20.71c0.14,0.64-3.35,3.12-4.88,2.89C326.91,355.74,317.46,360.56,317.82,348.33z"/>
		<path class="st0" d="M308.33,352.86c-2.1,2.5-4,4.77-5.91,7.03c-0.87-0.86-2.64-1.99-2.48-2.54c1.27-4.24,2.92-8.36,4.45-12.52
			C305.47,347.04,306.55,349.24,308.33,352.86z"/>
	</g>
</g>
</svg>
