<?xml version="1.0" encoding="utf-8"?>
<!-- Generator: Adobe Illustrator 23.0.0, SVG Export Plug-In . SVG Version: 6.00 Build 0)  -->
<svg version="1.1" id="Layer_1" xmlns="http://www.w3.org/2000/svg" xmlns:xlink="http://www.w3.org/1999/xlink" x="0px" y="0px"
	 viewBox="0 0 595.3 841.9" style="enable-background:new 0 0 595.3 841.9;" xml:space="preserve">
<g>
	<g>
		<path d="M320.8,327c8.2-1,16.4-1.5,24.5-3c6.6-1.2,13.1,0.6,17.5,4.1c5.8,4.7,12.7,4.1,18.7,7.1c3.1,1.6,6,4.2,9.3,4.7
			c3.2,0.5,6.9-1.6,10.2-1.3c5.5,0.5,11.4,0.9,16.3,3.2c5.8,2.7,10.8,7.4,16,11.3c3.2,2.4,6.2,5,9.2,7.7c0.8,0.7,1.4,2.4,1.1,3.1
			c-3.7,8.4-7.7,16.7-11.5,25.1c-1.3,2.9-1.9,6-3,9c-2.9,8.7-11,11.5-17.8,16c-5.6,3.7-10.9,8-16.2,12.2c-6.6,5.1-13.5,10-19.7,15.6
			c-4.7,4.3-8.3,9.7-12.6,14.3c-3.3,3.5-6.6,7.1-10.5,9.9c-7.8,5.6-10,14.1-12.5,22.4c-0.7,2.4-3.1,5.5,0.4,8
			c-0.6,0.8-1.1,1.9-2,2.5c-5.4,3.8-10.7,7.9-16.4,11c-3.8,2.1-8.4,2.4-12.4,4.2c-7.1,3-14.1,6.2-20.8,10c-2.5,1.4-3.6,4.9-5.7,7.2
			c-4.1,4.4-8.2,8.8-12.8,12.5c-1.2,1-5.2,0.5-6.6-0.8c-11.8-10.9-26-11.8-40.8-10c-8.7,1-17.3,2.6-25.9,3.7
			c-1.4,0.2-3.6-0.9-4.5-2.1c-4.6-5.8-9-11.9-13.5-17.8c-2.9-3.8-5.6-7.7-8.9-11.1c-2.4-2.5-5.3-4.7-8.4-6.3
			c-3.7-1.9-5.6-3.7-3.3-7.9c0.9-1.5,1.4-3.5,1.3-5.3c-0.5-6.9,2.8-12.2,6.3-17.6c4.6-7.1,3.7-14.5,0.5-21.8
			c-1.6-3.8-3.9-7.3-5.3-11.1c-0.6-1.5-0.1-4.1,0.8-5.4c7.2-10,15.7-18.5,26.1-25.6c11.7-8,22.1-17.9,33.3-26.6
			c5.1-3.9,10.8-6.9,16.1-10.6c1-0.7,1.1-2.6,1.6-4c0.6-1.7,0.5-4.1,1.6-4.9c12.7-8.3,26.5-14.1,41.2-17.9c5.1-1.3,9.9-3.6,14.7-5.6
			c6.9-2.8,13.8-5.8,20.7-8.7c1-0.4,2.2-0.5,3.4-0.7C320.7,326.3,320.7,326.7,320.8,327z M322.4,335.3c-11.8-1.4-19.9,4.3-28.7,8
			c-3.9,1.7-7.6,4.4-11.6,5.1c-10.9,2-19.4,9.1-29.3,13c-0.6,0.2-1.2,2.3-0.8,2.7c3.2,3.7,0.4,6.1-2,7.8c-2.4,1.7-5.9,2-8.5,3.6
			c-8.4,5.1-16.8,10.2-24.8,15.9c-5.5,3.9-10.1,9.2-15.7,12.8c-10.3,6.6-19.7,14.1-27.7,23.3c-0.9,1-1.4,3-1.2,4.4
			c1,5.6,1.9,11.4,3.9,16.8c2.4,6.6-2.1,13.3,1,19.7c0.3,0.6-0.3,2.1-0.9,2.4c-4,2-4.6,5.7-5.4,9.5c-0.6,2.9-2.1,5.9,3.1,3.7
			c0.7-0.3,2,0.1,2.6,0.6c2.9,2.9,5.6,5.9,8.3,8.9c0.5,0.5,0.9,1.5,0.7,2.1c-1.2,5.2,2.6,6.1,6.1,7c2.1,0.5,4.6-0.4,6.4,0.5
			c5.9,2.8,11.2,0,16.7-1c3.1-0.6,6.3-2,9.1-1.5c4.5,0.8,8.4-0.2,12.5-1.6c1.5-0.5,4.3,0.4,5.4,1.6c1.7,1.8,2.6,4.6-0.4,6.4
			c-2.2,1.4-4.5,2.4-6.9,3.5c-1.9,0.9-4.3,1.4-5.9,2.7c-4.3,3.6-9.9,2.9-13.2-1.6c-0.8-1-2.9-1.5-4.5-1.5c-4.9-0.2-9.8,0-14.6,0
			c-2.3,0-4.6-0.5-6.9-0.5c-1.2,0-2.3,0.8-3.5,1.2c0.5,1.2,0.7,2.6,1.5,3.5c3.2,3.8,6.4,7.6,9.9,11c1.2,1.2,3.4,2.3,5.1,2.3
			c6.7-0.3,13.5-1.1,20.2-1.8c13.8-1.5,27.6-3.5,39.8,5.8c0.6,0.5,1.5,0.7,2.3,1c5.9,2.2,8.1,1,10.3-4.7c0.7-1.9,1.8-4.1,3.4-5
			c13.2-7.6,26.4-15.4,40-22.3c6.8-3.4,11.4-7,13.5-15.1c2.6-9.8,8.1-18.8,12.4-28.1c2.8-6.1,6.4-11.2,13.8-12.1
			c1.1-0.1,2.3-0.8,3-1.6c12.6-14.4,29.7-22.8,44.6-34.2c8.7-6.7,18.2-12.4,19.9-24.7c0.5-3.7,2-7.4,2.9-11
			c1.4-5.4,1.7-10.4-3.9-14.1c-2.3-1.5-4.3-3.6-6.2-5.7c-3.9-4.1-9.1-6.1-14.3-6.1c-4.5,0-9,2.4-13.5,3.3c-8.4,1.7-17,3-24.1,8.5
			c-4,3.1-7.5,7.2-12,9c-8.2,3.3-14.7,8.8-20.7,14.8c-3.6,3.6-7.5,8.4-8.3,13.2c-0.9,5.5-4.3,7-7.9,8c-4.5,1.3-7.4-1-9.2-5.8
			c-2.4-6.1-7-10.8-14-12.3c-6.4-1.4-12.8-3.1-19.2-4.6c-3.9-0.9-6.1-3.5-6-7.3c0.2-4,3.7-3.7,6.6-4.3c4.1-0.8,8.4-1.9,12.1-3.6
			c6.1-2.9,11.7-6.8,17.8-9.7c7.7-3.6,15.5-7,23.6-9.8c4.9-1.7,10.2-2.5,15.4-3.1c4.7-0.6,8.5,2.9,8.9,7.5c0.3,3.4,2,3.2,4.4,1.8
			c4.5-2.5,9-4.9,13.5-7.4c0.8-0.5,1.5-1.1,2.3-1.7c-0.8-0.7-1.5-1.5-2.5-2c-4-1.9-8-4.1-12.2-5.5c-5.7-1.8-11.6-3.9-17.5-4.1
			C334.8,332.9,327.8,334.6,322.4,335.3z M332.3,355.1c-6.1,2-13,4.1-19.7,6.6c-2.2,0.8-5.6,3.3-5.4,4.6c0.7,5.6-3.6,5.8-6.7,7.6
			c-1,0.6-2.3,2.5-2.2,2.7c1,1.2,2.2,2.6,3.6,3c1,0.3,2.5-0.7,3.5-1.5c0.7-0.5,0.8-2.2,1.4-2.4c10.6-3.5,18.8-14.6,32.1-10.1
			c1.5,0.5,4-1.6,5.7-3c0.3-0.3-0.5-3.3-1.4-3.7C340.1,357.5,336.6,356.5,332.3,355.1z M316,389.4c1.1-0.8,2.4-1.3,2.4-1.9
			c0.5-4.4,3.2-7.1,6.8-9.2c0.6-0.3,0.7-1.4,1-2.1c-0.9,0-2.1-0.4-2.7,0c-3.2,2.4-6.2,5.1-9.3,7.6c-1,0.8-2.1,1.4-3.1,2.1
			C312.8,387,314.3,388.2,316,389.4z M170.7,487.9c-0.8,1.6-1.7,2.9-1.5,3c2.2,1.9,4.5,3.7,6.8,5.4c0.1,0.1,1.1-1,1.7-1.6
			C175.5,492.6,173.3,490.5,170.7,487.9z"/>
		<path d="M350.9,439.3c-2.5-2.1-4.9-4.2-7.2-6.3c-5-4.6-5.9-11.9-11.4-16.5c-3.3-2.8-3.2-7.7,0.8-11.2c4.2-3.7,8.3-8.5,10.2-13.6
			c3.6-9.9,11.2-15,19.6-19.4c7-3.7,14.3-6.6,21.4-10c1.2-0.5,2.2-1.5,3.2-2.3c3.9-3.4,7.9-4.4,12.6-1.1c4.1,2.8,8.8,4.8,12.9,7.6
			c1.2,0.9,2.4,4,1.9,4.9c-3.6,5.9-5.2,12.2-5.2,19.1c0,0.7-0.6,1.7-1.2,2c-5.1,2.7-8.7,7.6-15,9.1c-4.4,1.1-8,5.5-12.1,8.3
			c-3.4,2.3-7.3,3.9-10.5,6.3c-4.7,3.6-10.9,5.7-12.2,12.8c-0.5,2.5-1.8,4.9-3.2,7.1C354.9,437.3,353.3,437.8,350.9,439.3z
			 M344.8,415.2c0.9,2.2,1.3,5.8,3.2,7c1.6,1,4.9-0.5,7.4-1.1c0.8-0.2,1.3-1.5,2.1-2.1c9-7.1,18.1-14.2,27.1-21.4
			c7.2-5.7,17.7-8.7,17.8-20.5c0-1.8-0.1-4.1-1.1-5.3c-0.8-0.9-3.2-0.6-4.9-0.6c-3.4,0.1-6.8,0.4-10.1,0.7c-2.8,0.3-5.9,0-8.1,1.2
			c-5.2,2.8-10.1,6.2-14.9,9.6c-2.1,1.5-3.6,3.6-5.4,5.5c-3.4,3.5-6.9,6.8-10.1,10.3C343.4,403.3,347.6,409.5,344.8,415.2z"/>
		<path d="M251.9,402.8c-3,1.4-5.9,3.9-8.9,4c-11.4,0.6-21.2,4.4-29.6,12.3c-2.4,2.3-2.6,3.5-0.5,6.1c3.1,3.9,5.1,8.4,3,13.7
			c-0.5,1.2-1.2,2.7-0.9,3.8c1.6,6-2.6,6.9-6.6,7.6c-1.5,0.3-4-0.2-4.7-1.2c-0.7-1.1-0.5-3.7,0.4-4.9c6.2-9.1,6.2-9.2-2.2-16.5
			c-2.9-2.5-3.3-6.2-0.7-8c8.3-5.8,16.6-11.5,25-17c5.6-3.6,11.9-5.4,18.5-4.5c2.4,0.3,4.7,1.8,7,2.7
			C251.8,401.5,251.9,402.1,251.9,402.8z"/>
		<path d="M265.6,475.3c5.5,0.1,9.1,2.4,11.5,6.3c2,3.4,4.4,3.8,7.4,1.7c1.8-1.2,3.5-2.6,4.8-4.3c7.1-8.7,14.1-17.5,21-26.3
			c2.6-3.4,5-1.5,7.2,0c2.8,2,1.9,4-0.1,6.2c-6.9,7.6-13.3,15.5-20.5,22.8c-4.3,4.4-9.4,8.1-14.4,11.9c-2.9,2.2-5.6,1.4-7.7-1.5
			c-1.4-1.9-2.6-4-4.4-5.4c-1.5-1.2-3.6-2.1-5.4-2.3c-2.9-0.2-6.5,2-7.5-2.9c-1.1-5,3.2-5,6-6.1
			C264.4,475.2,265.5,475.4,265.6,475.3z"/>
		<path d="M275,498.1c3.3,0,6.8-0.5,10,0.2c2.4,0.5,4.4,2.6,6.6,4c-2,2-3.9,5.7-6,5.8c-7.5,0.4-15.1,0-22.5-0.9
			c-2-0.2-3.7-3-5.5-4.6c1.8-1.4,3.5-3.6,5.6-3.9c3.9-0.6,7.9-0.2,11.9-0.2C275,498.3,275,498.2,275,498.1z"/>
		<path d="M286.9,433.5c-5-1.4-9.4-2.4-13.5-4c-1.1-0.4-2.4-3.3-2-3.9c1.5-2.1,4.4-5.7,5.6-5.3c5,1.7,9.7,4.5,14.4,7.2
			c0.6,0.3,0.8,2.7,0.4,3.1C290.2,432,288.2,432.8,286.9,433.5z"/>
	</g>
</g>
</svg>
