<?xml version="1.0" encoding="utf-8"?>
<!-- Generator: Adobe Illustrator 23.0.0, SVG Export Plug-In . SVG Version: 6.00 Build 0)  -->
<svg version="1.1" id="Layer_1" xmlns="http://www.w3.org/2000/svg" xmlns:xlink="http://www.w3.org/1999/xlink" x="0px" y="0px"
	 viewBox="0 0 595.28 841.89" style="enable-background:new 0 0 595.28 841.89;" xml:space="preserve">
<style type="text/css">
	.st0{fill:#FFFFFF;}
</style>
<g>
	<g>
		<path class="st0" d="M449,421.89c0,48.83-0.03,97.67,0.08,146.5c0.01,2.98-0.6,3.58-3.58,3.58c-97.67-0.1-195.33-0.1-293,0
			c-2.98,0-3.58-0.6-3.58-3.58c0.1-97.67,0.1-195.33,0-293c0-2.98,0.6-3.58,3.58-3.58c97.67,0.1,195.33,0.1,293,0
			c2.98,0,3.59,0.6,3.58,3.58C448.97,324.22,449,373.06,449,421.89z M320.78,327.02c-0.05-0.36-0.09-0.72-0.14-1.08
			c-1.13,0.22-2.34,0.26-3.38,0.69c-6.92,2.86-13.79,5.85-20.71,8.7c-4.87,2-9.67,4.36-14.74,5.64
			c-14.75,3.73-28.54,9.55-41.24,17.87c-1.12,0.74-1.07,3.23-1.62,4.89c-0.46,1.38-0.61,3.31-1.59,4
			c-5.26,3.68-11.02,6.66-16.07,10.59c-11.21,8.72-21.59,18.61-33.28,26.6c-10.36,7.08-18.84,15.58-26.06,25.56
			c-0.97,1.35-1.39,3.88-0.83,5.41c1.4,3.83,3.65,7.33,5.29,11.09c3.18,7.3,4.05,14.7-0.53,21.77c-3.51,5.41-6.85,10.73-6.32,17.61
			c0.13,1.73-0.43,3.73-1.28,5.27c-2.34,4.23-0.39,6.05,3.29,7.92c3.08,1.57,5.99,3.79,8.37,6.3c3.25,3.41,5.99,7.32,8.85,11.09
			c4.5,5.93,8.82,12.01,13.46,17.82c0.94,1.18,3.07,2.25,4.5,2.08c8.67-1.02,17.28-2.61,25.95-3.65
			c14.8-1.79,28.95-0.89,40.75,10.05c1.38,1.28,5.35,1.81,6.6,0.8c4.64-3.74,8.73-8.17,12.83-12.53c2.1-2.24,3.27-5.76,5.73-7.16
			c6.68-3.8,13.75-6.96,20.83-10.01c3.99-1.72,8.63-2.1,12.38-4.17c5.75-3.18,11.01-7.26,16.42-11.05c0.83-0.58,1.33-1.65,1.98-2.49
			c-3.42-2.5-1.07-5.64-0.35-8.05c2.49-8.31,4.69-16.82,12.46-22.42c3.88-2.79,7.23-6.39,10.5-9.92
			c4.33-4.66,7.95-10.07,12.62-14.33c6.18-5.63,13.07-10.5,19.7-15.62c5.35-4.14,10.59-8.46,16.22-12.19
			c6.77-4.48,14.85-7.35,17.79-16.01c1.02-2.99,1.68-6.13,2.95-9c3.73-8.41,7.73-16.69,11.45-25.1c0.34-0.77-0.35-2.47-1.09-3.15
			c-2.93-2.69-5.98-5.28-9.16-7.68c-5.24-3.95-10.22-8.55-16.05-11.3c-4.88-2.3-10.79-2.75-16.32-3.2
			c-3.36-0.28-6.99,1.86-10.23,1.31c-3.28-0.56-6.2-3.15-9.34-4.74c-5.92-3-12.86-2.47-18.66-7.15c-4.37-3.53-10.81-5.33-17.46-4.09
			C337.18,325.49,328.95,326.05,320.78,327.02z"/>
		<path d="M320.78,327.02c8.16-0.97,16.4-1.53,24.46-3.02c6.65-1.23,13.09,0.56,17.46,4.09c5.8,4.68,12.74,4.15,18.66,7.15
			c3.13,1.59,6.05,4.18,9.34,4.74c3.24,0.55,6.87-1.59,10.23-1.31c5.52,0.46,11.44,0.91,16.32,3.2c5.83,2.74,10.81,7.35,16.05,11.3
			c3.18,2.4,6.23,4.98,9.16,7.68c0.75,0.69,1.43,2.38,1.09,3.15c-3.71,8.41-7.72,16.69-11.45,25.1c-1.27,2.87-1.93,6.01-2.95,9
			c-2.94,8.66-11.02,11.54-17.79,16.01c-5.63,3.73-10.87,8.05-16.22,12.19c-6.63,5.13-13.52,9.99-19.7,15.62
			c-4.68,4.26-8.29,9.66-12.62,14.33c-3.28,3.53-6.63,7.13-10.5,9.92c-7.78,5.59-9.97,14.1-12.46,22.42
			c-0.72,2.41-3.07,5.55,0.35,8.05c-0.65,0.84-1.15,1.91-1.98,2.49c-5.41,3.79-10.67,7.87-16.42,11.05
			c-3.75,2.07-8.39,2.45-12.38,4.17c-7.07,3.05-14.14,6.21-20.83,10.01c-2.46,1.4-3.63,4.92-5.73,7.16
			c-4.1,4.36-8.19,8.79-12.83,12.53c-1.25,1.01-5.22,0.48-6.6-0.8c-11.81-10.94-25.96-11.84-40.75-10.05
			c-8.67,1.05-17.28,2.63-25.95,3.65c-1.43,0.17-3.55-0.9-4.5-2.08c-4.64-5.82-8.96-11.89-13.46-17.82
			c-2.86-3.77-5.6-7.68-8.85-11.09c-2.39-2.5-5.3-4.73-8.37-6.3c-3.68-1.87-5.63-3.69-3.29-7.92c0.85-1.54,1.41-3.54,1.28-5.27
			c-0.52-6.88,2.82-12.2,6.32-17.61c4.57-7.06,3.71-14.47,0.53-21.77c-1.63-3.75-3.89-7.26-5.29-11.09
			c-0.56-1.53-0.15-4.06,0.83-5.41c7.21-9.99,15.69-18.49,26.06-25.56c11.69-7.99,22.07-17.88,33.28-26.6
			c5.05-3.92,10.82-6.91,16.07-10.59c0.98-0.69,1.13-2.62,1.59-4c0.55-1.66,0.5-4.15,1.62-4.89c12.7-8.32,26.49-14.14,41.24-17.87
			c5.07-1.28,9.87-3.64,14.74-5.64c6.93-2.84,13.79-5.84,20.71-8.7c1.04-0.43,2.25-0.47,3.38-0.69
			C320.69,326.3,320.74,326.66,320.78,327.02z M322.4,335.26c-11.76-1.36-19.93,4.31-28.68,8.04c-3.91,1.67-7.59,4.4-11.65,5.13
			c-10.9,1.97-19.37,9.09-29.33,12.98c-0.57,0.22-1.16,2.32-0.8,2.74c3.16,3.67,0.35,6.1-2.03,7.79c-2.44,1.74-5.86,2.04-8.46,3.62
			c-8.38,5.09-16.75,10.22-24.77,15.85c-5.52,3.88-10.07,9.21-15.73,12.82c-10.29,6.57-19.66,14.09-27.66,23.27
			c-0.92,1.05-1.44,3.05-1.18,4.43c1.04,5.64,1.92,11.4,3.86,16.76c2.38,6.58-2.15,13.28,1.03,19.7c0.28,0.56-0.29,2.14-0.88,2.44
			c-3.98,2.01-4.58,5.73-5.4,9.51c-0.63,2.89-2.12,5.91,3.14,3.69c0.67-0.28,2.02,0.1,2.58,0.65c2.88,2.87,5.63,5.87,8.34,8.9
			c0.46,0.51,0.88,1.45,0.74,2.06c-1.23,5.25,2.63,6.12,6.14,6.98c2.06,0.5,4.59-0.35,6.4,0.51c5.86,2.77,11.17,0.04,16.66-0.99
			c3.06-0.57,6.26-2.03,9.13-1.54c4.52,0.77,8.37-0.19,12.5-1.56c1.53-0.51,4.29,0.35,5.43,1.57c1.66,1.78,2.58,4.58-0.39,6.43
			c-2.18,1.36-4.54,2.42-6.86,3.54c-1.95,0.94-4.28,1.37-5.86,2.71c-4.28,3.63-9.94,2.92-13.22-1.64c-0.76-1.05-2.94-1.45-4.5-1.5
			c-4.88-0.16-9.77,0.05-14.65-0.01c-2.3-0.03-4.6-0.52-6.89-0.47c-1.18,0.03-2.34,0.81-3.51,1.25c0.48,1.18,0.7,2.58,1.48,3.51
			c3.18,3.78,6.39,7.56,9.9,11.04c1.25,1.24,3.39,2.34,5.06,2.26c6.74-0.33,13.46-1.08,20.17-1.81c13.76-1.5,27.56-3.49,39.75,5.81
			c0.64,0.49,1.48,0.74,2.26,1.03c5.9,2.16,8.06,1.05,10.33-4.74c0.73-1.86,1.83-4.08,3.42-5c13.2-7.63,26.35-15.4,39.95-22.26
			c6.82-3.44,11.38-6.95,13.55-15.12c2.6-9.78,8.11-18.78,12.41-28.1c2.8-6.07,6.4-11.23,13.83-12.11c1.07-0.13,2.31-0.82,3.02-1.63
			c12.57-14.37,29.72-22.79,44.57-34.19c8.69-6.67,18.17-12.41,19.92-24.69c0.54-3.74,1.97-7.35,2.94-11.03
			c1.42-5.42,1.67-10.44-3.87-14.09c-2.31-1.52-4.27-3.65-6.18-5.69c-3.9-4.15-9.06-6.11-14.29-6.11c-4.51,0-8.98,2.37-13.54,3.31
			c-8.43,1.74-17,2.97-24.08,8.5c-3.97,3.1-7.55,7.22-12.04,9.04c-8.23,3.33-14.72,8.79-20.71,14.81
			c-3.62,3.65-7.51,8.42-8.26,13.17c-0.88,5.52-4.28,6.95-7.85,7.98c-4.48,1.29-7.36-0.95-9.25-5.83c-2.38-6.12-7-10.75-13.95-12.31
			c-6.42-1.44-12.8-3.1-19.21-4.6c-3.91-0.91-6.12-3.48-5.97-7.29c0.16-4.03,3.69-3.7,6.65-4.3c4.13-0.84,8.36-1.85,12.13-3.65
			c6.08-2.9,11.67-6.83,17.76-9.71c7.69-3.63,15.55-6.97,23.56-9.77c4.89-1.71,10.18-2.48,15.35-3.1c4.72-0.57,8.51,2.94,8.94,7.55
			c0.32,3.43,1.99,3.21,4.4,1.84c4.45-2.52,8.99-4.88,13.47-7.35c0.82-0.45,1.54-1.11,2.31-1.67c-0.82-0.66-1.55-1.51-2.48-1.95
			c-4.04-1.92-8.02-4.13-12.25-5.48c-5.71-1.81-11.61-3.91-17.49-4.1C334.75,332.88,327.83,334.58,322.4,335.26z M332.26,355.07
			c-6.12,2.02-12.99,4.06-19.67,6.63c-2.19,0.84-5.6,3.27-5.44,4.61c0.67,5.59-3.65,5.76-6.66,7.58c-0.97,0.58-2.34,2.46-2.16,2.69
			c0.96,1.24,2.22,2.6,3.64,3.02c0.97,0.29,2.51-0.73,3.54-1.49c0.69-0.51,0.76-2.16,1.42-2.38c10.62-3.5,18.8-14.59,32.09-10.15
			c1.47,0.49,4-1.62,5.71-2.95c0.34-0.27-0.5-3.26-1.41-3.68C340.09,357.45,336.61,356.53,332.26,355.07z M316.04,389.38
			c1.06-0.79,2.37-1.27,2.44-1.89c0.5-4.44,3.18-7.09,6.79-9.19c0.56-0.33,0.69-1.39,1.01-2.11c-0.9-0.01-2.1-0.41-2.66,0.02
			c-3.18,2.43-6.18,5.07-9.29,7.59c-0.97,0.79-2.08,1.41-3.12,2.11C312.78,387.04,314.34,388.16,316.04,389.38z M170.67,487.91
			c-0.81,1.58-1.66,2.86-1.5,3c2.18,1.9,4.47,3.68,6.84,5.35c0.13,0.09,1.11-1.01,1.7-1.56
			C175.52,492.59,173.33,490.48,170.67,487.91z"/>
		<path class="st0" d="M322.4,335.26c5.42-0.68,12.35-2.37,19.22-2.15c5.88,0.19,11.78,2.28,17.49,4.1
			c4.24,1.35,8.21,3.55,12.25,5.48c0.93,0.44,1.66,1.29,2.48,1.95c-0.77,0.56-1.48,1.21-2.31,1.67c-4.48,2.47-9.02,4.83-13.47,7.35
			c-2.42,1.37-4.08,1.59-4.4-1.84c-0.43-4.61-4.22-8.12-8.94-7.55c-5.18,0.63-10.46,1.39-15.35,3.1c-8.02,2.8-15.88,6.14-23.56,9.77
			c-6.09,2.87-11.68,6.81-17.76,9.71c-3.78,1.8-8,2.81-12.13,3.65c-2.96,0.6-6.49,0.27-6.65,4.3c-0.15,3.8,2.06,6.38,5.97,7.29
			c6.41,1.49,12.79,3.16,19.21,4.6c6.95,1.56,11.57,6.19,13.95,12.31c1.9,4.87,4.78,7.12,9.25,5.83c3.56-1.03,6.97-2.47,7.85-7.98
			c0.76-4.75,4.64-9.52,8.26-13.17c5.98-6.02,12.47-11.48,20.71-14.81c4.5-1.82,8.07-5.94,12.04-9.04
			c7.08-5.53,15.65-6.76,24.08-8.5c4.56-0.94,9.03-3.31,13.54-3.31c5.23,0,10.39,1.97,14.29,6.11c1.92,2.04,3.87,4.16,6.18,5.69
			c5.54,3.66,5.29,8.67,3.87,14.09c-0.96,3.68-2.4,7.29-2.94,11.03c-1.76,12.28-11.23,18.01-19.92,24.69
			c-14.85,11.4-31.99,19.82-44.57,34.19c-0.72,0.82-1.95,1.51-3.02,1.63c-7.43,0.87-11.03,6.04-13.83,12.11
			c-4.3,9.32-9.81,18.32-12.41,28.1c-2.17,8.17-6.73,11.67-13.55,15.12c-13.6,6.87-26.75,14.63-39.95,22.26
			c-1.59,0.92-2.7,3.15-3.42,5c-2.27,5.8-4.43,6.9-10.33,4.74c-0.78-0.28-1.62-0.54-2.26-1.03c-12.18-9.3-25.99-7.31-39.75-5.81
			c-6.71,0.73-13.43,1.48-20.17,1.81c-1.67,0.08-3.81-1.02-5.06-2.26c-3.5-3.48-6.72-7.26-9.9-11.04c-0.78-0.93-1-2.33-1.48-3.51
			c1.17-0.44,2.33-1.22,3.51-1.25c2.29-0.06,4.59,0.44,6.89,0.47c4.88,0.06,9.78-0.15,14.65,0.01c1.55,0.05,3.74,0.44,4.5,1.5
			c3.28,4.55,8.95,5.27,13.22,1.64c1.58-1.34,3.92-1.77,5.86-2.71c2.32-1.12,4.68-2.19,6.86-3.54c2.97-1.85,2.05-4.64,0.39-6.43
			c-1.14-1.22-3.9-2.08-5.43-1.57c-4.13,1.36-7.99,2.33-12.5,1.56c-2.87-0.49-6.07,0.97-9.13,1.54c-5.5,1.03-10.81,3.76-16.66,0.99
			c-1.8-0.85-4.34,0-6.4-0.51c-3.51-0.86-7.37-1.73-6.14-6.98c0.14-0.61-0.28-1.55-0.74-2.06c-2.71-3.03-5.46-6.03-8.34-8.9
			c-0.56-0.55-1.91-0.94-2.58-0.65c-5.26,2.22-3.77-0.8-3.14-3.69c0.82-3.78,1.42-7.5,5.4-9.51c0.59-0.3,1.16-1.87,0.88-2.44
			c-3.17-6.42,1.36-13.12-1.03-19.7c-1.94-5.35-2.82-11.12-3.86-16.76c-0.25-1.38,0.26-3.37,1.18-4.43
			c8-9.19,17.37-16.7,27.66-23.27c5.66-3.62,10.21-8.95,15.73-12.82c8.02-5.63,16.4-10.75,24.77-15.85c2.6-1.58,6.02-1.88,8.46-3.62
			c2.38-1.69,5.19-4.12,2.03-7.79c-0.36-0.42,0.22-2.51,0.8-2.74c9.95-3.89,18.42-11.01,29.33-12.98c4.06-0.73,7.73-3.46,11.65-5.13
			C302.47,339.57,310.64,333.9,322.4,335.26z M350.93,439.33c2.33-1.54,3.92-2.06,4.58-3.15c1.36-2.21,2.72-4.64,3.19-7.14
			c1.3-7.05,7.55-9.18,12.23-12.77c3.22-2.47,7.08-4.08,10.48-6.34c4.09-2.72,7.64-7.2,12.07-8.27c6.29-1.52,9.82-6.41,14.96-9.12
			c0.6-0.32,1.18-1.33,1.17-2.02c-0.06-6.86,1.57-13.16,5.19-19.09c0.59-0.96-0.61-4.06-1.86-4.92c-4.1-2.83-8.79-4.8-12.88-7.64
			c-4.71-3.28-8.62-2.3-12.56,1.08c-1,0.86-2.02,1.79-3.2,2.34c-7.11,3.36-14.42,6.33-21.37,9.99c-8.42,4.44-16,9.56-19.65,19.44
			c-1.89,5.13-5.99,9.92-10.2,13.58c-3.97,3.45-4.08,8.38-0.8,11.16c5.51,4.65,6.43,11.94,11.44,16.55
			C346.05,435.15,348.47,437.18,350.93,439.33z M251.92,402.8c-0.06-0.65-0.12-1.31-0.18-1.96c-2.33-0.94-4.59-2.39-7.01-2.72
			c-6.69-0.92-12.96,0.87-18.54,4.52c-8.45,5.52-16.75,11.27-25.03,17.03c-2.58,1.79-2.13,5.48,0.73,7.97
			c8.44,7.34,8.37,7.39,2.2,16.51c-0.84,1.25-1.13,3.82-0.39,4.91c0.71,1.04,3.2,1.52,4.71,1.24c3.99-0.75,8.21-1.66,6.64-7.61
			c-0.3-1.13,0.38-2.62,0.87-3.84c2.1-5.27,0.12-9.78-3.03-13.68c-2.08-2.58-1.94-3.82,0.47-6.07c8.39-7.86,18.18-11.68,29.63-12.28
			C246.02,406.64,248.94,404.19,251.92,402.8z M265.61,475.33c-0.14,0.01-1.22-0.13-2.1,0.23c-2.86,1.14-7.1,1.09-6.03,6.1
			c1.04,4.89,4.62,2.7,7.55,2.88c1.88,0.11,3.97,1.05,5.44,2.26c1.75,1.43,3,3.5,4.35,5.38c2.12,2.93,4.8,3.76,7.69,1.55
			c4.94-3.79,10.05-7.48,14.37-11.92c7.11-7.32,13.6-15.24,20.45-22.82c1.98-2.19,2.94-4.26,0.13-6.22
			c-2.24-1.57-4.55-3.43-7.2-0.01c-6.87,8.88-13.93,17.62-21.03,26.33c-1.34,1.64-3.04,3.07-4.79,4.27
			c-2.96,2.03-5.33,1.67-7.38-1.74C274.75,477.76,271.16,475.47,265.61,475.33z M274.95,498.11c0,0.11,0,0.21,0,0.32
			c-3.98,0-8.04-0.44-11.92,0.18c-2.01,0.32-3.72,2.55-5.56,3.91c1.83,1.61,3.53,4.39,5.51,4.62c7.47,0.84,15.06,1.31,22.55,0.88
			c2.1-0.12,4-3.77,5.99-5.8c-2.2-1.37-4.24-3.43-6.63-3.95C281.72,497.59,278.28,498.11,274.95,498.11z M286.91,433.53
			c1.29-0.72,3.25-1.55,4.84-2.85c0.46-0.38,0.21-2.74-0.35-3.06c-4.68-2.65-9.36-5.49-14.41-7.18c-1.2-0.4-4.04,3.14-5.56,5.28
			c-0.42,0.59,0.92,3.47,1.98,3.87C277.53,431.14,281.86,432.12,286.91,433.53z"/>
		<path class="st0" d="M332.26,355.07c4.35,1.46,7.83,2.38,11.05,3.87c0.91,0.42,1.75,3.41,1.41,3.68c-1.7,1.33-4.24,3.44-5.71,2.95
			c-13.28-4.45-21.47,6.65-32.09,10.15c-0.65,0.22-0.73,1.87-1.42,2.38c-1.03,0.77-2.57,1.78-3.54,1.49
			c-1.42-0.42-2.68-1.78-3.64-3.02c-0.18-0.23,1.19-2.11,2.16-2.69c3.02-1.81,7.33-1.99,6.66-7.58c-0.16-1.34,3.26-3.76,5.44-4.61
			C319.26,359.13,326.14,357.09,332.26,355.07z"/>
		<path class="st0" d="M316.04,389.38c-1.7-1.22-3.26-2.34-4.82-3.46c1.04-0.7,2.15-1.32,3.12-2.11c3.11-2.52,6.11-5.17,9.29-7.59
			c0.56-0.43,1.76-0.04,2.66-0.02c-0.33,0.72-0.45,1.78-1.01,2.11c-3.61,2.11-6.29,4.76-6.79,9.19
			C318.41,388.12,317.1,388.6,316.04,389.38z"/>
		<path class="st0" d="M170.67,487.91c2.66,2.57,4.85,4.68,7.04,6.79c-0.59,0.55-1.57,1.65-1.7,1.56c-2.36-1.67-4.66-3.45-6.84-5.35
			C169.02,490.77,169.86,489.5,170.67,487.91z"/>
		<path d="M350.93,439.33c-2.46-2.15-4.88-4.18-7.2-6.31c-5.02-4.61-5.93-11.9-11.44-16.55c-3.28-2.77-3.17-7.71,0.8-11.16
			c4.21-3.66,8.31-8.45,10.2-13.58c3.64-9.87,11.23-15,19.65-19.44c6.95-3.66,14.26-6.63,21.37-9.99c1.17-0.55,2.19-1.48,3.2-2.34
			c3.94-3.38,7.85-4.36,12.56-1.08c4.09,2.84,8.78,4.81,12.88,7.64c1.24,0.86,2.44,3.95,1.86,4.92c-3.62,5.92-5.25,12.22-5.19,19.09
			c0.01,0.69-0.58,1.7-1.17,2.02c-5.14,2.71-8.67,7.6-14.96,9.12c-4.43,1.07-7.98,5.54-12.07,8.27c-3.4,2.26-7.26,3.87-10.48,6.34
			c-4.68,3.59-10.92,5.72-12.23,12.77c-0.46,2.5-1.83,4.93-3.19,7.14C354.85,437.27,353.26,437.79,350.93,439.33z M344.83,415.2
			c0.93,2.25,1.34,5.75,3.22,7c1.56,1.03,4.91-0.45,7.39-1.11c0.81-0.22,1.29-1.48,2.06-2.09c9.04-7.13,18.15-14.18,27.15-21.36
			c7.2-5.74,17.66-8.73,17.84-20.52c0.03-1.82-0.07-4.13-1.12-5.33c-0.81-0.92-3.21-0.64-4.89-0.58c-3.39,0.12-6.77,0.39-10.15,0.71
			c-2.75,0.26-5.87-0.02-8.15,1.19c-5.21,2.77-10.11,6.17-14.94,9.6c-2.06,1.46-3.59,3.65-5.38,5.49
			c-3.38,3.45-6.91,6.76-10.13,10.34C343.44,403.33,347.65,409.5,344.83,415.2z"/>
		<path d="M251.92,402.8c-2.97,1.4-5.89,3.85-8.93,4.01c-11.45,0.6-21.24,4.42-29.63,12.28c-2.41,2.26-2.55,3.49-0.47,6.07
			c3.15,3.9,5.13,8.41,3.03,13.68c-0.49,1.22-1.16,2.71-0.87,3.84c1.57,5.95-2.65,6.86-6.64,7.61c-1.51,0.29-4-0.2-4.71-1.24
			c-0.74-1.09-0.46-3.66,0.39-4.91c6.17-9.13,6.23-9.17-2.2-16.51c-2.86-2.49-3.31-6.18-0.73-7.97
			c8.29-5.76,16.58-11.51,25.03-17.03c5.58-3.64,11.85-5.44,18.54-4.52c2.42,0.33,4.68,1.78,7.01,2.72
			C251.79,401.49,251.86,402.14,251.92,402.8z"/>
		<path d="M265.61,475.33c5.55,0.13,9.14,2.42,11.45,6.27c2.05,3.41,4.42,3.77,7.38,1.74c1.75-1.2,3.45-2.63,4.79-4.27
			c7.09-8.71,14.15-17.45,21.03-26.33c2.65-3.42,4.96-1.55,7.2,0.01c2.81,1.96,1.85,4.04-0.13,6.22
			c-6.85,7.58-13.34,15.5-20.45,22.82c-4.31,4.44-9.43,8.13-14.37,11.92c-2.89,2.21-5.57,1.39-7.69-1.55
			c-1.35-1.88-2.61-3.95-4.35-5.38c-1.47-1.21-3.57-2.15-5.44-2.26c-2.93-0.17-6.51,2.02-7.55-2.88c-1.06-5.01,3.17-4.96,6.03-6.1
			C264.39,475.21,265.47,475.35,265.61,475.33z"/>
		<path d="M274.95,498.11c3.33,0,6.77-0.52,9.95,0.17c2.38,0.51,4.43,2.58,6.63,3.95c-1.99,2.03-3.89,5.68-5.99,5.8
			c-7.49,0.42-15.08-0.04-22.55-0.88c-1.99-0.22-3.68-3.01-5.51-4.62c1.84-1.36,3.55-3.59,5.56-3.91c3.88-0.63,7.94-0.18,11.92-0.18
			C274.95,498.32,274.95,498.21,274.95,498.11z"/>
		<path d="M286.91,433.53c-5.05-1.42-9.39-2.39-13.51-3.95c-1.07-0.4-2.4-3.28-1.98-3.87c1.52-2.13,4.36-5.68,5.56-5.28
			c5.05,1.68,9.73,4.52,14.41,7.18c0.57,0.32,0.81,2.69,0.35,3.06C290.17,431.98,288.2,432.82,286.91,433.53z"/>
		<path class="st0" d="M344.83,415.2c2.82-5.71-1.38-11.88,2.91-16.65c3.22-3.59,6.75-6.9,10.13-10.34c1.8-1.83,3.33-4.03,5.38-5.49
			c4.82-3.43,9.73-6.83,14.94-9.6c2.29-1.21,5.4-0.93,8.15-1.19c3.38-0.32,6.76-0.59,10.15-0.71c1.68-0.06,4.08-0.34,4.89,0.58
			c1.05,1.2,1.15,3.51,1.12,5.33c-0.19,11.79-10.65,14.78-17.84,20.52c-9,7.18-18.11,14.23-27.15,21.36
			c-0.77,0.61-1.24,1.87-2.06,2.09c-2.48,0.67-5.83,2.14-7.39,1.11C346.16,420.95,345.76,417.46,344.83,415.2z"/>
	</g>
</g>
</svg>
