<?xml version="1.0" encoding="utf-8"?>
<!-- Generator: Adobe Illustrator 23.0.0, SVG Export Plug-In . SVG Version: 6.00 Build 0)  -->
<svg version="1.1" id="Layer_1" xmlns="http://www.w3.org/2000/svg" xmlns:xlink="http://www.w3.org/1999/xlink" x="0px" y="0px"
	 viewBox="0 0 595.28 841.89" style="enable-background:new 0 0 595.28 841.89;" xml:space="preserve">
<style type="text/css">
	.st0{fill:#FFFFFF;}
</style>
<g>
	<g>
		<path class="st0" d="M449,421.89c0,48.83,0.02,97.67-0.15,146.5c0,1.17-2.19,3.35-3.35,3.36c-97.67,0.16-195.33,0.16-293,0
			c-1.17,0-3.35-2.19-3.36-3.36c-0.16-97.67-0.16-195.33,0-293c0-1.17,2.19-3.35,3.35-3.36c97.67-0.16,195.33-0.16,293,0
			c1.17,0,3.35,2.18,3.35,3.36C449.02,324.22,449,373.06,449,421.89z M188.16,458.32c0.57,0.02,1.13,0.03,1.7,0.05
			c-1.08,11.67-2.35,23.32-3.18,35c-0.81,11.43-1.6,22.89-1.59,34.34c0.01,11.22,0.88,22.46,1.78,33.66
			c0.19,2.35,1.78,4.88,3.45,6.63c0.51,0.53,3.47-1.31,5.31-2.05c1.38-0.55,2.86-1.67,4.14-1.48c9.92,1.43,20.08,4.88,28.16-4.73
			c0.29-0.34,1.28-0.05,1.94-0.12c9.81-1,19.61-2.09,29.42-3c15.79-1.48,31.62-4.18,47.39-3.93c21.75,0.35,43.47,2.82,65.17,4.69
			c9.65,0.83,19.26,2.19,28.82,3.78c2.2,0.37,4.09,2.64,6.12,4.04c1.69-3.68,4.85-7.38,4.78-11.03c-0.2-10.95-2.04-21.85-2.56-32.81
			c-1.37-28.76-2.51-57.53-3.48-86.31c-0.44-13.13-0.15-26.28-0.42-39.42c-0.4-19.48-1.62-38.96-1.33-58.43
			c0.23-15.63,2.65-31.23,3.11-46.87c0.19-6.63-1.78-12.69-11.78-9.95c-8.51,2.33-17.64,3.65-26.45,3.41
			c-30.47-0.85-60.92-3.74-91.37-3.58c-23.06,0.12-46.2,3.05-69.07,6.38c-3.99,0.58-18.85,0.75-10.67,14.41
			c0.79,1.32-3.04,5.42-4.75,8.21c-1.55,2.53-4.45,5.02-4.49,7.57c-0.35,21.54-0.17,43.09-0.17,64.64
			C188.16,407.05,188.16,432.69,188.16,458.32z"/>
		<path d="M188.16,458.32c0-25.63,0.01-51.26,0-76.9c-0.01-21.55-0.18-43.1,0.17-64.64c0.04-2.55,2.94-5.04,4.49-7.57
			c1.71-2.79,5.54-6.89,4.75-8.21c-8.18-13.65,6.68-13.82,10.67-14.41c22.86-3.33,46-6.26,69.07-6.38
			c30.45-0.16,60.9,2.73,91.37,3.58c8.8,0.24,17.94-1.08,26.45-3.41c10-2.74,11.97,3.32,11.78,9.95
			c-0.46,15.64-2.88,31.23-3.11,46.87c-0.28,19.47,0.93,38.95,1.33,58.43c0.27,13.14-0.02,26.29,0.42,39.42
			c0.97,28.78,2.11,57.55,3.48,86.31c0.52,10.95,2.36,21.86,2.56,32.81c0.07,3.65-3.09,7.35-4.78,11.03
			c-2.03-1.4-3.92-3.67-6.12-4.04c-9.55-1.59-19.17-2.95-28.82-3.78c-21.71-1.87-43.43-4.34-65.17-4.69
			c-15.77-0.25-31.6,2.45-47.39,3.93c-9.81,0.92-19.61,2-29.42,3c-0.66,0.07-1.66-0.22-1.94,0.12c-8.08,9.61-18.24,6.16-28.16,4.73
			c-1.28-0.19-2.77,0.94-4.14,1.48c-1.85,0.73-4.81,2.57-5.31,2.05c-1.68-1.75-3.27-4.28-3.45-6.63
			c-0.89-11.2-1.77-22.44-1.78-33.66c-0.01-11.45,0.78-22.91,1.59-34.34c0.83-11.68,2.1-23.33,3.18-35
			C189.29,458.35,188.72,458.33,188.16,458.32z M392.83,306.6c1.95-9.57-0.7-16.33-13.96-13.29c-5.4,1.24-11.02,3.48-16.31,2.96
			c-19.72-1.95-39.32-6.62-59.02-6.96c-23.78-0.42-47.69,1.86-71.4,4.32c-9.49,0.98-18.62,5.53-27.82,8.71
			c-0.26,0.09,0.42,3.18,0.83,4.82c0.76,3.04,3.04,6.5,2.23,8.98c-2.3,7.1-8.05,13.66-8.48,20.67c-1.32,21.63-1.19,43.38-0.83,65.07
			c0.19,11.18,3.26,22.36,2.95,33.48c-0.88,31.52-3.61,63.02-3.65,94.53c-0.01,5.86-5.17,21.73,13.37,18.48
			c11.59-2.03,23.76-0.5,35.65-1.09c25.02-1.23,50.02-3.81,75.04-3.95c24.03-0.13,48.07,2.21,72.13,3.14
			c1.3,0.05,3.86-2.94,3.88-4.54c0.07-8.3-0.66-16.6-0.81-24.9c-0.35-19.6-0.28-39.21-0.85-58.81c-0.74-25.66-2.31-51.31-2.83-76.97
			C392.44,356.92,392.83,332.54,392.83,306.6z"/>
		<path class="st0" d="M392.83,306.6c0,25.94-0.39,50.32,0.11,74.67c0.52,25.67,2.09,51.31,2.83,76.97
			c0.57,19.59,0.49,39.21,0.85,58.81c0.15,8.3,0.88,16.6,0.81,24.9c-0.01,1.59-2.58,4.59-3.88,4.54
			c-24.05-0.93-48.09-3.27-72.13-3.14c-25.02,0.13-50.02,2.71-75.04,3.95c-11.89,0.59-24.06-0.94-35.65,1.09
			c-18.54,3.24-13.38-12.62-13.37-18.48c0.04-31.51,2.77-63,3.65-94.53c0.31-11.12-2.77-22.31-2.95-33.48
			c-0.36-21.69-0.49-43.44,0.83-65.07c0.43-7.01,6.18-13.57,8.48-20.67c0.81-2.49-1.47-5.94-2.23-8.98
			c-0.41-1.65-1.09-4.73-0.83-4.82c9.2-3.18,18.33-7.73,27.82-8.71c23.71-2.46,47.62-4.74,71.4-4.32c19.7,0.35,39.3,5.01,59.02,6.96
			c5.29,0.52,10.9-1.72,16.31-2.96C392.13,290.27,394.78,297.03,392.83,306.6z M260.37,420.51c-0.05-0.6-0.11-1.2-0.16-1.79
			c-7.72,0.99-15.54,1.57-23.11,3.25c-1.99,0.44-3.76,4.12-4.64,6.66c-0.67,1.92,0.22,4.38,0.41,6.6c2.45-0.54,4.89-1.17,7.36-1.6
			c8.54-1.46,17.06-3.72,25.66-4.06c11.59-0.45,23.24,0.68,34.87,1c10.03,0.27,20.13,1.13,30.06,0.22
			c5.46-0.5,10.83-3.77,15.82-6.54c1.83-1.02,2.46-4.21,3.64-6.41c-4.36-0.34-8.75-1.12-13.09-0.94
			C311.58,417.98,285.97,419.28,260.37,420.51z M261.99,497.45c-9.69,4.14-20.52,8.47-30.93,13.62c-1.25,0.62-0.3,5.72-0.36,8.74
			c2.43-0.16,5.03,0.18,7.25-0.58c9.52-3.24,18.97-9.78,28.36-9.63c20.11,0.32,40.14,4.34,60.27,5.97c2.76,0.22,5.93-4.54,8.91-7
			c-1.51-1.62-2.88-4.51-4.54-4.68C308.73,501.6,286.46,499.67,261.99,497.45z M327.11,332.72c0.77-1.04,2.46-3.3,4.14-5.57
			c-3.3-2.01-6.53-5.57-9.93-5.75c-13.5-0.71-27.06-0.27-40.59-0.44c-11.47-0.14-22.97-1.08-34.39-0.43
			c-2.67,0.15-5.33,5.09-7.28,8.27c-0.26,0.43,3.58,4.82,5.7,4.99c5.14,0.4,10.39-0.97,15.6-1
			C281.78,332.64,303.21,332.72,327.11,332.72z M277.24,486.62c5,0,7.79,0.84,8.83-0.15c3.34-3.2,6.04-7.08,8.98-10.7
			c-2.55-1.35-5.02-3.63-7.67-3.85c-5.63-0.48-11.43-0.42-17.02,0.38c-9.81,1.4-19.57,3.29-29.15,5.76c-0.84,0.22-0.17,6.26-0.2,9.6
			c2.09-0.37,4.19-0.65,6.25-1.13c3.34-0.76,6.7-2.5,9.96-2.3C264.9,484.68,272.54,486.02,277.24,486.62z M254.72,446.24
			c-0.16-1.24-0.32-2.49-0.48-3.73c-3.42,1.41-7.13,2.39-10.13,4.41c-1.68,1.13-3.45,4.48-2.89,5.99c0.76,2.07,3.6,4.6,5.7,4.75
			c12.65,0.89,25.38,1.82,38,1.17c3.09-0.16,5.92-6.13,8.67-9.59c0.08-0.1-2.04-2.84-3.16-2.86
			C278.53,446.16,266.62,446.24,254.72,446.24z M258.96,360.91c-0.06,0.01-4.03-0.33-6.71,1.37c-2.66,1.68-4.04,5.41-5.98,8.23
			c3.12,0.98,6.21,2.59,9.38,2.78c4.05,0.23,8.3-1.56,12.22-0.94c7.31,1.16,15.23,8.76,20.38-3.29c0.51-1.2,1.8-2.07,2.72-3.09
			c-1.44-1.17-2.8-3.21-4.33-3.35C278.57,361.84,270.46,361.56,258.96,360.91z M277.89,399.6c0.21,0.77,0.42,1.54,0.63,2.32
			c4.07-1.98,8.19-3.86,12.11-6.09c0.39-0.22-0.13-3.61-0.74-3.79c-3.84-1.13-7.82-2.35-11.77-2.43
			c-7.11-0.14-14.27,0.16-21.32,1.01c-2.33,0.28-5.31,2.39-6.29,4.47c-0.91,1.93-0.36,5.63,1.04,7.25c1.16,1.34,4.58,1.34,6.86,1
			C264.94,402.35,271.4,400.88,277.89,399.6z"/>
		<path d="M260.37,420.51c25.61-1.23,51.21-2.53,76.82-3.61c4.34-0.18,8.72,0.6,13.09,0.94c-1.18,2.2-1.8,5.39-3.64,6.41
			c-4.99,2.77-10.36,6.04-15.82,6.54c-9.93,0.91-20.03,0.05-30.06-0.22c-11.63-0.32-23.28-1.45-34.87-1
			c-8.59,0.33-17.11,2.59-25.66,4.06c-2.47,0.42-4.91,1.06-7.36,1.6c-0.2-2.22-1.09-4.69-0.41-6.6c0.89-2.54,2.65-6.21,4.64-6.66
			c7.57-1.68,15.38-2.26,23.11-3.25C260.26,419.31,260.31,419.91,260.37,420.51z"/>
		<path d="M261.99,497.45c24.47,2.22,46.74,4.15,68.96,6.45c1.66,0.17,3.03,3.05,4.54,4.68c-2.98,2.46-6.15,7.22-8.91,7
			c-20.13-1.63-40.16-5.66-60.27-5.97c-9.39-0.15-18.84,6.39-28.36,9.63c-2.23,0.76-4.83,0.42-7.25,0.58
			c0.07-3.02-0.89-8.12,0.36-8.74C241.47,505.92,252.3,501.59,261.99,497.45z"/>
		<path d="M327.11,332.72c-23.9,0-45.32-0.08-66.74,0.06c-5.21,0.04-10.46,1.4-15.6,1c-2.13-0.16-5.97-4.56-5.7-4.99
			c1.95-3.18,4.61-8.12,7.28-8.27c11.42-0.64,22.92,0.29,34.39,0.43c13.53,0.17,27.09-0.27,40.59,0.44c3.4,0.18,6.62,3.74,9.93,5.75
			C329.56,329.42,327.87,331.69,327.11,332.72z"/>
		<path d="M277.24,486.62c-4.7-0.6-12.33-1.94-20.02-2.39c-3.26-0.19-6.62,1.54-9.96,2.3c-2.06,0.47-4.17,0.76-6.25,1.13
			c0.03-3.34-0.63-9.39,0.2-9.6c9.58-2.47,19.34-4.36,29.15-5.76c5.59-0.8,11.39-0.86,17.02-0.38c2.65,0.22,5.12,2.5,7.67,3.85
			c-2.94,3.62-5.64,7.49-8.98,10.7C285.03,487.46,282.24,486.62,277.24,486.62z"/>
		<path d="M254.72,446.24c11.9,0,23.81-0.08,35.71,0.14c1.12,0.02,3.24,2.76,3.16,2.86c-2.75,3.46-5.58,9.43-8.67,9.59
			c-12.62,0.65-25.35-0.28-38-1.17c-2.1-0.15-4.94-2.68-5.7-4.75c-0.55-1.51,1.22-4.86,2.89-5.99c3-2.03,6.71-3,10.13-4.41
			C254.4,443.76,254.56,445,254.72,446.24z"/>
		<path d="M258.96,360.91c11.5,0.65,19.61,0.94,27.68,1.7c1.54,0.15,2.89,2.19,4.33,3.35c-0.93,1.02-2.21,1.89-2.72,3.09
			c-5.15,12.05-13.07,4.45-20.38,3.29c-3.92-0.62-8.17,1.17-12.22,0.94c-3.17-0.18-6.26-1.8-9.38-2.78
			c1.94-2.83,3.31-6.55,5.98-8.23C254.93,360.58,258.9,360.92,258.96,360.91z"/>
		<path d="M277.89,399.6c-6.49,1.28-12.95,2.74-19.48,3.73c-2.28,0.35-5.71,0.35-6.86-1c-1.4-1.63-1.95-5.32-1.04-7.25
			c0.98-2.08,3.97-4.19,6.29-4.47c7.05-0.85,14.22-1.15,21.32-1.01c3.95,0.08,7.93,1.3,11.77,2.43c0.61,0.18,1.13,3.57,0.74,3.79
			c-3.92,2.23-8.05,4.11-12.11,6.09C278.31,401.15,278.1,400.38,277.89,399.6z"/>
	</g>
</g>
</svg>
