<?xml version="1.0" encoding="utf-8"?>
<!-- Generator: Adobe Illustrator 23.0.0, SVG Export Plug-In . SVG Version: 6.00 Build 0)  -->
<svg version="1.1" id="Layer_1" xmlns="http://www.w3.org/2000/svg" xmlns:xlink="http://www.w3.org/1999/xlink" x="0px" y="0px"
	 viewBox="0 0 595.3 841.9" style="enable-background:new 0 0 595.3 841.9;" xml:space="preserve">
<g>
	<g>
		<path d="M188.2,458.3c0-25.6,0-51.3,0-76.9c0-21.5-0.2-43.1,0.2-64.6c0-2.5,2.9-5,4.5-7.6c1.7-2.8,5.5-6.9,4.8-8.2
			c-8.2-13.6,6.7-13.8,10.7-14.4c22.9-3.3,46-6.3,69.1-6.4c30.5-0.2,60.9,2.7,91.4,3.6c8.8,0.2,17.9-1.1,26.5-3.4
			c10-2.7,12,3.3,11.8,10c-0.5,15.6-2.9,31.2-3.1,46.9c-0.3,19.5,0.9,39,1.3,58.4c0.3,13.1,0,26.3,0.4,39.4
			c1,28.8,2.1,57.5,3.5,86.3c0.5,11,2.4,21.9,2.6,32.8c0.1,3.7-3.1,7.3-4.8,11c-2-1.4-3.9-3.7-6.1-4c-9.5-1.6-19.2-3-28.8-3.8
			c-21.7-1.9-43.4-4.3-65.2-4.7c-15.8-0.2-31.6,2.5-47.4,3.9c-9.8,0.9-19.6,2-29.4,3c-0.7,0.1-1.7-0.2-1.9,0.1
			c-8.1,9.6-18.2,6.2-28.2,4.7c-1.3-0.2-2.8,0.9-4.1,1.5c-1.9,0.7-4.8,2.6-5.3,2c-1.7-1.8-3.3-4.3-3.4-6.6
			c-0.9-11.2-1.8-22.4-1.8-33.7c0-11.5,0.8-22.9,1.6-34.3c0.8-11.7,2.1-23.3,3.2-35C189.3,458.4,188.7,458.3,188.2,458.3z
			 M392.8,306.6c2-9.6-0.7-16.3-14-13.3c-5.4,1.2-11,3.5-16.3,3c-19.7-2-39.3-6.6-59-7c-23.8-0.4-47.7,1.9-71.4,4.3
			c-9.5,1-18.6,5.5-27.8,8.7c-0.3,0.1,0.4,3.2,0.8,4.8c0.8,3,3,6.5,2.2,9c-2.3,7.1-8.1,13.7-8.5,20.7c-1.3,21.6-1.2,43.4-0.8,65.1
			c0.2,11.2,3.3,22.4,2.9,33.5c-0.9,31.5-3.6,63-3.6,94.5c0,5.9-5.2,21.7,13.4,18.5c11.6-2,23.8-0.5,35.7-1.1c25-1.2,50-3.8,75-4
			c24-0.1,48.1,2.2,72.1,3.1c1.3,0,3.9-2.9,3.9-4.5c0.1-8.3-0.7-16.6-0.8-24.9c-0.4-19.6-0.3-39.2-0.9-58.8
			c-0.7-25.7-2.3-51.3-2.8-77C392.4,356.9,392.8,332.5,392.8,306.6z"/>
		<path d="M260.4,420.5c25.6-1.2,51.2-2.5,76.8-3.6c4.3-0.2,8.7,0.6,13.1,0.9c-1.2,2.2-1.8,5.4-3.6,6.4c-5,2.8-10.4,6-15.8,6.5
			c-9.9,0.9-20,0-30.1-0.2c-11.6-0.3-23.3-1.5-34.9-1c-8.6,0.3-17.1,2.6-25.7,4.1c-2.5,0.4-4.9,1.1-7.4,1.6
			c-0.2-2.2-1.1-4.7-0.4-6.6c0.9-2.5,2.6-6.2,4.6-6.7c7.6-1.7,15.4-2.3,23.1-3.2C260.3,419.3,260.3,419.9,260.4,420.5z"/>
		<path d="M262,497.5c24.5,2.2,46.7,4.1,69,6.5c1.7,0.2,3,3,4.5,4.7c-3,2.5-6.1,7.2-8.9,7c-20.1-1.6-40.2-5.7-60.3-6
			c-9.4-0.1-18.8,6.4-28.4,9.6c-2.2,0.8-4.8,0.4-7.2,0.6c0.1-3-0.9-8.1,0.4-8.7C241.5,505.9,252.3,501.6,262,497.5z"/>
		<path d="M327.1,332.7c-23.9,0-45.3-0.1-66.7,0.1c-5.2,0-10.5,1.4-15.6,1c-2.1-0.2-6-4.6-5.7-5c1.9-3.2,4.6-8.1,7.3-8.3
			c11.4-0.6,22.9,0.3,34.4,0.4c13.5,0.2,27.1-0.3,40.6,0.4c3.4,0.2,6.6,3.7,9.9,5.8C329.6,329.4,327.9,331.7,327.1,332.7z"/>
		<path d="M277.2,486.6c-4.7-0.6-12.3-1.9-20-2.4c-3.3-0.2-6.6,1.5-10,2.3c-2.1,0.5-4.2,0.8-6.2,1.1c0-3.3-0.6-9.4,0.2-9.6
			c9.6-2.5,19.3-4.4,29.1-5.8c5.6-0.8,11.4-0.9,17-0.4c2.6,0.2,5.1,2.5,7.7,3.9c-2.9,3.6-5.6,7.5-9,10.7
			C285,487.5,282.2,486.6,277.2,486.6z"/>
		<path d="M254.7,446.2c11.9,0,23.8-0.1,35.7,0.1c1.1,0,3.2,2.8,3.2,2.9c-2.8,3.5-5.6,9.4-8.7,9.6c-12.6,0.6-25.4-0.3-38-1.2
			c-2.1-0.1-4.9-2.7-5.7-4.8c-0.6-1.5,1.2-4.9,2.9-6c3-2,6.7-3,10.1-4.4C254.4,443.8,254.6,445,254.7,446.2z"/>
		<path d="M259,360.9c11.5,0.6,19.6,0.9,27.7,1.7c1.5,0.1,2.9,2.2,4.3,3.4c-0.9,1-2.2,1.9-2.7,3.1c-5.1,12-13.1,4.5-20.4,3.3
			c-3.9-0.6-8.2,1.2-12.2,0.9c-3.2-0.2-6.3-1.8-9.4-2.8c1.9-2.8,3.3-6.5,6-8.2C254.9,360.6,258.9,360.9,259,360.9z"/>
		<path d="M277.9,399.6c-6.5,1.3-13,2.7-19.5,3.7c-2.3,0.4-5.7,0.4-6.9-1c-1.4-1.6-1.9-5.3-1-7.2c1-2.1,4-4.2,6.3-4.5
			c7-0.9,14.2-1.1,21.3-1c4,0.1,7.9,1.3,11.8,2.4c0.6,0.2,1.1,3.6,0.7,3.8c-3.9,2.2-8,4.1-12.1,6.1
			C278.3,401.1,278.1,400.4,277.9,399.6z"/>
	</g>
</g>
</svg>
