<?xml version="1.0" encoding="utf-8"?>
<!-- Generator: Adobe Illustrator 23.0.0, SVG Export Plug-In . SVG Version: 6.00 Build 0)  -->
<svg version="1.1" id="Layer_1" xmlns="http://www.w3.org/2000/svg" xmlns:xlink="http://www.w3.org/1999/xlink" x="0px" y="0px"
	 viewBox="0 0 595.28 841.89" style="enable-background:new 0 0 595.28 841.89;" xml:space="preserve">
<style type="text/css">
	.st0{fill:#FFFFFF;}
</style>
<g>
	<g>
		<path class="st0" d="M367,571.89c-71.3,0-142.61,0.02-213.91-0.16c-1.37,0-3.92-2.44-3.92-3.74
			c-0.19-97.46-0.18-194.92-0.01-292.38c0-1.24,2.36-3.56,3.63-3.56c97.46-0.17,194.92-0.17,292.38,0c1.28,0,3.68,2.28,3.68,3.51
			c0.17,97.63,0.17,195.25,0.01,292.88c0,1.16-2.2,3.31-3.39,3.32c-24.82,0.19-49.64,0.15-74.47,0.15
			c4.44-4.02,9.14-7.8,13.25-12.14c5.18-5.47,9.46-11.84,14.91-16.99c5.64-5.33,5.71-9.09,0.59-14.83
			c-11.44-12.8-22.44-25.99-33.32-39.27c-5.81-7.09-10.66-14.97-16.53-22c-4.41-5.28-9.84-9.7-14.6-14.71
			c-0.66-0.7-0.62-3.24,0.06-3.85c6.75-6.02,13.02-13.09,20.82-17.27c6.41-3.43,15.17-2.2,22.04-5.09
			c9.38-3.94,18.74-8.82,26.67-15.1c11.17-8.85,20.69-19.74,31.52-29.05c9.95-8.56,3.85-13.46-1.6-21.38
			c-5.46-7.95-8.89-9.87-16.65-4.25c-10.55,7.65-21.49,14.76-32.3,22.05c-0.56,0.38-1.57,0.37-2.26,0.16
			c-0.3-0.09-0.67-1.37-0.43-1.68c6.59-8.76,11.73-18.77,22.79-23.44c3.94-1.66,9.23-5.02,9.82-8.33c0.57-3.15-4.15-7.28-6.64-10.92
			c-0.86-1.26-2.12-2.26-2.98-3.53c-1.18-1.73-1.78-4.56-3.31-5.16c-1.95-0.76-5.38-0.62-6.78,0.65
			c-6.21,5.65-11.8,11.98-17.86,17.81c-6.06,5.81-12.37,11.37-18.72,16.87c-0.72,0.63-2.46,0.37-3.6,0.06
			c-0.36-0.1-0.76-1.99-0.38-2.58c4.99-7.7,10-15.39,15.3-22.88c1-1.42,3.71-1.57,4.86-2.95c3.17-3.84,5.43-8.54,8.99-11.92
			c3.79-3.6,2.54-5.04-0.91-7.49c-3.63-2.56-8.09-5.25-9.78-8.98c-3.49-7.68-9.58-10.33-15.81-4.65
			c-7.06,6.44-13.73,13.36-20.17,20.43c-17.62,19.33-26.35,42.26-26.3,68.37c0.01,3.41,2.2,6.77,3.05,10.23
			c0.43,1.76,0.9,4.18,0.07,5.46c-5.83,9.01-13.98,9.47-19.66,1.29c-6.46-9.3-12.15-19.22-19.34-27.91
			c-10.09-12.21-9.14-25.24-6.84-39.56c1.24-7.74,1.3-18.44-3.05-23.75c-9.07-11.05-22.59-16.98-37.45-17.78
			c-2.63-0.14-5.32,1.72-8.04,2.44c-5.82,1.54-12.31,1.81-17.39,4.64c-9.52,5.3-19.72,10.68-26.98,18.49
			c-13.69,14.75-17.31,32.35-7.85,51.43c6.18,12.47,16.03,20.91,28.93,24.95c8.4,2.63,17.6,4.22,26.34,3.86
			c9.51-0.39,15.46,0.27,19.1,11.02c3.78,11.16,10.22,21.63,16.79,31.55c5.84,8.81,1.82,14.02-4.36,19.29
			c-3.35,2.85-7.6,4.85-10.36,8.13c-7.2,8.56-13.73,17.67-20.66,26.46c-5.85,7.42-11.43,15.12-17.94,21.92
			c-6.56,6.84-6.38,16.66,0.98,21.68c7.53,5.13,14.35,11.37,22.14,16.01c3.66,2.18,8.37,6.44,13.52,1.19
			c4.33-4.42,9.53-8.02,13.67-12.59c10.57-11.65,21.33-23.2,30.94-35.62c9-11.64,9.12-12.27,18.83-1.5
			c7.52,8.35,14.26,17.44,22.13,25.43C340.81,547.39,354.05,559.5,367,571.89z"/>
		<path d="M367,571.89c-12.95-12.39-26.19-24.5-38.76-37.26c-7.87-7.99-14.61-17.08-22.13-25.43c-9.7-10.77-9.83-10.14-18.83,1.5
			c-9.61,12.42-20.37,23.97-30.94,35.62c-4.14,4.57-9.34,8.17-13.67,12.59c-5.15,5.25-9.86,0.99-13.52-1.19
			c-7.79-4.65-14.61-10.89-22.14-16.01c-7.36-5.01-7.54-14.84-0.98-21.68c6.51-6.8,12.1-14.5,17.94-21.92
			c6.93-8.79,13.46-17.9,20.66-26.46c2.77-3.29,7.02-5.28,10.36-8.13c6.18-5.27,10.2-10.47,4.36-19.29
			c-6.57-9.92-13.01-20.4-16.79-31.55c-3.64-10.75-9.59-11.42-19.1-11.02c-8.74,0.36-17.94-1.23-26.34-3.86
			c-12.91-4.03-22.75-12.48-28.93-24.95c-9.45-19.07-5.84-36.68,7.85-51.43c7.26-7.82,17.45-13.19,26.98-18.49
			c5.08-2.83,11.57-3.1,17.39-4.64c2.72-0.72,5.42-2.58,8.04-2.44c14.86,0.79,28.38,6.73,37.45,17.78c4.35,5.31,4.3,16,3.05,23.75
			c-2.3,14.33-3.25,27.36,6.84,39.56c7.18,8.69,12.88,18.61,19.34,27.91c5.68,8.18,13.84,7.72,19.66-1.29
			c0.83-1.29,0.37-3.71-0.07-5.46c-0.86-3.46-3.05-6.83-3.05-10.23c-0.05-26.12,8.68-49.04,26.3-68.37
			c6.45-7.07,13.11-13.99,20.17-20.43c6.22-5.68,12.31-3.03,15.81,4.65c1.69,3.73,6.15,6.41,9.78,8.98c3.45,2.44,4.7,3.89,0.91,7.49
			c-3.56,3.37-5.82,8.08-8.99,11.92c-1.14,1.38-3.85,1.53-4.86,2.95c-5.3,7.49-10.31,15.18-15.3,22.88
			c-0.38,0.58,0.02,2.48,0.38,2.58c1.14,0.31,2.88,0.57,3.6-0.06c6.35-5.5,12.66-11.06,18.72-16.87
			c6.07-5.82,11.65-12.16,17.86-17.81c1.4-1.28,4.83-1.41,6.78-0.65c1.53,0.6,2.13,3.43,3.31,5.16c0.86,1.26,2.12,2.26,2.98,3.53
			c2.48,3.64,7.2,7.77,6.64,10.92c-0.6,3.31-5.88,6.67-9.82,8.33c-11.06,4.67-16.2,14.68-22.79,23.44
			c-0.23,0.31,0.13,1.59,0.43,1.68c0.69,0.2,1.7,0.22,2.26-0.16c10.81-7.28,21.75-14.4,32.3-22.05c7.76-5.62,11.18-3.7,16.65,4.25
			c5.44,7.92,11.54,12.82,1.6,21.38c-10.83,9.32-20.36,20.2-31.52,29.05c-7.93,6.29-17.29,11.16-26.67,15.1
			c-6.86,2.88-15.63,1.66-22.04,5.09c-7.8,4.17-14.07,11.25-20.82,17.27c-0.68,0.61-0.73,3.16-0.06,3.85
			c4.75,5.01,10.19,9.43,14.6,14.71c5.87,7.03,10.73,14.91,16.53,22c10.87,13.28,21.88,26.47,33.32,39.27
			c5.12,5.73,5.05,9.5-0.59,14.83c-5.45,5.15-9.73,11.53-14.91,16.99c-4.11,4.34-8.81,8.11-13.25,12.14
			C369.67,571.89,368.33,571.89,367,571.89z M331.54,408.15c-2.93,2.83-6.15,6.59-10,9.52c-4.95,3.77-10.95,6.27-15.52,10.41
			c-7.88,7.15-14.99,15.16-22.46,22.77c-11.12,11.33-22.82,22.15-33.24,34.09c-9.28,10.63-17.18,22.48-25.66,33.81
			c-5.39,7.2-4.69,15.89,1.67,21.32c7.32,6.24,14.35,6.29,20.99-0.98c11.32-12.4,22.7-24.83,33.04-38.04
			c19.06-24.34,37.16-49.42,56.21-73.76c3.61-4.61,9.8-10.22,14.76-10.17c14.44,0.13,27.8-3.77,39.04-11.16
			c13-8.55,23.93-20.28,35.5-30.9c0.93-0.85,0.26-3.99-0.42-5.78c-0.31-0.82-2.62-1.6-3.69-1.28c-3,0.89-6.09,1.97-8.68,3.68
			c-11.95,7.9-23.5,16.44-35.76,23.8c-2.82,1.69-8.75,0.82-11.62-1.19c-1.72-1.2-1.67-7.82,0.01-10.44
			c6.18-9.66,13.43-18.63,20.12-27.98c0.95-1.32,1.02-3.27,1.5-4.93c-1.48,0.7-3.15,1.16-4.42,2.14
			c-9.27,7.19-18.32,14.67-27.72,21.67c-5.47,4.07-11.87,1.31-12.15-5.27c-0.18-4.15,0.95-8.46,2.1-12.53
			c4-14.17,11.91-25.96,22.43-36.19c0.94-0.92,0.95-4.55,0.04-5.33c-7.35-6.27-9.97,2.2-12.48,5.48c-7,9.14-12.74,19.25-18.86,29.05
			c-3.35,5.36-6.99,10.63-9.53,16.36c-1.91,4.33-3.75,9.58-3.03,14.01C325.1,388.84,328.3,397.09,331.54,408.15z M233.17,311.23
			c-4.79,0.56-10.08,0.44-14.88,1.92c-7.17,2.2-14.18,5.16-20.9,8.53c-3.6,1.81-6.05,6.08-9.7,7.61
			c-10.58,4.42-14.26,32.26-5.74,41.23c13.21,13.92,29.39,16.55,47.2,15.76c4.8-0.21,11.23-0.91,14.12,1.7
			c4.53,4.1,7.25,10.59,9.73,16.49c3.76,8.92,5.42,18.65,14.29,24.99c2.67,1.91,2.9,7.31,4.11,11.15c0.35,1.11,0.22,2.38,0.31,3.57
			c1.16-0.37,2.62-0.41,3.44-1.16c4.65-4.23,9.94-8.09,13.39-13.18c1.9-2.81,1.93-8.36,0.48-11.64c-2.78-6.25-7.1-11.85-11.02-17.55
			c-5.17-7.51-10.71-14.77-15.83-22.31c-2.22-3.28-3.82-6.99-5.61-10.54c-0.63-1.26-0.62-3.2-1.57-3.87
			c-4.14-2.95-4.69-5.99-2.19-10.54c1.87-3.41,2.75-7.5,3.49-11.39C259.96,322.83,252.38,312.72,233.17,311.23z M365.82,556.96
			c8.09-0.12,10.2-5.63,14.34-9.65c8.78-8.51,3.93-15.73-0.45-22.61c-12.51-19.62-26.39-38.21-43.67-54.1
			c-3.12-2.87-4.04-8.21-5.73-12.5c-0.45-1.15-0.02-2.66,0.01-4c-1.19,0.96-2.64,1.74-3.52,2.93c-5.37,7.28-11.06,14.39-15.72,22.11
			c-2.47,4.1-5.53,10.39-4.03,13.79c2.95,6.7,8.68,12.28,13.65,17.98c10.28,11.78,20.64,23.52,31.36,34.89
			C356.08,550.05,361.2,553.27,365.82,556.96z M399.79,342.21c-1.82-1.01-2.98-1.96-3.23-1.75c-2.4,1.88-4.64,3.96-6.93,5.98
			c0.58,0.41,1.44,1.31,1.7,1.16C393.93,346.07,396.44,344.38,399.79,342.21z"/>
		<path class="st0" d="M331.54,408.15c-3.23-11.05-6.44-19.31-7.82-27.85c-0.72-4.42,1.12-9.68,3.03-14.01
			c2.54-5.74,6.18-11.01,9.53-16.36c6.13-9.8,11.87-19.91,18.86-29.05c2.51-3.28,5.13-11.75,12.48-5.48
			c0.92,0.78,0.91,4.42-0.04,5.33c-10.51,10.23-18.42,22.01-22.43,36.19c-1.15,4.07-2.28,8.38-2.1,12.53
			c0.28,6.59,6.68,9.35,12.15,5.27c9.41-7,18.45-14.48,27.72-21.67c1.26-0.98,2.93-1.44,4.42-2.14c-0.48,1.66-0.55,3.61-1.5,4.93
			c-6.69,9.35-13.94,18.32-20.12,27.98c-1.68,2.63-1.73,9.24-0.01,10.44c2.87,2.01,8.8,2.88,11.62,1.19
			c12.26-7.36,23.81-15.9,35.76-23.8c2.59-1.71,5.68-2.78,8.68-3.68c1.07-0.32,3.38,0.46,3.69,1.28c0.67,1.8,1.34,4.93,0.42,5.78
			c-11.57,10.62-22.5,22.35-35.5,30.9c-11.25,7.4-24.6,11.29-39.04,11.16c-4.95-0.04-11.15,5.56-14.76,10.17
			c-19.05,24.34-37.16,49.42-56.21,73.76c-10.34,13.21-21.72,25.64-33.04,38.04c-6.64,7.27-13.67,7.23-20.99,0.98
			c-6.36-5.43-7.06-14.12-1.67-21.32c8.48-11.33,16.38-23.18,25.66-33.81c10.42-11.94,22.12-22.76,33.24-34.09
			c7.47-7.61,14.57-15.62,22.46-22.77c4.56-4.14,10.57-6.64,15.52-10.41C325.39,414.73,328.61,410.98,331.54,408.15z"/>
		<path class="st0" d="M233.17,311.23c19.21,1.49,26.79,11.6,23.12,30.75c-0.75,3.89-1.62,7.98-3.49,11.39
			c-2.5,4.55-1.95,7.6,2.19,10.54c0.95,0.68,0.94,2.62,1.57,3.87c1.79,3.56,3.39,7.27,5.61,10.54c5.11,7.55,10.65,14.8,15.83,22.31
			c3.93,5.7,8.24,11.3,11.02,17.55c1.46,3.28,1.42,8.83-0.48,11.64c-3.44,5.09-8.73,8.95-13.39,13.18
			c-0.82,0.75-2.28,0.79-3.44,1.16c-0.09-1.19,0.04-2.46-0.31-3.57c-1.21-3.84-1.44-9.24-4.11-11.15
			c-8.87-6.34-10.52-16.06-14.29-24.99c-2.49-5.9-5.2-12.39-9.73-16.49c-2.89-2.61-9.32-1.92-14.12-1.7
			c-17.81,0.79-33.99-1.83-47.2-15.76c-8.51-8.98-4.83-36.81,5.74-41.23c3.65-1.52,6.1-5.8,9.7-7.61c6.71-3.37,13.73-6.32,20.9-8.53
			C223.1,311.67,228.39,311.79,233.17,311.23z"/>
		<path class="st0" d="M365.82,556.96c-4.62-3.69-9.74-6.91-13.76-11.17c-10.72-11.38-21.08-23.11-31.36-34.89
			c-4.97-5.7-10.7-11.27-13.65-17.98c-1.5-3.41,1.56-9.7,4.03-13.79c4.66-7.72,10.35-14.83,15.72-22.11
			c0.88-1.19,2.33-1.96,3.52-2.93c-0.03,1.34-0.46,2.85-0.01,4c1.69,4.29,2.61,9.63,5.73,12.5c17.28,15.9,31.16,34.48,43.67,54.1
			c4.38,6.88,9.23,14.09,0.45,22.61C376.02,551.33,373.92,556.84,365.82,556.96z"/>
		<path class="st0" d="M399.79,342.21c-3.34,2.17-5.85,3.86-8.47,5.39c-0.25,0.15-1.12-0.75-1.7-1.16c2.29-2.02,4.53-4.1,6.93-5.98
			C396.81,340.25,397.97,341.2,399.79,342.21z"/>
	</g>
</g>
</svg>
