<?xml version="1.0" encoding="utf-8"?>
<!-- Generator: Adobe Illustrator 23.0.0, SVG Export Plug-In . SVG Version: 6.00 Build 0)  -->
<svg version="1.1" id="Layer_1" xmlns="http://www.w3.org/2000/svg" xmlns:xlink="http://www.w3.org/1999/xlink" x="0px" y="0px"
	 viewBox="0 0 595.28 841.89" style="enable-background:new 0 0 595.28 841.89;" xml:space="preserve">
<style type="text/css">
	.st0{fill:#FFFFFF;}
</style>
<g>
	<g>
		<path class="st0" d="M449,421.89c0,48.83,0.02,97.67-0.15,146.5c0,1.17-2.19,3.35-3.35,3.36c-97.67,0.16-195.33,0.16-293,0
			c-1.17,0-3.35-2.19-3.36-3.36c-0.16-97.67-0.16-195.33,0-293c0-1.17,2.19-3.35,3.35-3.36c97.67-0.16,195.33-0.16,293,0
			c1.17,0,3.35,2.18,3.35,3.36C449.02,324.22,449,373.06,449,421.89z M323.48,282.61c0.66-0.47,1.31-0.95,1.97-1.42
			c-0.98-1.48-1.86-4.12-2.97-4.22c-3.36-0.3-7.27-0.54-10.09,0.92c-3.39,1.75-5.79,5.33-8.74,8c-9.19,8.31-18.75,16.24-27.58,24.91
			c-11.03,10.82-21.52,22.18-32.13,33.43c-2.21,2.35-5.07,4.99-5.59,7.86c-2.45,13.63-4.41,27.36-6.05,41.11
			c-0.52,4.35-0.36,9.19,1.04,13.26c3.35,9.73,7.61,19.15,11.54,28.68c7.31,17.73,14.49,35.51,22.01,53.15
			c6.45,15.12,13.07,30.17,20.04,45.05c5.22,11.16,12.27,21.71,8.5,35.03c-0.1,0.36,2.06,2.03,2.57,1.79c3.09-1.41,5.92-3.39,9-4.81
			c4.92-2.25,9.87-5.48,15-5.88c3.84-0.3,13.6-5.08,13.45-9.62c-0.04-1.16-0.73-2.43-1.45-3.41c-4-5.47-9.1-10.39-11.99-16.38
			c-7.7-15.98-15.06-32.18-21.42-48.73c-4.99-12.98-8.6-26.52-12.26-39.96c-2.55-9.36,1.2-21.52-12.39-25.6
			c-1.07-0.32-2.19-2.34-2.3-3.65c-0.52-6.21-2.38-12.99-0.57-18.53c2.5-7.68,2.31-13.9-1.65-20.73c-1.05-1.81-0.7-5.69,0.61-7.39
			c6.32-8.26,13.27-16.05,19.85-24.12c11.26-13.82,24.26-25.4,40.51-33.18c8.54-4.09,8.34-7.62,0.94-13.78
			C329.47,291.18,326.73,286.59,323.48,282.61z"/>
		<path d="M323.48,282.61c3.25,3.97,5.99,8.56,9.86,11.79c7.4,6.16,7.6,9.69-0.94,13.78c-16.25,7.78-29.25,19.36-40.51,33.18
			c-6.58,8.07-13.52,15.86-19.85,24.12c-1.31,1.71-1.66,5.58-0.61,7.39c3.95,6.83,4.15,13.05,1.65,20.73
			c-1.81,5.54,0.06,12.32,0.57,18.53c0.11,1.31,1.23,3.33,2.3,3.65c13.59,4.08,9.84,16.23,12.39,25.6
			c3.66,13.44,7.27,26.99,12.26,39.96c6.37,16.55,13.72,32.75,21.42,48.73c2.89,5.99,7.98,10.91,11.99,16.38
			c0.72,0.98,1.41,2.25,1.45,3.41c0.15,4.54-9.61,9.32-13.45,9.62c-5.13,0.4-10.08,3.63-15,5.88c-3.09,1.41-5.91,3.4-9,4.81
			c-0.52,0.24-2.68-1.43-2.57-1.79c3.78-13.33-3.27-23.88-8.5-35.03c-6.97-14.88-13.6-29.93-20.04-45.05
			c-7.52-17.64-14.7-35.42-22.01-53.15c-3.93-9.53-8.19-18.95-11.54-28.68c-1.4-4.08-1.56-8.92-1.04-13.26
			c1.63-13.75,3.6-27.48,6.05-41.11c0.52-2.87,3.38-5.52,5.59-7.86c10.6-11.25,21.1-22.61,32.13-33.43
			c8.83-8.67,18.39-16.6,27.58-24.91c2.95-2.66,5.36-6.25,8.74-8c2.81-1.45,6.73-1.22,10.09-0.92c1.11,0.1,1.99,2.74,2.97,4.22
			C324.79,281.67,324.14,282.14,323.48,282.61z M308,552.82c5.36-4.44,10.7-7.39,10.32-8.79c-1.94-7.24-5.1-14.2-8.31-21.03
			c-5.84-12.4-12.63-24.38-17.9-37.01c-6.92-16.56-12.18-33.83-19.47-50.22c-1.66-3.72-1.62-16.92-12.51-8.16
			c-2.03,1.63-2.96,6.35-2.34,9.19c1.34,6.09,3.83,11.96,6.21,17.77c5.97,14.54,12.08,29.03,18.26,43.49
			c5.01,11.72,10.05,23.44,15.36,35.02C300.34,539.05,303.7,544.72,308,552.82z M323.99,298.42c-6.73-1.48-12.92-4.8-15.25-3.03
			c-11,8.35-21.33,17.69-31.14,27.45c-8.78,8.74-16.8,18.29-24.55,27.97c-1.2,1.5,0.29,5.88,1.61,8.36
			c0.72,1.35,4.51,2.67,5.51,1.98c3.21-2.22,5.84-5.32,8.57-8.2c13.2-13.9,26.23-27.96,39.6-41.7
			C312.32,307.18,317.19,303.95,323.99,298.42z M256.42,390.72c-0.05,0.02,2.43-1.04,4.9-2.1c-2.95-1.26-5.84-2.73-8.89-3.7
			c-1.5-0.48-3.36-0.31-4.94,0.06c-1.16,0.27-2.13,1.36-3.19,2.08c0.91,1.22,1.61,3.16,2.78,3.5
			C249.07,391.14,251.36,390.72,256.42,390.72z M252.27,418.37c3.43-2.21,6.73-4.34,10.04-6.47c-1.04-0.58-2.37-1.88-3.07-1.61
			c-3.75,1.49-7.34,3.37-10.98,5.12C249.32,416.2,250.39,416.98,252.27,418.37z M253.94,404.54c2.65-0.96,5.18-1.88,7.72-2.79
			c-1.26-0.64-2.58-1.93-3.76-1.81c-3.66,0.36-7.27,1.26-10.91,1.95C249.16,402.72,251.34,403.55,253.94,404.54z M256.56,373.8
			c-3.25-1.83-5.09-3.1-7.11-3.87c-0.59-0.22-1.71,0.96-2.59,1.5c1.77,1.21,3.46,2.58,5.36,3.52
			C252.88,375.27,254.07,374.51,256.56,373.8z"/>
		<path class="st0" d="M308,552.82c-4.3-8.1-7.66-13.77-10.39-19.73c-5.31-11.59-10.35-23.3-15.36-35.02
			c-6.18-14.46-12.29-28.95-18.26-43.49c-2.38-5.81-4.87-11.68-6.21-17.77c-0.63-2.84,0.31-7.56,2.34-9.19
			c10.89-8.76,10.85,4.44,12.51,8.16c7.29,16.38,12.55,33.65,19.47,50.22c5.27,12.63,12.07,24.61,17.9,37.01
			c3.22,6.83,6.37,13.79,8.31,21.03C318.69,545.44,313.36,548.38,308,552.82z"/>
		<path class="st0" d="M323.99,298.42c-6.8,5.53-11.66,8.75-15.64,12.84c-13.37,13.74-26.4,27.79-39.6,41.7
			c-2.73,2.88-5.36,5.98-8.57,8.2c-1,0.69-4.79-0.63-5.51-1.98c-1.32-2.48-2.81-6.87-1.61-8.36c7.75-9.68,15.77-19.23,24.55-27.97
			c9.81-9.76,20.14-19.1,31.14-27.45C311.07,293.63,317.25,296.94,323.99,298.42z"/>
		<path class="st0" d="M256.42,390.72c-5.06,0-7.35,0.42-9.34-0.16c-1.17-0.34-1.87-2.28-2.78-3.5c1.06-0.72,2.03-1.81,3.19-2.08
			c1.58-0.37,3.44-0.54,4.94-0.06c3.05,0.97,5.93,2.44,8.89,3.7C258.84,389.68,256.37,390.74,256.42,390.72z"/>
		<path class="st0" d="M252.27,418.37c-1.88-1.39-2.95-2.18-4.01-2.96c3.64-1.75,7.23-3.63,10.98-5.12c0.7-0.28,2.03,1.03,3.07,1.61
			C259,414.03,255.69,416.16,252.27,418.37z"/>
		<path class="st0" d="M253.94,404.54c-2.61-0.99-4.78-1.82-6.95-2.65c3.63-0.69,7.24-1.59,10.91-1.95
			c1.18-0.12,2.51,1.17,3.76,1.81C259.13,402.67,256.59,403.59,253.94,404.54z"/>
		<path class="st0" d="M256.56,373.8c-2.5,0.71-3.68,1.47-4.33,1.15c-1.9-0.94-3.59-2.32-5.36-3.52c0.88-0.54,2-1.72,2.59-1.5
			C251.48,370.7,253.31,371.97,256.56,373.8z"/>
	</g>
</g>
</svg>
