<?xml version="1.0" encoding="utf-8"?>
<!-- Generator: Adobe Illustrator 23.0.0, SVG Export Plug-In . SVG Version: 6.00 Build 0)  -->
<svg version="1.1" id="Layer_1" xmlns="http://www.w3.org/2000/svg" xmlns:xlink="http://www.w3.org/1999/xlink" x="0px" y="0px"
	 viewBox="0 0 595.3 841.9" style="enable-background:new 0 0 595.3 841.9;" xml:space="preserve">
<g>
	<g>
		<path d="M323.5,282.6c3.2,4,6,8.6,9.9,11.8c7.4,6.2,7.6,9.7-0.9,13.8c-16.2,7.8-29.2,19.4-40.5,33.2c-6.6,8.1-13.5,15.9-19.9,24.1
			c-1.3,1.7-1.7,5.6-0.6,7.4c4,6.8,4.1,13,1.6,20.7c-1.8,5.5,0.1,12.3,0.6,18.5c0.1,1.3,1.2,3.3,2.3,3.6
			c13.6,4.1,9.8,16.2,12.4,25.6c3.7,13.4,7.3,27,12.3,40c6.4,16.5,13.7,32.7,21.4,48.7c2.9,6,8,10.9,12,16.4c0.7,1,1.4,2.2,1.5,3.4
			c0.1,4.5-9.6,9.3-13.5,9.6c-5.1,0.4-10.1,3.6-15,5.9c-3.1,1.4-5.9,3.4-9,4.8c-0.5,0.2-2.7-1.4-2.6-1.8c3.8-13.3-3.3-23.9-8.5-35
			c-7-14.9-13.6-29.9-20-45c-7.5-17.6-14.7-35.4-22-53.1c-3.9-9.5-8.2-19-11.5-28.7c-1.4-4.1-1.6-8.9-1-13.3
			c1.6-13.8,3.6-27.5,6.1-41.1c0.5-2.9,3.4-5.5,5.6-7.9c10.6-11.2,21.1-22.6,32.1-33.4c8.8-8.7,18.4-16.6,27.6-24.9
			c3-2.7,5.4-6.2,8.7-8c2.8-1.5,6.7-1.2,10.1-0.9c1.1,0.1,2,2.7,3,4.2C324.8,281.7,324.1,282.1,323.5,282.6z M308,552.8
			c5.4-4.4,10.7-7.4,10.3-8.8c-1.9-7.2-5.1-14.2-8.3-21c-5.8-12.4-12.6-24.4-17.9-37c-6.9-16.6-12.2-33.8-19.5-50.2
			c-1.7-3.7-1.6-16.9-12.5-8.2c-2,1.6-3,6.4-2.3,9.2c1.3,6.1,3.8,12,6.2,17.8c6,14.5,12.1,29,18.3,43.5c5,11.7,10,23.4,15.4,35
			C300.3,539,303.7,544.7,308,552.8z M324,298.4c-6.7-1.5-12.9-4.8-15.2-3c-11,8.4-21.3,17.7-31.1,27.5c-8.8,8.7-16.8,18.3-24.6,28
			c-1.2,1.5,0.3,5.9,1.6,8.4c0.7,1.4,4.5,2.7,5.5,2c3.2-2.2,5.8-5.3,8.6-8.2c13.2-13.9,26.2-28,39.6-41.7
			C312.3,307.2,317.2,304,324,298.4z M256.4,390.7c0,0,2.4-1,4.9-2.1c-3-1.3-5.8-2.7-8.9-3.7c-1.5-0.5-3.4-0.3-4.9,0.1
			c-1.2,0.3-2.1,1.4-3.2,2.1c0.9,1.2,1.6,3.2,2.8,3.5C249.1,391.1,251.4,390.7,256.4,390.7z M252.3,418.4c3.4-2.2,6.7-4.3,10-6.5
			c-1-0.6-2.4-1.9-3.1-1.6c-3.8,1.5-7.3,3.4-11,5.1C249.3,416.2,250.4,417,252.3,418.4z M253.9,404.5c2.6-1,5.2-1.9,7.7-2.8
			c-1.3-0.6-2.6-1.9-3.8-1.8c-3.7,0.4-7.3,1.3-10.9,2C249.2,402.7,251.3,403.5,253.9,404.5z M256.6,373.8c-3.2-1.8-5.1-3.1-7.1-3.9
			c-0.6-0.2-1.7,1-2.6,1.5c1.8,1.2,3.5,2.6,5.4,3.5C252.9,375.3,254.1,374.5,256.6,373.8z"/>
	</g>
</g>
</svg>
