<?xml version="1.0" encoding="utf-8"?>
<!-- Generator: Adobe Illustrator 23.0.0, SVG Export Plug-In . SVG Version: 6.00 Build 0)  -->
<svg version="1.1" id="Layer_1" xmlns="http://www.w3.org/2000/svg" xmlns:xlink="http://www.w3.org/1999/xlink" x="0px" y="0px"
	 viewBox="0 0 595.28 841.89" style="enable-background:new 0 0 595.28 841.89;" xml:space="preserve">
<style type="text/css">
	.st0{fill:#FFFFFF;}
</style>
<g>
	<g>
		<path class="st0" d="M449,421.89c0,48.67-0.05,97.33,0.1,146c0.01,3.43-0.67,4.1-4.1,4.1c-97.33-0.12-194.67-0.12-292,0
			c-3.42,0-4.1-0.67-4.1-4.1c0.12-97.33,0.12-194.67,0-292c0-3.42,0.67-4.1,4.1-4.1c97.33,0.12,194.67,0.12,292,0
			c3.42,0,4.11,0.67,4.1,4.1C448.95,324.56,449,373.22,449,421.89z M163.6,518.22c-0.62,0.01-1.24,0.03-1.85,0.04
			c0.4,3.95,0.69,7.91,1.23,11.84c0.42,3.03,1.1,6.03,1.75,9.02c1.63,7.51,5.08-1.56,7.32,0.77c0.16,0.16,0.65,0.04,0.98-0.01
			c5.54-0.85,11.07-1.72,16.61-2.55c12.24-1.83,24.46-3.77,36.73-5.36c2.87-0.37,5.9,0.64,8.87,0.78c10.67,0.5,21.38,0.51,32,1.48
			c8.45,0.77,16.81,2.62,25.19,4.11c6.89,1.23,13.76,2.62,20.63,4c3.79,0.76,7.51,1.99,11.33,2.39c4.61,0.49,9.04-0.52,9.01-6.36
			c-0.02-3.32-1.7-6.59-2.12-9.95c-1.67-13.46-3.23-26.93-4.5-40.43c-0.11-1.21,1.9-3.47,3.29-3.83c5.25-1.37,10.62-2.41,16-3.08
			c4.34-0.54,8.78-0.59,13.16-0.46c5.85,0.17,12.39,2.57,17.4,0.7c9.82-3.68,19.23-9,27.97-14.88c6.11-4.11,11.73-9.65,15.94-15.69
			c5.04-7.24,8.83-15.48,12.2-23.69c2.19-5.32,2.74-11.34,3.87-17.07c0.57-2.89-0.21-7.62,1.32-8.47c6.25-3.48,3.32-9.42,4.05-13.81
			c1.52-9.21,1.61-18.77,1.29-28.15c-0.48-14.08-6.87-25.84-15.08-37.12c-4.43-6.09-11.88-10.05-13.31-18.56
			c-0.35-2.09-3.69-4.97-5.91-5.23c-14.34-1.62-28.78-2.94-42.23,4.52c-1.14,0.63-2.87,0.53-4.26,0.33
			c-10.31-1.47-20.58-3.33-30.92-4.53c-12.01-1.4-24.07-2.52-36.13-3.26c-12.28-0.75-24.61-0.83-36.91-1.32
			c-1.89-0.08-3.77-0.7-5.62-1.2c-1.37-0.38-2.85-1.66-3.99-1.37c-8.38,2.13-17.07,3.69-24.91,7.15c-6.67,2.94-12.6,7.84-18.34,12.5
			c-4.58,3.73-8.83,8.08-12.41,12.77c-3.27,4.29-5.83,9.23-8.04,14.19c-5.03,11.31-11.77,22.4-13.97,34.3
			c-4.01,21.67-6.34,43.81-7.34,65.85C162.68,465.07,163.6,491.67,163.6,518.22z"/>
		<path d="M163.6,518.22c0-26.56-0.92-53.16,0.28-79.66c1-22.04,3.33-44.18,7.34-65.85c2.2-11.89,8.94-22.99,13.97-34.3
			c2.2-4.95,4.77-9.9,8.04-14.19c3.58-4.69,7.82-9.04,12.41-12.77c5.74-4.67,11.67-9.56,18.34-12.5c7.83-3.46,16.52-5.02,24.91-7.15
			c1.14-0.29,2.62,0.99,3.99,1.37c1.85,0.51,3.73,1.13,5.62,1.2c12.3,0.49,24.63,0.57,36.91,1.32c12.07,0.73,24.12,1.86,36.13,3.26
			c10.34,1.2,20.61,3.06,30.92,4.53c1.39,0.2,3.12,0.3,4.26-0.33c13.45-7.46,27.89-6.15,42.23-4.52c2.22,0.25,5.56,3.14,5.91,5.23
			c1.43,8.51,8.88,12.47,13.31,18.56c8.21,11.28,14.61,23.04,15.08,37.12c0.32,9.38,0.23,18.94-1.29,28.15
			c-0.72,4.39,2.2,10.33-4.05,13.81c-1.53,0.85-0.76,5.58-1.32,8.47c-1.13,5.74-1.68,11.75-3.87,17.07
			c-3.37,8.2-7.16,16.45-12.2,23.69c-4.2,6.04-9.83,11.58-15.94,15.69c-8.74,5.88-18.14,11.2-27.97,14.88
			c-5,1.87-11.54-0.53-17.4-0.7c-4.38-0.12-8.82-0.08-13.16,0.46c-5.39,0.67-10.76,1.71-16,3.08c-1.39,0.36-3.41,2.62-3.29,3.83
			c1.27,13.5,2.84,26.97,4.5,40.43c0.42,3.36,2.1,6.63,2.12,9.95c0.04,5.84-4.4,6.85-9.01,6.36c-3.82-0.4-7.54-1.63-11.33-2.39
			c-6.87-1.38-13.73-2.77-20.63-4c-8.38-1.5-16.74-3.34-25.19-4.11c-10.62-0.97-21.33-0.97-32-1.48c-2.97-0.14-6-1.15-8.87-0.78
			c-12.27,1.58-24.5,3.53-36.73,5.36c-5.54,0.83-11.07,1.71-16.61,2.55c-0.33,0.05-0.82,0.17-0.98,0.01
			c-2.24-2.33-5.7,6.74-7.32-0.77c-0.65-2.99-1.34-5.99-1.75-9.02c-0.54-3.93-0.83-7.89-1.23-11.84
			C162.36,518.25,162.98,518.24,163.6,518.22z M309.67,534.13c0.05-0.31,0.1-0.63,0.15-0.94c1.5,0,3.02-0.18,4.48,0.03
			c5.3,0.78,7.22-1.32,6.59-6.65c-1.23-10.34-2.03-20.72-3.17-31.07c-1.59-14.42-3.49-28.81-4.95-43.24
			c-0.96-9.57-1.95-19.21-1.87-28.81c0.09-10.8,0.58-21.72,2.39-32.33c1.22-7.15,1.19-10.04-4.49-13.73
			c-2.36-1.53-4.13-4.12-5.73-6.52c-0.33-0.49,1.67-3.41,1.99-3.31c2.95,0.93,6.13,1.8,8.55,3.62c3.38,2.55,5.5,2.71,7.25-1.47
			c2.69-6.41,5.73-12.67,8.18-19.17c5.17-13.71,12.73-25.97,22.63-36.61c2.95-3.17,2.34-3.52-0.96-3.96
			c-13.28-1.75-26.53-4.14-39.87-4.86c-19.37-1.05-38.8-0.94-58.21-1.15c-4.76-0.05-9.56,0.38-14.27,1.07
			c-2.47,0.36-4.73,2.36-7.18,2.58c-8.72,0.77-14.61,6.18-19.86,12.14c-3.91,4.44-6.89,9.74-9.98,14.84
			c-2.94,4.85-5.52,9.92-8.18,14.93c-1.67,3.14-3.3,6.32-4.79,9.55c-1.13,2.46-2,5.05-2.98,7.58c2.41,0.19,4.82,0.39,7.24,0.55
			c0.99,0.06,2.27-0.37,2.94,0.1c1.73,1.21,3.19,2.8,4.77,4.24c-1.51,1.65-2.78,4.28-4.59,4.73c-3.21,0.8-6.82-0.13-10.11,0.48
			c-1.71,0.31-4.24,2.21-4.44,3.66c-1.46,10.59-2.34,21.26-3.61,31.88c-0.37,3.06-1.74,5.99-2.09,9.05
			c-0.72,6.2-1.19,12.44-1.52,18.68c-0.46,8.55-1.05,17.12-0.93,25.67c0.15,11.04,0.97,22.08,1.42,33.12
			c0.22,5.38,0.02,10.79,0.53,16.14c0.15,1.6,1.87,4.09,3.22,4.35c4.33,0.83,8.83,0.86,13.27,1.09c10.83,0.56,21.67,0.95,32.49,1.61
			c8.37,0.51,16.73,1.16,25.07,2.03c9.05,0.95,18.13,1.9,27.09,3.43C287.38,529.36,298.5,531.87,309.67,534.13z M432.75,365.42
			c0.2-10.11-3.1-19.23-8.21-27.2c-5.93-9.25-13.39-17.52-20.33-26.1c-0.68-0.84-2.39-1.28-3.59-1.21
			c-5.91,0.36-12.44-5.9-17.69,1.58c-12.68-1.42-20.37,6.88-27.78,14.93c-5.78,6.29-10.88,13.32-14.16,21.38
			c-2.47,6.05-4.78,12.17-6.98,18.33c-1.34,3.75-1.58,8.1-3.64,11.33c-3.72,5.85-5.81,11.9-5.72,18.77
			c0.18,12.96,0.6,25.92,0.41,38.87c-0.16,11.23,9.51,23.85,19.54,28.76c7.05,3.45,13.95,3.24,21.04,4.14
			c8.29,1.06,16.54,2.29,22.92-5.1c0.2-0.23,0.61-0.26,0.89-0.43c14.36-8.25,24.32-20.64,30.18-35.66
			c3.97-10.18,5.55-21.34,7.78-32.14C429.48,385.65,430.99,375.51,432.75,365.42z M326.19,474.43c3.12-2.43,4.68-3.64,6.24-4.86
			c-2.69-2.08-5.39-4.15-8.08-6.23c-0.5,0.95-1.6,2.07-1.39,2.83C323.61,468.61,324.76,470.91,326.19,474.43z M323.25,406.97
			c-0.21-0.27-0.4-0.52-0.6-0.76c-0.22,0.31-0.45,0.62-0.67,0.93c0.25,0.17,0.5,0.45,0.75,0.46
			C322.9,407.59,323.08,407.19,323.25,406.97z"/>
		<path class="st0" d="M309.67,534.13c-11.17-2.25-22.29-4.76-33.51-6.68c-8.97-1.53-18.04-2.49-27.09-3.43
			c-8.34-0.87-16.7-1.52-25.07-2.03c-10.82-0.66-21.66-1.05-32.49-1.61c-4.44-0.23-8.93-0.26-13.27-1.09
			c-1.35-0.26-3.06-2.75-3.22-4.35c-0.51-5.35-0.31-10.76-0.53-16.14c-0.45-11.04-1.28-22.08-1.42-33.12
			c-0.11-8.55,0.48-17.12,0.93-25.67c0.33-6.24,0.8-12.48,1.52-18.68c0.35-3.06,1.73-5.99,2.09-9.05
			c1.27-10.62,2.14-21.29,3.61-31.88c0.2-1.45,2.73-3.35,4.44-3.66c3.29-0.61,6.9,0.33,10.11-0.48c1.81-0.45,3.08-3.08,4.59-4.73
			c-1.57-1.44-3.04-3.03-4.77-4.24c-0.67-0.47-1.95-0.03-2.94-0.1c-2.41-0.15-4.83-0.36-7.24-0.55c0.98-2.53,1.85-5.11,2.98-7.58
			c1.48-3.24,3.11-6.41,4.79-9.55c2.67-5.01,5.24-10.08,8.18-14.93c3.09-5.1,6.07-10.41,9.98-14.84
			c5.25-5.96,11.15-11.37,19.86-12.14c2.45-0.22,4.71-2.22,7.18-2.58c4.71-0.69,9.51-1.12,14.27-1.07
			c19.41,0.2,38.84,0.1,58.21,1.15c13.34,0.72,26.59,3.11,39.87,4.86c3.3,0.44,3.91,0.79,0.96,3.96
			c-9.91,10.64-17.47,22.9-22.63,36.61c-2.45,6.49-5.49,12.76-8.18,19.17c-1.75,4.18-3.87,4.01-7.25,1.47
			c-2.41-1.82-5.59-2.69-8.55-3.62c-0.33-0.1-2.32,2.82-1.99,3.31c1.6,2.4,3.37,4.99,5.73,6.52c5.68,3.69,5.71,6.58,4.49,13.73
			c-1.81,10.61-2.3,21.53-2.39,32.33c-0.08,9.6,0.9,19.24,1.87,28.81c1.45,14.43,3.36,28.82,4.95,43.24
			c1.14,10.35,1.94,20.73,3.17,31.07c0.63,5.34-1.29,7.44-6.59,6.65c-1.46-0.22-2.99-0.03-4.48-0.03
			C309.77,533.5,309.72,533.81,309.67,534.13z M284.18,376.26c0.51,0.52,1.02,1.04,1.53,1.56c1.77-1.86,3.54-3.72,5.32-5.57
			c-1.89-1.7-3.54-3.93-5.74-4.95c-2.31-1.07-5.24-1.54-7.75-1.21c-2.44,0.32-5.13,1.57-6.87,3.27c-0.9,0.89-0.7,4.62,0.27,5.34
			c2.02,1.48,4.85,2.16,7.43,2.5C280.23,377.44,282.24,376.61,284.18,376.26z M247.27,366.74c-4.54,0.12-8.29,1.68-8.2,6.37
			c0.08,4.1,3.71,4.76,7.48,4.44c1.38-0.12,3.07,1.84,4.28,1.52c2.69-0.7,5.5-1.85,7.56-3.63c0.76-0.66,0.15-4.74-0.87-5.28
			C254.37,368.51,250.72,367.81,247.27,366.74z M221.04,375.17c0.14,0.01,2.05,0.68,3.03,0.01c1.76-1.21,4.35-4.56,4.21-4.71
			c-3.59-3.7-7.96-6.44-13.22-4.4c-1.8,0.7-2.73,3.62-4.06,5.52c1.73,1.19,3.36,2.57,5.22,3.49
			C217.18,375.55,218.53,375.17,221.04,375.17z"/>
		<path class="st0" d="M432.75,365.42c-1.76,10.09-3.27,20.23-5.33,30.25c-2.23,10.81-3.8,21.96-7.78,32.14
			c-5.87,15.03-15.82,27.42-30.18,35.66c-0.29,0.17-0.7,0.2-0.89,0.43c-6.38,7.39-14.63,6.16-22.92,5.1
			c-7.1-0.9-13.99-0.69-21.04-4.14c-10.02-4.91-19.69-17.53-19.54-28.76c0.18-12.95-0.24-25.92-0.41-38.87
			c-0.09-6.87,2-12.92,5.72-18.77c2.06-3.24,2.3-7.58,3.64-11.33c2.2-6.16,4.51-12.28,6.98-18.33c3.28-8.05,8.38-15.08,14.16-21.38
			c7.4-8.06,15.1-16.35,27.78-14.93c5.25-7.48,11.78-1.22,17.69-1.58c1.19-0.07,2.91,0.36,3.59,1.21
			c6.94,8.58,14.4,16.85,20.33,26.1C429.65,346.19,432.95,355.31,432.75,365.42z M350.22,415.92c3.24,9.96,5.75,21.3,17.05,28.3
			c13.62,8.43,26.12,0.33,32.8-9.38c1.77-2.58,2.66-5.76,3.97-8.65c2.61-5.75,6.03-11.27,7.66-17.28c2.59-9.53,4.05-19.37,5.86-29.1
			c2.11-11.31,0.65-22-6.55-31.32c-1.69-2.19-4.42-5.33-6.48-5.19c-8.12,0.56-17.38-2.11-23.44,6.39c-0.72,1.02-2.02,1.94-3.22,2.25
			c-7.88,2-12.14,8.21-16.09,14.34C352.35,380.91,351.67,397.7,350.22,415.92z"/>
		<path class="st0" d="M326.19,474.43c-1.43-3.53-2.57-5.82-3.23-8.25c-0.21-0.76,0.89-1.88,1.39-2.83
			c2.69,2.08,5.39,4.15,8.08,6.23C330.87,470.79,329.31,472,326.19,474.43z"/>
		<path class="st0" d="M323.25,406.97c-0.18,0.23-0.35,0.62-0.52,0.62c-0.25,0-0.5-0.29-0.75-0.46c0.22-0.31,0.45-0.62,0.67-0.93
			C322.85,406.45,323.05,406.7,323.25,406.97z"/>
		<path d="M284.18,376.26c-1.94,0.35-3.95,1.18-5.81,0.93c-2.58-0.34-5.41-1.02-7.43-2.5c-0.97-0.72-1.18-4.45-0.27-5.34
			c1.73-1.7,4.43-2.94,6.87-3.27c2.52-0.33,5.44,0.14,7.75,1.21c2.2,1.02,3.85,3.25,5.74,4.95c-1.77,1.86-3.54,3.72-5.32,5.57
			C285.2,377.3,284.69,376.78,284.18,376.26z"/>
		<path d="M247.27,366.74c3.45,1.07,7.1,1.77,10.24,3.43c1.03,0.54,1.63,4.62,0.87,5.28c-2.06,1.78-4.87,2.93-7.56,3.63
			c-1.21,0.31-2.9-1.64-4.28-1.52c-3.77,0.32-7.39-0.34-7.48-4.44C238.97,368.42,242.73,366.86,247.27,366.74z"/>
		<path d="M221.04,375.17c-2.52,0-3.87,0.38-4.8-0.08c-1.86-0.92-3.5-2.3-5.22-3.49c1.33-1.91,2.26-4.83,4.06-5.52
			c5.25-2.04,9.62,0.7,13.22,4.4c0.14,0.14-2.45,3.5-4.21,4.71C223.09,375.86,221.19,375.18,221.04,375.17z"/>
		<path d="M350.22,415.92c1.45-18.21,2.14-35.01,11.56-49.63c3.95-6.13,8.21-12.34,16.09-14.34c1.2-0.3,2.5-1.23,3.22-2.25
			c6.06-8.51,15.32-5.83,23.44-6.39c2.05-0.14,4.78,3,6.48,5.19c7.2,9.32,8.66,20,6.55,31.32c-1.81,9.73-3.28,19.57-5.86,29.1
			c-1.63,6.01-5.05,11.53-7.66,17.28c-1.31,2.89-2.2,6.08-3.97,8.65c-6.68,9.71-19.18,17.81-32.8,9.38
			C355.96,437.22,353.46,425.88,350.22,415.92z M397.1,414.77c1.85-3.45,3.77-6.86,5.48-10.38c0.22-0.45-0.55-1.98-0.95-2.01
			c-0.8-0.07-2.05,0.32-2.42,0.93c-1.85,3.09-2.88,6.87-5.28,9.38c-5.95,6.22-12.29,12.09-18.85,17.67
			c-3.48,2.96-1.13,4.79,0.97,5.35c2.29,0.61,5.44,0.21,7.51-0.97c7.72-4.41,10.78-12.23,13.57-20.12
			C397.13,414.62,397.1,414.77,397.1,414.77z M366.21,405.98c0.45-1.67,0.59-3.06,1.2-4.21c0.82-1.54,1.82-3.08,3.06-4.29
			c7.59-7.39,15.18-14.79,22.98-21.97c3.22-2.96,7.02-5.28,10.41-8.06c1.73-1.42,4.76-4.06,4.43-4.69
			c-1.65-3.15-4.15-5.87-6.55-8.57c-0.31-0.35-2.15,0.05-2.69,0.64c-2.13,2.33-3.75,5.18-6.07,7.27c-3.82,3.44-8.28,6.19-12.04,9.7
			c-5.07,4.74-9.76,9.89-14.5,14.97c-0.36,0.38-0.06,1.61,0.22,2.34c1.52,3.92,1.09,6.97-3.07,9.1c-0.98,0.5-1.57,2.41-1.66,3.72
			C361.88,402.58,363.35,403.35,366.21,405.98z M407.3,381.1c-0.24-0.53-0.54-1.84-0.88-1.85c-0.82-0.02-1.87,0.35-2.46,0.94
			c-2.56,2.57-4.6,5.83-7.52,7.83c-12.46,8.53-22.14,19.65-30.64,31.92c-0.68,0.98,0.05,2.92,0.12,4.41
			c1.1-0.41,2.44-0.55,3.26-1.27c3.43-3.04,6.86-6.11,10-9.43c3.73-3.94,7.08-8.25,10.78-12.23c3.56-3.84,6.76-9.31,11.19-10.72
			C406.93,388.88,406.07,384.97,407.3,381.1z"/>
		<path class="st0" d="M366.21,405.98c-2.86-2.63-4.32-3.4-4.28-4.06c0.09-1.31,0.68-3.22,1.66-3.72c4.17-2.13,4.59-5.18,3.07-9.1
			c-0.28-0.72-0.58-1.95-0.22-2.34c4.75-5.07,9.43-10.23,14.5-14.97c3.75-3.51,8.21-6.26,12.04-9.7c2.32-2.09,3.94-4.94,6.07-7.27
			c0.54-0.59,2.38-0.99,2.69-0.64c2.4,2.69,4.91,5.42,6.55,8.57c0.33,0.63-2.7,3.27-4.43,4.69c-3.4,2.78-7.2,5.1-10.41,8.06
			c-7.8,7.18-15.39,14.58-22.98,21.97c-1.24,1.21-2.24,2.75-3.06,4.29C366.8,402.92,366.66,404.31,366.21,405.98z"/>
		<path class="st0" d="M407.3,381.1c-1.23,3.87-0.37,7.77-6.15,9.61c-4.42,1.4-7.63,6.88-11.19,10.72
			c-3.7,3.98-7.05,8.29-10.78,12.23c-3.15,3.32-6.57,6.39-10,9.43c-0.82,0.72-2.16,0.86-3.26,1.27c-0.07-1.49-0.8-3.44-0.12-4.41
			c8.49-12.26,18.18-23.38,30.64-31.92c2.92-2,4.96-5.26,7.52-7.83c0.58-0.59,1.63-0.96,2.46-0.94
			C406.76,379.26,407.06,380.57,407.3,381.1z"/>
		<path class="st0" d="M397.13,414.62c-2.79,7.88-5.86,15.71-13.57,20.12c-2.07,1.18-5.22,1.58-7.51,0.97
			c-2.1-0.56-4.44-2.39-0.97-5.35c6.56-5.58,12.9-11.46,18.85-17.67c2.4-2.51,3.43-6.29,5.28-9.38c0.37-0.61,1.62-1,2.42-0.93
			c0.4,0.03,1.17,1.56,0.95,2.01c-1.71,3.51-3.63,6.93-5.49,10.39c0,0.01-0.16,0.14-0.16,0.14L397.13,414.62z"/>
		<path d="M397.13,414.62l-0.2,0.3c0,0,0.16-0.13,0.16-0.14S397.13,414.62,397.13,414.62z"/>
	</g>
</g>
</svg>
